<svg width="30" height="30" viewBox="0 0 30 30" fill="none" xmlns="http://www.w3.org/2000/svg">
<path d="M21.7677 13.0177C22.5 12.2855 22.5 11.107 22.5 8.75C22.5 6.39298 22.5 5.21446 21.7677 4.48224M21.7677 13.0177C21.0355 13.75 19.857 13.75 17.5 13.75H12.5C10.143 13.75 8.96446 13.75 8.23224 13.0177M21.7677 4.48224C21.0355 3.75 19.857 3.75 17.5 3.75H12.5C10.143 3.75 8.96446 3.75 8.23224 4.48224M8.23224 4.48224C7.5 5.21446 7.5 6.39298 7.5 8.75C7.5 11.107 7.5 12.2855 8.23224 13.0177" stroke="#295506"/>
<path d="M16.25 8.75C16.25 9.44035 15.6904 10 15 10C14.3096 10 13.75 9.44035 13.75 8.75C13.75 8.05965 14.3096 7.5 15 7.5C15.6904 7.5 16.25 8.05965 16.25 8.75Z" stroke="#295506"/>
<path d="M22.5 7.5C20.4289 7.5 18.75 5.82106 18.75 3.75" stroke="#295506" stroke-linecap="round"/>
<path d="M22.5 10C20.4289 10 18.75 11.6789 18.75 13.75" stroke="#295506" stroke-linecap="round"/>
<path d="M7.5 7.5C9.57106 7.5 11.25 5.82106 11.25 3.75" stroke="#295506" stroke-linecap="round"/>
<path d="M7.5 10C9.57106 10 11.25 11.6789 11.25 13.75" stroke="#295506" stroke-linecap="round"/>
<path d="M5 26.7355H7.82491C9.08849 26.7355 10.3657 26.8671 11.5954 27.1205C13.7707 27.5686 16.061 27.6229 18.2586 27.2672M17.0955 23.1465C17.2452 23.1291 17.3887 23.1092 17.5257 23.0874C18.665 22.9056 19.6212 22.2969 20.4967 21.6355L22.7557 19.9291C23.5521 19.3275 24.7341 19.3274 25.5306 19.9287C26.2477 20.4702 26.467 21.3617 26.0136 22.0884C25.485 22.9359 24.7401 24.02 24.0249 24.6824M17.0955 23.1465C17.0504 23.1517 17.0047 23.1567 16.9585 23.1615M17.0955 23.1465C17.2777 23.1075 17.4586 22.995 17.6285 22.8469C18.4325 22.1451 18.4832 20.9625 17.7856 20.1789C17.6239 19.9971 17.4344 19.8455 17.2239 19.7199C13.7271 17.6342 8.28677 19.2227 5 21.5536M17.0955 23.1465C17.0499 23.1562 17.0041 23.1615 16.9585 23.1615M16.9585 23.1615C16.3042 23.2286 15.539 23.246 14.6897 23.1657" stroke="#295506" stroke-linecap="round"/>
</svg>
