<svg width="24" height="24" viewBox="0 0 24 24" fill="none" xmlns="http://www.w3.org/2000/svg">
<g clip-path="url(#clip0_6_3735)">
<path d="M22.0144 1.984C20.7352 0.7044 19.0276 0 17.206 0C15.3848 0 13.6772 0.7044 12.3976 1.984L1.984 12.398C0.7044 13.6772 0 15.3848 0 17.206C0 19.0276 0.7044 20.7352 1.984 22.0144C3.2632 23.294 4.9708 23.9984 6.7924 23.9984C8.614 23.9984 10.3212 23.294 11.6008 22.0144L22.0148 11.6004C23.2944 10.3212 23.9988 8.6136 23.9988 6.792C23.9988 4.9704 23.294 3.2632 22.0144 1.984ZM21.4488 11.0348L16.6404 15.8432L8.1552 7.358L12.9636 2.5496C14.0916 1.4212 15.5984 0.8 17.206 0.8C18.814 0.8 20.3204 1.4212 21.4488 2.5496C22.5772 3.6776 23.1984 5.1844 23.1984 6.792C23.1984 8.3996 22.5772 9.9068 21.4488 11.0348Z" fill="#9137BC"/>
</g>
<defs>
<clipPath id="clip0_6_3735">
<rect width="24" height="24" fill="white"/>
</clipPath>
</defs>
</svg>
