<svg width="390" height="844" viewBox="0 0 390 844" fill="none" xmlns="http://www.w3.org/2000/svg">
<g clip-path="url(#clip0_8_5617)">
<rect width="390" height="844" fill="url(#paint0_linear_8_5617)"/>
<g filter="url(#filter0_b_8_5617)">
<rect x="122" y="831" width="146" height="5" rx="2.5" fill="white"/>
</g>
<g filter="url(#filter1_b_8_5617)">
<rect width="390" height="44.001" fill="#F9F9F9" fill-opacity="0.78"/>
<rect width="390" height="44" fill="#06334D"/>
<g filter="url(#filter2_b_8_5617)">
<path d="M27.3776 27.8409V26.1648L32.3151 18.3636H33.7128V20.75H32.8606L29.5367 26.017V26.108H36.4287V27.8409H27.3776ZM32.9287 30V27.3295L32.9515 26.5795V18.3636H34.9401V30H32.9287ZM39.2139 28.6023C38.8692 28.6023 38.5737 28.4811 38.3275 28.2386C38.0813 27.9924 37.9601 27.697 37.9639 27.3523C37.9601 27.0114 38.0813 26.7197 38.3275 26.4773C38.5737 26.2348 38.8692 26.1136 39.2139 26.1136C39.5472 26.1136 39.837 26.2348 40.0832 26.4773C40.3332 26.7197 40.4601 27.0114 40.4639 27.3523C40.4601 27.5833 40.3995 27.7936 40.282 27.983C40.1684 28.1723 40.0169 28.3239 39.8275 28.4375C39.6419 28.5473 39.4373 28.6023 39.2139 28.6023ZM39.2139 22.8352C38.8692 22.8352 38.5737 22.714 38.3275 22.4716C38.0813 22.2254 37.9601 21.9299 37.9639 21.5852C37.9601 21.2443 38.0813 20.9527 38.3275 20.7102C38.5737 20.464 38.8692 20.3409 39.2139 20.3409C39.5472 20.3409 39.837 20.464 40.0832 20.7102C40.3332 20.9527 40.4601 21.2443 40.4639 21.5852C40.4601 21.8125 40.3995 22.0208 40.282 22.2102C40.1684 22.3996 40.0169 22.5511 39.8275 22.6648C39.6419 22.7784 39.4373 22.8352 39.2139 22.8352ZM42.2447 30V28.4773L46.2845 24.517C46.6709 24.1269 46.9928 23.7803 47.2504 23.4773C47.508 23.1742 47.7012 22.8807 47.8299 22.5966C47.9587 22.3125 48.0231 22.0095 48.0231 21.6875C48.0231 21.3201 47.9398 21.0057 47.7731 20.7443C47.6065 20.4792 47.3773 20.2746 47.0856 20.1307C46.794 19.9867 46.4625 19.9148 46.0913 19.9148C45.7087 19.9148 45.3735 19.9943 45.0856 20.1534C44.7977 20.3087 44.5743 20.5303 44.4152 20.8182C44.2599 21.1061 44.1822 21.4489 44.1822 21.8466H42.1765C42.1765 21.108 42.3451 20.4659 42.6822 19.9205C43.0193 19.375 43.4834 18.9527 44.0743 18.6534C44.669 18.3542 45.3508 18.2045 46.1197 18.2045C46.9 18.2045 47.5856 18.3504 48.1765 18.642C48.7674 18.9337 49.2258 19.3333 49.5515 19.8409C49.8811 20.3485 50.0459 20.928 50.0459 21.5795C50.0459 22.0152 49.9625 22.4432 49.7959 22.8636C49.6292 23.2841 49.3356 23.75 48.9152 24.2614C48.4985 24.7727 47.9133 25.392 47.1595 26.1193L45.1538 28.1591V28.2386H50.222V30H42.2447ZM56.1634 30.2216C55.2277 30.2216 54.4247 29.9848 53.7543 29.5114C53.0876 29.0341 52.5743 28.3466 52.2145 27.4489C51.8584 26.5473 51.6804 25.4621 51.6804 24.1932C51.6842 22.9242 51.8641 21.8447 52.2202 20.9545C52.58 20.0606 53.0933 19.3788 53.7599 18.9091C54.4304 18.4394 55.2315 18.2045 56.1634 18.2045C57.0952 18.2045 57.8963 18.4394 58.5668 18.9091C59.2372 19.3788 59.7505 20.0606 60.1065 20.9545C60.4664 21.8485 60.6463 22.928 60.6463 24.1932C60.6463 25.4659 60.4664 26.553 60.1065 27.4545C59.7505 28.3523 59.2372 29.0379 58.5668 29.5114C57.9001 29.9848 57.099 30.2216 56.1634 30.2216ZM56.1634 28.4432C56.8906 28.4432 57.4645 28.0852 57.8849 27.3693C58.3092 26.6496 58.5213 25.5909 58.5213 24.1932C58.5213 23.2689 58.4247 22.4924 58.2315 21.8636C58.0384 21.2348 57.7656 20.7614 57.4134 20.4432C57.0611 20.1212 56.6444 19.9602 56.1634 19.9602C55.4399 19.9602 54.8679 20.3201 54.4474 21.0398C54.027 21.7557 53.8149 22.8068 53.8111 24.1932C53.8073 25.1212 53.9001 25.9015 54.0895 26.5341C54.2827 27.1667 54.5554 27.6439 54.9077 27.9659C55.2599 28.2841 55.6785 28.4432 56.1634 28.4432Z" fill="white"/>
</g>
<g filter="url(#filter3_b_8_5617)">
<g clip-path="url(#clip1_8_5617)">
<rect opacity="0.2" x="317.5" y="19" width="3.5" height="11.5" rx="1" fill="white"/>
<path d="M312.5 22.5C312.5 21.9477 312.948 21.5 313.5 21.5H315C315.552 21.5 316 21.9477 316 22.5V29.5C316 30.0523 315.552 30.5 315 30.5H313.5C312.948 30.5 312.5 30.0523 312.5 29.5V22.5Z" fill="white"/>
<path d="M307.5 25C307.5 24.4477 307.948 24 308.5 24H310C310.552 24 311 24.4477 311 25V29.5C311 30.0523 310.552 30.5 310 30.5H308.5C307.948 30.5 307.5 30.0523 307.5 29.5V25Z" fill="white"/>
<path d="M302.5 27C302.5 26.4477 302.948 26 303.5 26H305C305.552 26 306 26.4477 306 27V29.5C306 30.0523 305.552 30.5 305 30.5H303.5C302.948 30.5 302.5 30.0523 302.5 29.5V27Z" fill="white"/>
<path d="M336.325 28.2891C336.39 28.2255 336.426 28.138 336.424 28.0473C336.422 27.9566 336.383 27.8707 336.316 27.8098C334.979 26.6784 333.022 26.6784 331.686 27.8098C331.618 27.8706 331.579 27.9565 331.577 28.0472C331.575 28.138 331.611 28.2254 331.676 28.2891L333.768 30.4029C333.83 30.465 333.913 30.5 334.001 30.5C334.088 30.5 334.171 30.465 334.233 30.4029L336.325 28.2891Z" fill="white"/>
<path d="M334 25.369C335.276 25.369 336.506 25.8435 337.451 26.7006C337.579 26.8222 337.781 26.8195 337.905 26.6946L339.115 25.4711C339.179 25.4069 339.214 25.3199 339.213 25.2294C339.212 25.1389 339.175 25.0526 339.11 24.9898C336.231 22.3088 331.772 22.3088 328.893 24.9898C328.828 25.0526 328.791 25.139 328.79 25.2295C328.789 25.32 328.825 25.407 328.889 25.4711L330.098 26.6946C330.223 26.8195 330.424 26.8222 330.552 26.7006C331.497 25.8441 332.726 25.3696 334 25.369Z" fill="white"/>
<path opacity="0.2" d="M334 21.3883C336.322 21.3884 338.555 22.2813 340.237 23.8825C340.364 24.0061 340.566 24.0045 340.691 23.879L341.902 22.6555C341.965 22.5918 342.001 22.5055 342 22.4158C341.999 22.326 341.963 22.2402 341.899 22.1772C337.483 17.9409 330.517 17.9409 326.101 22.1772C326.037 22.2401 326.001 22.326 326 22.4157C325.999 22.5055 326.035 22.5917 326.098 22.6555L327.309 23.879C327.434 24.0047 327.637 24.0063 327.763 23.8825C329.446 22.2812 331.679 21.3883 334 21.3883Z" fill="white"/>
<g clip-path="url(#clip2_8_5617)">
<path d="M348 21.75C348 21.0596 348.56 20.5 349.25 20.5H350V29H349.25C348.56 29 348 28.4404 348 27.75V21.75Z" fill="white"/>
<path d="M350 20.5H352V29H350V20.5Z" fill="white"/>
<path d="M352 20.5H354V29H352V20.5Z" fill="white"/>
<path d="M354 20.5H356V29H354V20.5Z" fill="white"/>
<path d="M356 20.5H358V29H356V20.5Z" fill="white"/>
<path d="M358 20.5H360V29H358V20.5Z" fill="white"/>
<path d="M360 20.5H362V29H360V20.5Z" fill="white"/>
<path d="M364 21.75C364 21.0596 363.44 20.5 362.75 20.5H362V29H362.75C363.44 29 364 28.4404 364 27.75V21.75Z" fill="white"/>
</g>
<g opacity="0.5">
<path fill-rule="evenodd" clip-rule="evenodd" d="M346 21.5C346 19.8431 347.343 18.5 349 18.5H367C368.657 18.5 370 19.8431 370 21.5V28C370 29.6569 368.657 31 367 31H349C347.343 31 346 29.6569 346 28V21.5ZM349 19.5C347.895 19.5 347 20.3954 347 21.5V28C347 29.1046 347.895 30 349 30H367C368.105 30 369 29.1046 369 28V21.5C369 20.3954 368.105 19.5 367 19.5H349Z" fill="white"/>
<path d="M371 27.042C371.883 26.6562 372.5 25.7751 372.5 24.75C372.5 23.7248 371.883 22.8438 371 22.458V27.042Z" fill="white"/>
</g>
</g>
</g>
<rect y="43.5" width="390" height="0.5" fill="#06334D"/>
</g>
<circle cx="144" cy="656" r="235" fill="#03456A"/>
<path d="M40.032 515.288C38.736 515.288 37.528 515.08 36.408 514.664C35.304 514.232 34.344 513.624 33.528 512.84C32.712 512.056 32.072 511.136 31.608 510.08C31.16 509.024 30.936 507.864 30.936 506.6C30.936 505.336 31.16 504.176 31.608 503.12C32.072 502.064 32.712 501.144 33.528 500.36C34.36 499.576 35.328 498.976 36.432 498.56C37.536 498.128 38.744 497.912 40.056 497.912C41.512 497.912 42.824 498.168 43.992 498.68C45.176 499.176 46.168 499.912 46.968 500.888L44.472 503.192C43.896 502.536 43.256 502.048 42.552 501.728C41.848 501.392 41.08 501.224 40.248 501.224C39.464 501.224 38.744 501.352 38.088 501.608C37.432 501.864 36.864 502.232 36.384 502.712C35.904 503.192 35.528 503.76 35.256 504.416C35 505.072 34.872 505.8 34.872 506.6C34.872 507.4 35 508.128 35.256 508.784C35.528 509.44 35.904 510.008 36.384 510.488C36.864 510.968 37.432 511.336 38.088 511.592C38.744 511.848 39.464 511.976 40.248 511.976C41.08 511.976 41.848 511.816 42.552 511.496C43.256 511.16 43.896 510.656 44.472 509.984L46.968 512.288C46.168 513.264 45.176 514.008 43.992 514.52C42.824 515.032 41.504 515.288 40.032 515.288ZM55.0283 515.192C53.6523 515.192 52.4283 514.904 51.3563 514.328C50.3003 513.752 49.4603 512.968 48.8363 511.976C48.2283 510.968 47.9243 509.824 47.9243 508.544C47.9243 507.248 48.2283 506.104 48.8363 505.112C49.4603 504.104 50.3003 503.32 51.3563 502.76C52.4283 502.184 53.6523 501.896 55.0283 501.896C56.3883 501.896 57.6043 502.184 58.6763 502.76C59.7483 503.32 60.5883 504.096 61.1963 505.088C61.8043 506.08 62.1083 507.232 62.1083 508.544C62.1083 509.824 61.8043 510.968 61.1963 511.976C60.5883 512.968 59.7483 513.752 58.6763 514.328C57.6043 514.904 56.3883 515.192 55.0283 515.192ZM55.0283 512.12C55.6523 512.12 56.2123 511.976 56.7083 511.688C57.2043 511.4 57.5963 510.992 57.8843 510.464C58.1723 509.92 58.3163 509.28 58.3163 508.544C58.3163 507.792 58.1723 507.152 57.8843 506.624C57.5963 506.096 57.2043 505.688 56.7083 505.4C56.2123 505.112 55.6523 504.968 55.0283 504.968C54.4043 504.968 53.8443 505.112 53.3483 505.4C52.8523 505.688 52.4523 506.096 52.1483 506.624C51.8603 507.152 51.7163 507.792 51.7163 508.544C51.7163 509.28 51.8603 509.92 52.1483 510.464C52.4523 510.992 52.8523 511.4 53.3483 511.688C53.8443 511.976 54.4043 512.12 55.0283 512.12ZM72.4588 501.896C73.4828 501.896 74.3948 502.104 75.1948 502.52C76.0108 502.92 76.6508 503.544 77.1148 504.392C77.5788 505.224 77.8108 506.296 77.8108 507.608V515H74.0668V508.184C74.0668 507.144 73.8348 506.376 73.3708 505.88C72.9228 505.384 72.2828 505.136 71.4508 505.136C70.8588 505.136 70.3228 505.264 69.8428 505.52C69.3788 505.76 69.0108 506.136 68.7388 506.648C68.4828 507.16 68.3548 507.816 68.3548 508.616V515H64.6108V502.088H68.1868V505.664L67.5148 504.584C67.9788 503.72 68.6428 503.056 69.5068 502.592C70.3708 502.128 71.3548 501.896 72.4588 501.896ZM86.4846 515.192C84.9646 515.192 83.7806 514.808 82.9326 514.04C82.0846 513.256 81.6606 512.096 81.6606 510.56V499.232H85.4046V510.512C85.4046 511.056 85.5486 511.48 85.8366 511.784C86.1246 512.072 86.5166 512.216 87.0126 512.216C87.6046 512.216 88.1086 512.056 88.5246 511.736L89.5326 514.376C89.1486 514.648 88.6846 514.856 88.1406 515C87.6126 515.128 87.0606 515.192 86.4846 515.192ZM79.6686 505.256V502.376H88.6206V505.256H79.6686ZM91.6343 515V502.088H95.2103V505.736L94.7063 504.68C95.0903 503.768 95.7063 503.08 96.5543 502.616C97.4023 502.136 98.4343 501.896 99.6503 501.896V505.352C99.4903 505.336 99.3463 505.328 99.2183 505.328C99.0903 505.312 98.9543 505.304 98.8103 505.304C97.7863 505.304 96.9543 505.6 96.3143 506.192C95.6903 506.768 95.3783 507.672 95.3783 508.904V515H91.6343ZM107.903 515.192C106.527 515.192 105.303 514.904 104.231 514.328C103.175 513.752 102.335 512.968 101.711 511.976C101.103 510.968 100.799 509.824 100.799 508.544C100.799 507.248 101.103 506.104 101.711 505.112C102.335 504.104 103.175 503.32 104.231 502.76C105.303 502.184 106.527 501.896 107.903 501.896C109.263 501.896 110.479 502.184 111.551 502.76C112.623 503.32 113.463 504.096 114.071 505.088C114.679 506.08 114.983 507.232 114.983 508.544C114.983 509.824 114.679 510.968 114.071 511.976C113.463 512.968 112.623 513.752 111.551 514.328C110.479 514.904 109.263 515.192 107.903 515.192ZM107.903 512.12C108.527 512.12 109.087 511.976 109.583 511.688C110.079 511.4 110.471 510.992 110.759 510.464C111.047 509.92 111.191 509.28 111.191 508.544C111.191 507.792 111.047 507.152 110.759 506.624C110.471 506.096 110.079 505.688 109.583 505.4C109.087 505.112 108.527 504.968 107.903 504.968C107.279 504.968 106.719 505.112 106.223 505.4C105.727 505.688 105.327 506.096 105.023 506.624C104.735 507.152 104.591 507.792 104.591 508.544C104.591 509.28 104.735 509.92 105.023 510.464C105.327 510.992 105.727 511.4 106.223 511.688C106.719 511.976 107.279 512.12 107.903 512.12ZM117.486 515V497.192H121.23V515H117.486ZM137.909 515.192C136.437 515.192 135.141 514.904 134.021 514.328C132.917 513.752 132.061 512.968 131.453 511.976C130.845 510.968 130.541 509.824 130.541 508.544C130.541 507.248 130.837 506.104 131.429 505.112C132.037 504.104 132.861 503.32 133.901 502.76C134.941 502.184 136.117 501.896 137.429 501.896C138.693 501.896 139.829 502.168 140.837 502.712C141.861 503.24 142.669 504.008 143.261 505.016C143.853 506.008 144.149 507.2 144.149 508.592C144.149 508.736 144.141 508.904 144.125 509.096C144.109 509.272 144.093 509.44 144.077 509.6H133.589V507.416H142.109L140.669 508.064C140.669 507.392 140.533 506.808 140.261 506.312C139.989 505.816 139.613 505.432 139.133 505.16C138.653 504.872 138.093 504.728 137.453 504.728C136.813 504.728 136.245 504.872 135.749 505.16C135.269 505.432 134.893 505.824 134.621 506.336C134.349 506.832 134.213 507.424 134.213 508.112V508.688C134.213 509.392 134.365 510.016 134.669 510.56C134.989 511.088 135.429 511.496 135.989 511.784C136.565 512.056 137.237 512.192 138.005 512.192C138.693 512.192 139.293 512.088 139.805 511.88C140.333 511.672 140.813 511.36 141.245 510.944L143.237 513.104C142.645 513.776 141.901 514.296 141.005 514.664C140.109 515.016 139.077 515.192 137.909 515.192ZM144.659 515L150.443 507.416L150.371 509.48L144.827 502.088H149.027L152.531 506.912L150.947 506.96L154.571 502.088H158.555L152.987 509.408V507.392L158.747 515H154.499L150.827 509.864L152.387 510.08L148.739 515H144.659ZM168.196 515.192C167.108 515.192 166.156 514.952 165.34 514.472C164.524 513.992 163.884 513.264 163.42 512.288C162.972 511.296 162.748 510.048 162.748 508.544C162.748 507.024 162.964 505.776 163.396 504.8C163.828 503.824 164.452 503.096 165.268 502.616C166.084 502.136 167.06 501.896 168.196 501.896C169.412 501.896 170.5 502.176 171.46 502.736C172.436 503.28 173.204 504.048 173.764 505.04C174.34 506.032 174.628 507.2 174.628 508.544C174.628 509.904 174.34 511.08 173.764 512.072C173.204 513.064 172.436 513.832 171.46 514.376C170.5 514.92 169.412 515.192 168.196 515.192ZM160.564 519.656V502.088H164.14V504.728L164.068 508.568L164.308 512.384V519.656H160.564ZM167.548 512.12C168.172 512.12 168.724 511.976 169.204 511.688C169.7 511.4 170.092 510.992 170.38 510.464C170.684 509.92 170.836 509.28 170.836 508.544C170.836 507.792 170.684 507.152 170.38 506.624C170.092 506.096 169.7 505.688 169.204 505.4C168.724 505.112 168.172 504.968 167.548 504.968C166.924 504.968 166.364 505.112 165.868 505.4C165.372 505.688 164.98 506.096 164.692 506.624C164.404 507.152 164.26 507.792 164.26 508.544C164.26 509.28 164.404 509.92 164.692 510.464C164.98 510.992 165.372 511.4 165.868 511.688C166.364 511.976 166.924 512.12 167.548 512.12ZM183.542 515.192C182.07 515.192 180.774 514.904 179.654 514.328C178.55 513.752 177.694 512.968 177.086 511.976C176.478 510.968 176.174 509.824 176.174 508.544C176.174 507.248 176.47 506.104 177.062 505.112C177.67 504.104 178.494 503.32 179.534 502.76C180.574 502.184 181.75 501.896 183.062 501.896C184.326 501.896 185.462 502.168 186.47 502.712C187.494 503.24 188.302 504.008 188.894 505.016C189.486 506.008 189.782 507.2 189.782 508.592C189.782 508.736 189.774 508.904 189.758 509.096C189.742 509.272 189.726 509.44 189.71 509.6H179.222V507.416H187.742L186.302 508.064C186.302 507.392 186.166 506.808 185.894 506.312C185.622 505.816 185.246 505.432 184.766 505.16C184.286 504.872 183.726 504.728 183.086 504.728C182.446 504.728 181.878 504.872 181.382 505.16C180.902 505.432 180.526 505.824 180.254 506.336C179.982 506.832 179.846 507.424 179.846 508.112V508.688C179.846 509.392 179.998 510.016 180.302 510.56C180.622 511.088 181.062 511.496 181.622 511.784C182.198 512.056 182.87 512.192 183.638 512.192C184.326 512.192 184.926 512.088 185.438 511.88C185.966 511.672 186.446 511.36 186.878 510.944L188.87 513.104C188.278 513.776 187.534 514.296 186.638 514.664C185.742 515.016 184.71 515.192 183.542 515.192ZM200.123 501.896C201.147 501.896 202.059 502.104 202.859 502.52C203.675 502.92 204.315 503.544 204.779 504.392C205.243 505.224 205.475 506.296 205.475 507.608V515H201.731V508.184C201.731 507.144 201.499 506.376 201.035 505.88C200.587 505.384 199.947 505.136 199.115 505.136C198.523 505.136 197.987 505.264 197.507 505.52C197.043 505.76 196.675 506.136 196.403 506.648C196.147 507.16 196.019 507.816 196.019 508.616V515H192.275V502.088H195.851V505.664L195.179 504.584C195.643 503.72 196.307 503.056 197.171 502.592C198.035 502.128 199.019 501.896 200.123 501.896ZM213.213 515.192C212.109 515.192 211.045 515.064 210.021 514.808C209.013 514.536 208.213 514.2 207.621 513.8L208.869 511.112C209.461 511.48 210.157 511.784 210.957 512.024C211.773 512.248 212.573 512.36 213.357 512.36C214.221 512.36 214.829 512.256 215.181 512.048C215.549 511.84 215.733 511.552 215.733 511.184C215.733 510.88 215.589 510.656 215.301 510.512C215.029 510.352 214.661 510.232 214.197 510.152C213.733 510.072 213.221 509.992 212.661 509.912C212.117 509.832 211.565 509.728 211.005 509.6C210.445 509.456 209.933 509.248 209.469 508.976C209.005 508.704 208.629 508.336 208.341 507.872C208.069 507.408 207.933 506.808 207.933 506.072C207.933 505.256 208.165 504.536 208.629 503.912C209.109 503.288 209.797 502.8 210.693 502.448C211.589 502.08 212.661 501.896 213.909 501.896C214.789 501.896 215.685 501.992 216.597 502.184C217.509 502.376 218.269 502.656 218.877 503.024L217.629 505.688C217.005 505.32 216.373 505.072 215.733 504.944C215.109 504.8 214.501 504.728 213.909 504.728C213.077 504.728 212.469 504.84 212.085 505.064C211.701 505.288 211.509 505.576 211.509 505.928C211.509 506.248 211.645 506.488 211.917 506.648C212.205 506.808 212.581 506.936 213.045 507.032C213.509 507.128 214.013 507.216 214.557 507.296C215.117 507.36 215.677 507.464 216.237 507.608C216.797 507.752 217.301 507.96 217.749 508.232C218.213 508.488 218.589 508.848 218.877 509.312C219.165 509.76 219.309 510.352 219.309 511.088C219.309 511.888 219.069 512.6 218.589 513.224C218.109 513.832 217.413 514.312 216.501 514.664C215.605 515.016 214.509 515.192 213.213 515.192ZM228.027 515.192C226.555 515.192 225.259 514.904 224.139 514.328C223.035 513.752 222.179 512.968 221.571 511.976C220.963 510.968 220.659 509.824 220.659 508.544C220.659 507.248 220.955 506.104 221.547 505.112C222.155 504.104 222.979 503.32 224.019 502.76C225.059 502.184 226.235 501.896 227.547 501.896C228.811 501.896 229.947 502.168 230.955 502.712C231.979 503.24 232.787 504.008 233.379 505.016C233.971 506.008 234.267 507.2 234.267 508.592C234.267 508.736 234.259 508.904 234.243 509.096C234.227 509.272 234.211 509.44 234.195 509.6H223.707V507.416H232.227L230.787 508.064C230.787 507.392 230.651 506.808 230.379 506.312C230.107 505.816 229.731 505.432 229.251 505.16C228.771 504.872 228.211 504.728 227.571 504.728C226.931 504.728 226.363 504.872 225.867 505.16C225.387 505.432 225.011 505.824 224.739 506.336C224.467 506.832 224.331 507.424 224.331 508.112V508.688C224.331 509.392 224.483 510.016 224.787 510.56C225.107 511.088 225.547 511.496 226.107 511.784C226.683 512.056 227.355 512.192 228.123 512.192C228.811 512.192 229.411 512.088 229.923 511.88C230.451 511.672 230.931 511.36 231.363 510.944L233.355 513.104C232.763 513.776 232.019 514.296 231.123 514.664C230.227 515.016 229.195 515.192 228.027 515.192ZM241.103 515.192C239.999 515.192 238.935 515.064 237.911 514.808C236.903 514.536 236.103 514.2 235.511 513.8L236.759 511.112C237.351 511.48 238.047 511.784 238.847 512.024C239.663 512.248 240.463 512.36 241.247 512.36C242.111 512.36 242.719 512.256 243.071 512.048C243.439 511.84 243.623 511.552 243.623 511.184C243.623 510.88 243.479 510.656 243.191 510.512C242.919 510.352 242.551 510.232 242.087 510.152C241.623 510.072 241.111 509.992 240.551 509.912C240.007 509.832 239.455 509.728 238.895 509.6C238.335 509.456 237.823 509.248 237.359 508.976C236.895 508.704 236.519 508.336 236.231 507.872C235.959 507.408 235.823 506.808 235.823 506.072C235.823 505.256 236.055 504.536 236.519 503.912C236.999 503.288 237.687 502.8 238.583 502.448C239.479 502.08 240.551 501.896 241.799 501.896C242.679 501.896 243.575 501.992 244.487 502.184C245.399 502.376 246.159 502.656 246.767 503.024L245.519 505.688C244.895 505.32 244.263 505.072 243.623 504.944C242.999 504.8 242.391 504.728 241.799 504.728C240.967 504.728 240.359 504.84 239.975 505.064C239.591 505.288 239.399 505.576 239.399 505.928C239.399 506.248 239.535 506.488 239.807 506.648C240.095 506.808 240.471 506.936 240.935 507.032C241.399 507.128 241.903 507.216 242.447 507.296C243.007 507.36 243.567 507.464 244.127 507.608C244.687 507.752 245.191 507.96 245.639 508.232C246.103 508.488 246.479 508.848 246.767 509.312C247.055 509.76 247.199 510.352 247.199 511.088C247.199 511.888 246.959 512.6 246.479 513.224C245.999 513.832 245.303 514.312 244.391 514.664C243.495 515.016 242.399 515.192 241.103 515.192ZM263.938 515.192C262.802 515.192 261.826 514.952 261.01 514.472C260.194 513.992 259.57 513.264 259.138 512.288C258.706 511.296 258.49 510.048 258.49 508.544C258.49 507.024 258.714 505.776 259.162 504.8C259.626 503.824 260.266 503.096 261.082 502.616C261.898 502.136 262.85 501.896 263.938 501.896C265.154 501.896 266.242 502.168 267.202 502.712C268.178 503.256 268.946 504.024 269.506 505.016C270.082 506.008 270.37 507.184 270.37 508.544C270.37 509.888 270.082 511.056 269.506 512.048C268.946 513.04 268.178 513.816 267.202 514.376C266.242 514.92 265.154 515.192 263.938 515.192ZM256.306 515V497.192H260.05V504.704L259.81 508.52L259.882 512.36V515H256.306ZM263.29 512.12C263.914 512.12 264.466 511.976 264.946 511.688C265.442 511.4 265.834 510.992 266.122 510.464C266.426 509.92 266.578 509.28 266.578 508.544C266.578 507.792 266.426 507.152 266.122 506.624C265.834 506.096 265.442 505.688 264.946 505.4C264.466 505.112 263.914 504.968 263.29 504.968C262.666 504.968 262.106 505.112 261.61 505.4C261.114 505.688 260.722 506.096 260.434 506.624C260.146 507.152 260.002 507.792 260.002 508.544C260.002 509.28 260.146 509.92 260.434 510.464C260.722 510.992 261.114 511.4 261.61 511.688C262.106 511.976 262.666 512.12 263.29 512.12ZM274.157 519.848C273.485 519.848 272.821 519.744 272.165 519.536C271.509 519.328 270.973 519.04 270.557 518.672L271.925 516.008C272.213 516.264 272.541 516.464 272.909 516.608C273.293 516.752 273.669 516.824 274.037 516.824C274.565 516.824 274.981 516.696 275.285 516.44C275.605 516.2 275.893 515.792 276.149 515.216L276.821 513.632L277.109 513.224L281.741 502.088H285.341L279.509 515.792C279.093 516.832 278.613 517.648 278.069 518.24C277.541 518.832 276.949 519.248 276.293 519.488C275.653 519.728 274.941 519.848 274.157 519.848ZM276.365 515.504L270.605 502.088H274.469L278.933 512.888L276.365 515.504ZM37.968 551.192C36.576 551.192 35.336 550.912 34.248 550.352C33.16 549.776 32.304 548.984 31.68 547.976C31.072 546.968 30.768 545.824 30.768 544.544C30.768 543.248 31.072 542.104 31.68 541.112C32.304 540.104 33.16 539.32 34.248 538.76C35.336 538.184 36.576 537.896 37.968 537.896C39.328 537.896 40.512 538.184 41.52 538.76C42.528 539.32 43.272 540.128 43.752 541.184L40.848 542.744C40.512 542.136 40.088 541.688 39.576 541.4C39.08 541.112 38.536 540.968 37.944 540.968C37.304 540.968 36.728 541.112 36.216 541.4C35.704 541.688 35.296 542.096 34.992 542.624C34.704 543.152 34.56 543.792 34.56 544.544C34.56 545.296 34.704 545.936 34.992 546.464C35.296 546.992 35.704 547.4 36.216 547.688C36.728 547.976 37.304 548.12 37.944 548.12C38.536 548.12 39.08 547.984 39.576 547.712C40.088 547.424 40.512 546.968 40.848 546.344L43.752 547.928C43.272 548.968 42.528 549.776 41.52 550.352C40.512 550.912 39.328 551.192 37.968 551.192ZM53.8277 551V548.48L53.5877 547.928V543.416C53.5877 542.616 53.3397 541.992 52.8437 541.544C52.3637 541.096 51.6197 540.872 50.6117 540.872C49.9237 540.872 49.2437 540.984 48.5717 541.208C47.9157 541.416 47.3557 541.704 46.8917 542.072L45.5477 539.456C46.2517 538.96 47.0997 538.576 48.0917 538.304C49.0837 538.032 50.0917 537.896 51.1157 537.896C53.0837 537.896 54.6117 538.36 55.6997 539.288C56.7877 540.216 57.3317 541.664 57.3317 543.632V551H53.8277ZM49.8917 551.192C48.8837 551.192 48.0197 551.024 47.2997 550.688C46.5797 550.336 46.0277 549.864 45.6437 549.272C45.2597 548.68 45.0677 548.016 45.0677 547.28C45.0677 546.512 45.2517 545.84 45.6197 545.264C46.0037 544.688 46.6037 544.24 47.4197 543.92C48.2357 543.584 49.2997 543.416 50.6117 543.416H54.0437V545.6H51.0197C50.1397 545.6 49.5317 545.744 49.1957 546.032C48.8757 546.32 48.7157 546.68 48.7157 547.112C48.7157 547.592 48.8997 547.976 49.2677 548.264C49.6517 548.536 50.1717 548.672 50.8277 548.672C51.4517 548.672 52.0117 548.528 52.5077 548.24C53.0037 547.936 53.3637 547.496 53.5877 546.92L54.1637 548.648C53.8917 549.48 53.3957 550.112 52.6757 550.544C51.9557 550.976 51.0277 551.192 49.8917 551.192ZM66.0002 551.192C64.4802 551.192 63.2962 550.808 62.4482 550.04C61.6002 549.256 61.1762 548.096 61.1762 546.56V535.232H64.9202V546.512C64.9202 547.056 65.0642 547.48 65.3522 547.784C65.6402 548.072 66.0322 548.216 66.5282 548.216C67.1202 548.216 67.6242 548.056 68.0402 547.736L69.0482 550.376C68.6642 550.648 68.2002 550.856 67.6562 551C67.1282 551.128 66.5762 551.192 66.0002 551.192ZM59.1842 541.256V538.376H68.1362V541.256H59.1842ZM77.1594 551.192C75.6874 551.192 74.3914 550.904 73.2714 550.328C72.1674 549.752 71.3114 548.968 70.7034 547.976C70.0954 546.968 69.7914 545.824 69.7914 544.544C69.7914 543.248 70.0874 542.104 70.6794 541.112C71.2874 540.104 72.1114 539.32 73.1514 538.76C74.1914 538.184 75.3674 537.896 76.6794 537.896C77.9434 537.896 79.0794 538.168 80.0874 538.712C81.1114 539.24 81.9194 540.008 82.5114 541.016C83.1034 542.008 83.3994 543.2 83.3994 544.592C83.3994 544.736 83.3914 544.904 83.3754 545.096C83.3594 545.272 83.3434 545.44 83.3274 545.6H72.8394V543.416H81.3594L79.9194 544.064C79.9194 543.392 79.7834 542.808 79.5114 542.312C79.2394 541.816 78.8634 541.432 78.3834 541.16C77.9034 540.872 77.3434 540.728 76.7034 540.728C76.0634 540.728 75.4954 540.872 74.9994 541.16C74.5194 541.432 74.1434 541.824 73.8714 542.336C73.5994 542.832 73.4634 543.424 73.4634 544.112V544.688C73.4634 545.392 73.6154 546.016 73.9194 546.56C74.2394 547.088 74.6794 547.496 75.2394 547.784C75.8154 548.056 76.4874 548.192 77.2554 548.192C77.9434 548.192 78.5434 548.088 79.0554 547.88C79.5834 547.672 80.0634 547.36 80.4954 546.944L82.4874 549.104C81.8954 549.776 81.1514 550.296 80.2554 550.664C79.3594 551.016 78.3274 551.192 77.1594 551.192ZM91.9641 555.848C90.7481 555.848 89.5721 555.696 88.4361 555.392C87.3161 555.104 86.3801 554.664 85.6281 554.072L87.1161 551.384C87.6601 551.832 88.3481 552.184 89.1801 552.44C90.0281 552.712 90.8601 552.848 91.6761 552.848C93.0041 552.848 93.9641 552.552 94.5561 551.96C95.1641 551.368 95.4681 550.488 95.4681 549.32V547.376L95.7081 544.136L95.6601 540.872V538.088H99.2121V548.84C99.2121 551.24 98.5881 553.008 97.3401 554.144C96.0921 555.28 94.3001 555.848 91.9641 555.848ZM91.3881 550.376C90.1881 550.376 89.1001 550.12 88.1241 549.608C87.1641 549.08 86.3881 548.352 85.7961 547.424C85.2201 546.48 84.9321 545.384 84.9321 544.136C84.9321 542.872 85.2201 541.776 85.7961 540.848C86.3881 539.904 87.1641 539.176 88.1241 538.664C89.1001 538.152 90.1881 537.896 91.3881 537.896C92.4761 537.896 93.4361 538.12 94.2681 538.568C95.1001 539 95.7481 539.68 96.2121 540.608C96.6761 541.52 96.9081 542.696 96.9081 544.136C96.9081 545.56 96.6761 546.736 96.2121 547.664C95.7481 548.576 95.1001 549.256 94.2681 549.704C93.4361 550.152 92.4761 550.376 91.3881 550.376ZM92.1321 547.304C92.7881 547.304 93.3721 547.176 93.8841 546.92C94.3961 546.648 94.7961 546.272 95.0841 545.792C95.3721 545.312 95.5161 544.76 95.5161 544.136C95.5161 543.496 95.3721 542.944 95.0841 542.48C94.7961 542 94.3961 541.632 93.8841 541.376C93.3721 541.104 92.7881 540.968 92.1321 540.968C91.4761 540.968 90.8921 541.104 90.3801 541.376C89.8681 541.632 89.4601 542 89.1561 542.48C88.8681 542.944 88.7241 543.496 88.7241 544.136C88.7241 544.76 88.8681 545.312 89.1561 545.792C89.4601 546.272 89.8681 546.648 90.3801 546.92C90.8921 547.176 91.4761 547.304 92.1321 547.304ZM108.841 551.192C107.465 551.192 106.241 550.904 105.169 550.328C104.113 549.752 103.273 548.968 102.649 547.976C102.041 546.968 101.737 545.824 101.737 544.544C101.737 543.248 102.041 542.104 102.649 541.112C103.273 540.104 104.113 539.32 105.169 538.76C106.241 538.184 107.465 537.896 108.841 537.896C110.201 537.896 111.417 538.184 112.489 538.76C113.561 539.32 114.401 540.096 115.009 541.088C115.617 542.08 115.921 543.232 115.921 544.544C115.921 545.824 115.617 546.968 115.009 547.976C114.401 548.968 113.561 549.752 112.489 550.328C111.417 550.904 110.201 551.192 108.841 551.192ZM108.841 548.12C109.465 548.12 110.025 547.976 110.521 547.688C111.017 547.4 111.409 546.992 111.697 546.464C111.985 545.92 112.129 545.28 112.129 544.544C112.129 543.792 111.985 543.152 111.697 542.624C111.409 542.096 111.017 541.688 110.521 541.4C110.025 541.112 109.465 540.968 108.841 540.968C108.217 540.968 107.657 541.112 107.161 541.4C106.665 541.688 106.265 542.096 105.961 542.624C105.673 543.152 105.529 543.792 105.529 544.544C105.529 545.28 105.673 545.92 105.961 546.464C106.265 546.992 106.665 547.4 107.161 547.688C107.657 547.976 108.217 548.12 108.841 548.12ZM118.423 551V538.088H121.999V541.736L121.495 540.68C121.879 539.768 122.495 539.08 123.343 538.616C124.191 538.136 125.223 537.896 126.439 537.896V541.352C126.279 541.336 126.135 541.328 126.007 541.328C125.879 541.312 125.743 541.304 125.599 541.304C124.575 541.304 123.743 541.6 123.103 542.192C122.479 542.768 122.167 543.672 122.167 544.904V551H118.423ZM130.743 555.848C130.071 555.848 129.407 555.744 128.751 555.536C128.095 555.328 127.559 555.04 127.143 554.672L128.511 552.008C128.799 552.264 129.127 552.464 129.495 552.608C129.879 552.752 130.255 552.824 130.623 552.824C131.151 552.824 131.567 552.696 131.871 552.44C132.191 552.2 132.479 551.792 132.735 551.216L133.407 549.632L133.695 549.224L138.327 538.088H141.927L136.095 551.792C135.679 552.832 135.199 553.648 134.655 554.24C134.127 554.832 133.535 555.248 132.879 555.488C132.239 555.728 131.527 555.848 130.743 555.848ZM132.951 551.504L127.191 538.088H131.055L135.519 548.888L132.951 551.504Z" fill="#20AAE5"/>
<path d="M39.7236 606.299C38.001 606.299 36.6357 605.704 35.6279 604.515C34.626 603.325 34.125 601.708 34.125 599.663C34.125 597.618 34.626 596.001 35.6279 594.812C36.6299 593.616 37.9922 593.019 39.7148 593.019C41.0508 593.019 42.1934 593.399 43.1426 594.161C44.0918 594.923 44.6602 595.916 44.8477 597.141H43.2393C43.0283 596.32 42.6064 595.673 41.9736 595.198C41.3408 594.718 40.5879 594.478 39.7148 594.478C38.4961 594.478 37.5293 594.943 36.8145 595.875C36.1055 596.807 35.751 598.069 35.751 599.663C35.751 601.257 36.1084 602.52 36.8232 603.451C37.5381 604.377 38.5049 604.84 39.7236 604.84C40.6084 604.84 41.3643 604.629 41.9912 604.207C42.624 603.779 43.04 603.199 43.2393 602.467H44.8477C44.6367 603.633 44.0654 604.564 43.1338 605.262C42.208 605.953 41.0713 606.299 39.7236 606.299ZM54.3926 604.857C53.6133 605.73 52.5498 606.167 51.2021 606.167C49.8545 606.167 48.7881 605.73 48.0029 604.857C47.2236 603.979 46.834 602.78 46.834 601.263C46.834 599.739 47.2236 598.541 48.0029 597.668C48.7822 596.795 49.8486 596.358 51.2021 596.358C52.5557 596.358 53.6221 596.795 54.4014 597.668C55.1807 598.541 55.5703 599.739 55.5703 601.263C55.5703 602.78 55.1777 603.979 54.3926 604.857ZM49.1279 603.882C49.6143 604.497 50.3057 604.805 51.2021 604.805C52.0986 604.805 52.79 604.497 53.2764 603.882C53.7627 603.261 54.0059 602.388 54.0059 601.263C54.0059 600.138 53.7627 599.268 53.2764 598.652C52.79 598.031 52.0986 597.721 51.2021 597.721C50.3057 597.721 49.6143 598.031 49.1279 598.652C48.6416 599.268 48.3984 600.138 48.3984 601.263C48.3984 602.388 48.6416 603.261 49.1279 603.882ZM57.9434 606V596.525H59.3848V598.02H59.5254C60.0293 596.912 60.9785 596.358 62.373 596.358C63.4336 596.358 64.251 596.663 64.8252 597.272C65.3994 597.876 65.6865 598.74 65.6865 599.865V606H64.1748V600.234C64.1748 599.385 63.9902 598.755 63.6211 598.345C63.2578 597.929 62.6982 597.721 61.9424 597.721C61.1807 597.721 60.5742 597.961 60.123 598.441C59.6777 598.916 59.4551 599.566 59.4551 600.393V606H57.9434ZM69.0879 594.073H70.5996V596.525H72.709V597.791H70.5996V603.152C70.5996 603.709 70.7109 604.113 70.9336 604.365C71.1562 604.617 71.5137 604.743 72.0059 604.743C72.2227 604.743 72.457 604.731 72.709 604.708V605.982C72.375 606.041 72.0791 606.07 71.8213 606.07C70.8428 606.07 70.1426 605.874 69.7207 605.481C69.2988 605.089 69.0879 604.441 69.0879 603.539V597.791H67.5586V596.525H69.0879V594.073ZM74.9941 606V596.525H76.4355V597.932H76.5762C76.7168 597.469 77.0332 597.091 77.5254 596.798C78.0176 596.505 78.5771 596.358 79.2041 596.358C79.4912 596.358 79.7432 596.373 79.96 596.402V597.914C79.7549 597.855 79.4326 597.826 78.9932 597.826C78.2725 597.826 77.6777 598.043 77.209 598.477C76.7402 598.91 76.5059 599.461 76.5059 600.129V606H74.9941ZM88.6699 604.857C87.8906 605.73 86.8271 606.167 85.4795 606.167C84.1318 606.167 83.0654 605.73 82.2803 604.857C81.501 603.979 81.1113 602.78 81.1113 601.263C81.1113 599.739 81.501 598.541 82.2803 597.668C83.0596 596.795 84.126 596.358 85.4795 596.358C86.833 596.358 87.8994 596.795 88.6787 597.668C89.458 598.541 89.8477 599.739 89.8477 601.263C89.8477 602.78 89.4551 603.979 88.6699 604.857ZM83.4053 603.882C83.8916 604.497 84.583 604.805 85.4795 604.805C86.376 604.805 87.0674 604.497 87.5537 603.882C88.04 603.261 88.2832 602.388 88.2832 601.263C88.2832 600.138 88.04 599.268 87.5537 598.652C87.0674 598.031 86.376 597.721 85.4795 597.721C84.583 597.721 83.8916 598.031 83.4053 598.652C82.9189 599.268 82.6758 600.138 82.6758 601.263C82.6758 602.388 82.9189 603.261 83.4053 603.882ZM92.3086 606V592.764H93.8203V606H92.3086ZM105.615 597.694C104.859 597.694 104.238 597.949 103.752 598.459C103.266 598.969 102.993 599.643 102.935 600.48H108.155C108.138 599.643 107.897 598.969 107.435 598.459C106.972 597.949 106.365 597.694 105.615 597.694ZM108.111 603.548H109.623C109.395 604.368 108.929 605.01 108.226 605.473C107.528 605.936 106.664 606.167 105.633 606.167C104.32 606.167 103.28 605.728 102.513 604.849C101.745 603.964 101.361 602.771 101.361 601.271C101.361 599.777 101.748 598.585 102.521 597.694C103.295 596.804 104.332 596.358 105.633 596.358C106.91 596.358 107.915 596.783 108.647 597.633C109.38 598.482 109.746 599.646 109.746 601.122V601.702H102.935V601.772C102.976 602.71 103.239 603.454 103.726 604.005C104.218 604.556 104.865 604.831 105.668 604.831C106.893 604.831 107.707 604.403 108.111 603.548ZM115.037 604.84C115.816 604.84 116.461 604.614 116.971 604.163C117.486 603.712 117.744 603.146 117.744 602.467V601.597L115.195 601.764C114.48 601.811 113.956 601.96 113.622 602.212C113.288 602.464 113.121 602.83 113.121 603.311C113.121 603.785 113.3 604.16 113.657 604.436C114.015 604.705 114.475 604.84 115.037 604.84ZM114.756 606.167C113.824 606.167 113.057 605.912 112.453 605.402C111.855 604.887 111.557 604.201 111.557 603.346C111.557 602.502 111.855 601.84 112.453 601.359C113.051 600.879 113.903 600.606 115.011 600.542L117.744 600.375V599.514C117.744 598.928 117.562 598.479 117.199 598.169C116.836 597.858 116.303 597.703 115.6 597.703C115.031 597.703 114.56 597.806 114.185 598.011C113.81 598.216 113.569 598.506 113.464 598.881H111.935C112.034 598.125 112.424 597.516 113.104 597.053C113.789 596.59 114.639 596.358 115.652 596.358C116.801 596.358 117.688 596.637 118.315 597.193C118.942 597.75 119.256 598.523 119.256 599.514V606H117.814V604.603H117.674C117.369 605.106 116.965 605.493 116.461 605.763C115.957 606.032 115.389 606.167 114.756 606.167ZM129.891 599.426H128.361C128.232 598.928 127.954 598.521 127.526 598.204C127.104 597.882 126.568 597.721 125.918 597.721C125.068 597.721 124.392 598.037 123.888 598.67C123.39 599.303 123.141 600.155 123.141 601.228C123.141 602.317 123.393 603.188 123.896 603.838C124.4 604.482 125.074 604.805 125.918 604.805C126.557 604.805 127.087 604.661 127.509 604.374C127.937 604.087 128.221 603.677 128.361 603.144H129.891C129.75 604.04 129.331 604.77 128.634 605.332C127.937 605.889 127.034 606.167 125.927 606.167C124.597 606.167 123.539 605.722 122.754 604.831C121.969 603.935 121.576 602.733 121.576 601.228C121.576 599.751 121.969 598.57 122.754 597.686C123.539 596.801 124.594 596.358 125.918 596.358C127.025 596.358 127.928 596.648 128.625 597.229C129.328 597.809 129.75 598.541 129.891 599.426ZM132.211 606V592.764H133.723V598.02H133.863C134.104 597.486 134.47 597.076 134.962 596.789C135.46 596.502 136.066 596.358 136.781 596.358C137.789 596.358 138.586 596.669 139.172 597.29C139.758 597.905 140.051 598.764 140.051 599.865V606H138.539V600.234C138.539 598.559 137.81 597.721 136.351 597.721C135.519 597.721 134.871 597.964 134.408 598.45C133.951 598.931 133.723 599.578 133.723 600.393V606H132.211ZM155.73 599.426H154.201C154.072 598.928 153.794 598.521 153.366 598.204C152.944 597.882 152.408 597.721 151.758 597.721C150.908 597.721 150.231 598.037 149.728 598.67C149.229 599.303 148.98 600.155 148.98 601.228C148.98 602.317 149.232 603.188 149.736 603.838C150.24 604.482 150.914 604.805 151.758 604.805C152.396 604.805 152.927 604.661 153.349 604.374C153.776 604.087 154.061 603.677 154.201 603.144H155.73C155.59 604.04 155.171 604.77 154.474 605.332C153.776 605.889 152.874 606.167 151.767 606.167C150.437 606.167 149.379 605.722 148.594 604.831C147.809 603.935 147.416 602.733 147.416 601.228C147.416 599.751 147.809 598.57 148.594 597.686C149.379 596.801 150.434 596.358 151.758 596.358C152.865 596.358 153.768 596.648 154.465 597.229C155.168 597.809 155.59 598.541 155.73 599.426ZM160.881 604.84C161.66 604.84 162.305 604.614 162.814 604.163C163.33 603.712 163.588 603.146 163.588 602.467V601.597L161.039 601.764C160.324 601.811 159.8 601.96 159.466 602.212C159.132 602.464 158.965 602.83 158.965 603.311C158.965 603.785 159.144 604.16 159.501 604.436C159.858 604.705 160.318 604.84 160.881 604.84ZM160.6 606.167C159.668 606.167 158.9 605.912 158.297 605.402C157.699 604.887 157.4 604.201 157.4 603.346C157.4 602.502 157.699 601.84 158.297 601.359C158.895 600.879 159.747 600.606 160.854 600.542L163.588 600.375V599.514C163.588 598.928 163.406 598.479 163.043 598.169C162.68 597.858 162.146 597.703 161.443 597.703C160.875 597.703 160.403 597.806 160.028 598.011C159.653 598.216 159.413 598.506 159.308 598.881H157.778C157.878 598.125 158.268 597.516 158.947 597.053C159.633 596.59 160.482 596.358 161.496 596.358C162.645 596.358 163.532 596.637 164.159 597.193C164.786 597.75 165.1 598.523 165.1 599.514V606H163.658V604.603H163.518C163.213 605.106 162.809 605.493 162.305 605.763C161.801 606.032 161.232 606.167 160.6 606.167ZM168.527 594.073H170.039V596.525H172.148V597.791H170.039V603.152C170.039 603.709 170.15 604.113 170.373 604.365C170.596 604.617 170.953 604.743 171.445 604.743C171.662 604.743 171.896 604.731 172.148 604.708V605.982C171.814 606.041 171.519 606.07 171.261 606.07C170.282 606.07 169.582 605.874 169.16 605.481C168.738 605.089 168.527 604.441 168.527 603.539V597.791H166.998V596.525H168.527V594.073ZM178.072 597.694C177.316 597.694 176.695 597.949 176.209 598.459C175.723 598.969 175.45 599.643 175.392 600.48H180.612C180.595 599.643 180.354 598.969 179.892 598.459C179.429 597.949 178.822 597.694 178.072 597.694ZM180.568 603.548H182.08C181.852 604.368 181.386 605.01 180.683 605.473C179.985 605.936 179.121 606.167 178.09 606.167C176.777 606.167 175.737 605.728 174.97 604.849C174.202 603.964 173.818 602.771 173.818 601.271C173.818 599.777 174.205 598.585 174.979 597.694C175.752 596.804 176.789 596.358 178.09 596.358C179.367 596.358 180.372 596.783 181.104 597.633C181.837 598.482 182.203 599.646 182.203 601.122V601.702H175.392V601.772C175.433 602.71 175.696 603.454 176.183 604.005C176.675 604.556 177.322 604.831 178.125 604.831C179.35 604.831 180.164 604.403 180.568 603.548ZM188.408 604.523C189.281 604.523 189.967 604.219 190.465 603.609C190.969 602.994 191.221 602.165 191.221 601.122C191.221 600.085 190.969 599.259 190.465 598.644C189.961 598.028 189.275 597.721 188.408 597.721C187.541 597.721 186.867 598.025 186.387 598.635C185.906 599.244 185.666 600.073 185.666 601.122C185.666 602.171 185.906 603 186.387 603.609C186.867 604.219 187.541 604.523 188.408 604.523ZM188.479 609.639C187.348 609.639 186.431 609.404 185.728 608.936C185.03 608.467 184.623 607.837 184.506 607.046H186.105C186.188 607.438 186.437 607.749 186.853 607.978C187.269 608.206 187.811 608.32 188.479 608.32C189.328 608.32 189.99 608.121 190.465 607.723C190.945 607.33 191.186 606.785 191.186 606.088V604.225H191.045C190.746 604.746 190.339 605.15 189.823 605.438C189.308 605.719 188.725 605.859 188.074 605.859C186.855 605.859 185.889 605.429 185.174 604.567C184.459 603.7 184.102 602.552 184.102 601.122C184.102 599.692 184.462 598.541 185.183 597.668C185.903 596.795 186.867 596.358 188.074 596.358C188.736 596.358 189.34 596.511 189.885 596.815C190.43 597.114 190.84 597.519 191.115 598.028H191.256V596.525H192.697V606.167C192.697 607.228 192.316 608.071 191.555 608.698C190.793 609.325 189.768 609.639 188.479 609.639ZM202.629 604.857C201.85 605.73 200.786 606.167 199.438 606.167C198.091 606.167 197.024 605.73 196.239 604.857C195.46 603.979 195.07 602.78 195.07 601.263C195.07 599.739 195.46 598.541 196.239 597.668C197.019 596.795 198.085 596.358 199.438 596.358C200.792 596.358 201.858 596.795 202.638 597.668C203.417 598.541 203.807 599.739 203.807 601.263C203.807 602.78 203.414 603.979 202.629 604.857ZM197.364 603.882C197.851 604.497 198.542 604.805 199.438 604.805C200.335 604.805 201.026 604.497 201.513 603.882C201.999 603.261 202.242 602.388 202.242 601.263C202.242 600.138 201.999 599.268 201.513 598.652C201.026 598.031 200.335 597.721 199.438 597.721C198.542 597.721 197.851 598.031 197.364 598.652C196.878 599.268 196.635 600.138 196.635 601.263C196.635 602.388 196.878 603.261 197.364 603.882ZM206.18 606V596.525H207.621V597.932H207.762C207.902 597.469 208.219 597.091 208.711 596.798C209.203 596.505 209.763 596.358 210.39 596.358C210.677 596.358 210.929 596.373 211.146 596.402V597.914C210.94 597.855 210.618 597.826 210.179 597.826C209.458 597.826 208.863 598.043 208.395 598.477C207.926 598.91 207.691 599.461 207.691 600.129V606H206.18ZM213.844 609.428C213.604 609.428 213.378 609.41 213.167 609.375V608.083C213.319 608.112 213.53 608.127 213.8 608.127C214.239 608.127 214.588 608.01 214.846 607.775C215.109 607.541 215.341 607.14 215.54 606.571L215.716 606.009L212.209 596.525H213.844L216.445 604.321H216.586L219.179 596.525H220.787L217.087 606.58C216.683 607.676 216.252 608.423 215.795 608.821C215.338 609.226 214.688 609.428 213.844 609.428ZM230.807 604.84C231.586 604.84 232.23 604.614 232.74 604.163C233.256 603.712 233.514 603.146 233.514 602.467V601.597L230.965 601.764C230.25 601.811 229.726 601.96 229.392 602.212C229.058 602.464 228.891 602.83 228.891 603.311C228.891 603.785 229.069 604.16 229.427 604.436C229.784 604.705 230.244 604.84 230.807 604.84ZM230.525 606.167C229.594 606.167 228.826 605.912 228.223 605.402C227.625 604.887 227.326 604.201 227.326 603.346C227.326 602.502 227.625 601.84 228.223 601.359C228.82 600.879 229.673 600.606 230.78 600.542L233.514 600.375V599.514C233.514 598.928 233.332 598.479 232.969 598.169C232.605 597.858 232.072 597.703 231.369 597.703C230.801 597.703 230.329 597.806 229.954 598.011C229.579 598.216 229.339 598.506 229.233 598.881H227.704C227.804 598.125 228.193 597.516 228.873 597.053C229.559 596.59 230.408 596.358 231.422 596.358C232.57 596.358 233.458 596.637 234.085 597.193C234.712 597.75 235.025 598.523 235.025 599.514V606H233.584V604.603H233.443C233.139 605.106 232.734 605.493 232.23 605.763C231.727 606.032 231.158 606.167 230.525 606.167ZM237.82 606V596.525H239.262V598.02H239.402C239.906 596.912 240.855 596.358 242.25 596.358C243.311 596.358 244.128 596.663 244.702 597.272C245.276 597.876 245.563 598.74 245.563 599.865V606H244.052V600.234C244.052 599.385 243.867 598.755 243.498 598.345C243.135 597.929 242.575 597.721 241.819 597.721C241.058 597.721 240.451 597.961 240 598.441C239.555 598.916 239.332 599.566 239.332 600.393V606H237.82ZM251.839 606.167C250.626 606.167 249.659 605.722 248.938 604.831C248.218 603.94 247.857 602.751 247.857 601.263C247.857 599.78 248.218 598.594 248.938 597.703C249.665 596.807 250.632 596.358 251.839 596.358C252.501 596.358 253.093 596.508 253.614 596.807C254.142 597.1 254.54 597.504 254.81 598.02H254.941V592.764H256.453V606H255.012V604.488H254.871C254.572 605.016 254.156 605.429 253.623 605.728C253.09 606.021 252.495 606.167 251.839 606.167ZM252.19 597.721C251.329 597.721 250.652 598.037 250.16 598.67C249.668 599.297 249.422 600.161 249.422 601.263C249.422 602.37 249.665 603.237 250.151 603.864C250.644 604.491 251.323 604.805 252.19 604.805C253.052 604.805 253.731 604.488 254.229 603.855C254.728 603.223 254.977 602.358 254.977 601.263C254.977 600.179 254.725 599.317 254.221 598.679C253.723 598.04 253.046 597.721 252.19 597.721ZM34.4238 642V632.525H35.8652V634.02H36.0059C36.2227 633.492 36.5596 633.085 37.0166 632.798C37.4736 632.505 38.0186 632.358 38.6514 632.358C39.2725 632.358 39.8057 632.508 40.251 632.807C40.7021 633.105 41.042 633.51 41.2705 634.02H41.4111C41.6689 633.51 42.0557 633.105 42.5713 632.807C43.0869 632.508 43.667 632.358 44.3115 632.358C45.2783 632.358 46.0225 632.628 46.5439 633.167C47.0654 633.7 47.3262 634.462 47.3262 635.452V642H45.8145V635.804C45.8145 634.415 45.1494 633.721 43.8193 633.721C43.1748 633.721 42.6475 633.932 42.2373 634.354C41.8271 634.775 41.6221 635.294 41.6221 635.909V642H40.1104V635.566C40.1104 635.004 39.9287 634.556 39.5654 634.222C39.208 633.888 38.7305 633.721 38.1328 633.721C37.5176 633.721 36.9961 633.955 36.5684 634.424C36.1465 634.893 35.9355 635.461 35.9355 636.129V642H34.4238ZM53.0039 640.84C53.7832 640.84 54.4277 640.614 54.9375 640.163C55.4531 639.712 55.7109 639.146 55.7109 638.467V637.597L53.1621 637.764C52.4473 637.811 51.9229 637.96 51.5889 638.212C51.2549 638.464 51.0879 638.83 51.0879 639.311C51.0879 639.785 51.2666 640.16 51.624 640.436C51.9814 640.705 52.4414 640.84 53.0039 640.84ZM52.7227 642.167C51.791 642.167 51.0234 641.912 50.4199 641.402C49.8223 640.887 49.5234 640.201 49.5234 639.346C49.5234 638.502 49.8223 637.84 50.4199 637.359C51.0176 636.879 51.8701 636.606 52.9775 636.542L55.7109 636.375V635.514C55.7109 634.928 55.5293 634.479 55.166 634.169C54.8027 633.858 54.2695 633.703 53.5664 633.703C52.998 633.703 52.5264 633.806 52.1514 634.011C51.7764 634.216 51.5361 634.506 51.4307 634.881H49.9014C50.001 634.125 50.3906 633.516 51.0703 633.053C51.7559 632.59 52.6055 632.358 53.6191 632.358C54.7676 632.358 55.6553 632.637 56.2822 633.193C56.9092 633.75 57.2227 634.523 57.2227 635.514V642H55.7812V640.603H55.6406C55.3359 641.106 54.9316 641.493 54.4277 641.763C53.9238 642.032 53.3555 642.167 52.7227 642.167ZM60.0176 642V632.525H61.459V634.02H61.5996C62.1035 632.912 63.0527 632.358 64.4473 632.358C65.5078 632.358 66.3252 632.663 66.8994 633.272C67.4736 633.876 67.7607 634.74 67.7607 635.865V642H66.249V636.234C66.249 635.385 66.0645 634.755 65.6953 634.345C65.332 633.929 64.7725 633.721 64.0166 633.721C63.2549 633.721 62.6484 633.961 62.1973 634.441C61.752 634.916 61.5293 635.566 61.5293 636.393V642H60.0176ZM73.4473 640.84C74.2266 640.84 74.8711 640.614 75.3809 640.163C75.8965 639.712 76.1543 639.146 76.1543 638.467V637.597L73.6055 637.764C72.8906 637.811 72.3662 637.96 72.0322 638.212C71.6982 638.464 71.5312 638.83 71.5312 639.311C71.5312 639.785 71.71 640.16 72.0674 640.436C72.4248 640.705 72.8848 640.84 73.4473 640.84ZM73.166 642.167C72.2344 642.167 71.4668 641.912 70.8633 641.402C70.2656 640.887 69.9668 640.201 69.9668 639.346C69.9668 638.502 70.2656 637.84 70.8633 637.359C71.4609 636.879 72.3135 636.606 73.4209 636.542L76.1543 636.375V635.514C76.1543 634.928 75.9727 634.479 75.6094 634.169C75.2461 633.858 74.7129 633.703 74.0098 633.703C73.4414 633.703 72.9697 633.806 72.5947 634.011C72.2197 634.216 71.9795 634.506 71.874 634.881H70.3447C70.4443 634.125 70.834 633.516 71.5137 633.053C72.1992 632.59 73.0488 632.358 74.0625 632.358C75.2109 632.358 76.0986 632.637 76.7256 633.193C77.3525 633.75 77.666 634.523 77.666 635.514V642H76.2246V640.603H76.084C75.7793 641.106 75.375 641.493 74.8711 641.763C74.3672 642.032 73.7988 642.167 73.166 642.167ZM84.293 640.523C85.166 640.523 85.8516 640.219 86.3496 639.609C86.8535 638.994 87.1055 638.165 87.1055 637.122C87.1055 636.085 86.8535 635.259 86.3496 634.644C85.8457 634.028 85.1602 633.721 84.293 633.721C83.4258 633.721 82.752 634.025 82.2715 634.635C81.791 635.244 81.5508 636.073 81.5508 637.122C81.5508 638.171 81.791 639 82.2715 639.609C82.752 640.219 83.4258 640.523 84.293 640.523ZM84.3633 645.639C83.2324 645.639 82.3154 645.404 81.6123 644.936C80.915 644.467 80.5078 643.837 80.3906 643.046H81.9902C82.0723 643.438 82.3213 643.749 82.7373 643.978C83.1533 644.206 83.6953 644.32 84.3633 644.32C85.2129 644.32 85.875 644.121 86.3496 643.723C86.8301 643.33 87.0703 642.785 87.0703 642.088V640.225H86.9297C86.6309 640.746 86.2236 641.15 85.708 641.438C85.1924 641.719 84.6094 641.859 83.959 641.859C82.7402 641.859 81.7734 641.429 81.0586 640.567C80.3438 639.7 79.9863 638.552 79.9863 637.122C79.9863 635.692 80.3467 634.541 81.0674 633.668C81.7881 632.795 82.752 632.358 83.959 632.358C84.6211 632.358 85.2246 632.511 85.7695 632.815C86.3145 633.114 86.7246 633.519 87 634.028H87.1406V632.525H88.582V642.167C88.582 643.228 88.2012 644.071 87.4395 644.698C86.6777 645.325 85.6523 645.639 84.3633 645.639ZM95.209 633.694C94.4531 633.694 93.832 633.949 93.3457 634.459C92.8594 634.969 92.5869 635.643 92.5283 636.48H97.749C97.7314 635.643 97.4912 634.969 97.0283 634.459C96.5654 633.949 95.959 633.694 95.209 633.694ZM97.7051 639.548H99.2168C98.9883 640.368 98.5225 641.01 97.8193 641.473C97.1221 641.936 96.2578 642.167 95.2266 642.167C93.9141 642.167 92.874 641.728 92.1064 640.849C91.3389 639.964 90.9551 638.771 90.9551 637.271C90.9551 635.777 91.3418 634.585 92.1152 633.694C92.8887 632.804 93.9258 632.358 95.2266 632.358C96.5039 632.358 97.5088 632.783 98.2412 633.633C98.9736 634.482 99.3398 635.646 99.3398 637.122V637.702H92.5283V637.772C92.5693 638.71 92.833 639.454 93.3193 640.005C93.8115 640.556 94.459 640.831 95.2617 640.831C96.4863 640.831 97.3008 640.403 97.7051 639.548ZM107.602 645.428C107.361 645.428 107.136 645.41 106.925 645.375V644.083C107.077 644.112 107.288 644.127 107.558 644.127C107.997 644.127 108.346 644.01 108.604 643.775C108.867 643.541 109.099 643.14 109.298 642.571L109.474 642.009L105.967 632.525H107.602L110.203 640.321H110.344L112.937 632.525H114.545L110.845 642.58C110.44 643.676 110.01 644.423 109.553 644.821C109.096 645.226 108.445 645.428 107.602 645.428ZM123.299 640.857C122.52 641.73 121.456 642.167 120.108 642.167C118.761 642.167 117.694 641.73 116.909 640.857C116.13 639.979 115.74 638.78 115.74 637.263C115.74 635.739 116.13 634.541 116.909 633.668C117.688 632.795 118.755 632.358 120.108 632.358C121.462 632.358 122.528 632.795 123.308 633.668C124.087 634.541 124.477 635.739 124.477 637.263C124.477 638.78 124.084 639.979 123.299 640.857ZM118.034 639.882C118.521 640.497 119.212 640.805 120.108 640.805C121.005 640.805 121.696 640.497 122.183 639.882C122.669 639.261 122.912 638.388 122.912 637.263C122.912 636.138 122.669 635.268 122.183 634.652C121.696 634.031 121.005 633.721 120.108 633.721C119.212 633.721 118.521 634.031 118.034 634.652C117.548 635.268 117.305 636.138 117.305 637.263C117.305 638.388 117.548 639.261 118.034 639.882ZM134.514 632.525V642H133.072V640.515H132.932C132.691 641.048 132.322 641.458 131.824 641.745C131.326 642.026 130.717 642.167 129.996 642.167C128.941 642.167 128.139 641.865 127.588 641.262C127.037 640.658 126.762 639.791 126.762 638.66V632.525H128.273V638.291C128.273 639.152 128.443 639.785 128.783 640.189C129.123 640.588 129.668 640.787 130.418 640.787C131.244 640.787 131.88 640.556 132.325 640.093C132.776 639.624 133.002 638.971 133.002 638.133V632.525H134.514ZM137.361 642V632.525H138.803V633.932H138.943C139.084 633.469 139.4 633.091 139.893 632.798C140.385 632.505 140.944 632.358 141.571 632.358C141.858 632.358 142.11 632.373 142.327 632.402V633.914C142.122 633.855 141.8 633.826 141.36 633.826C140.64 633.826 140.045 634.043 139.576 634.477C139.107 634.91 138.873 635.461 138.873 636.129V642H137.361ZM149.93 642V633.791H148.356V632.525H149.93V631.471C149.93 629.607 150.847 628.676 152.681 628.676C153.062 628.676 153.401 628.705 153.7 628.764V629.994C153.548 629.965 153.311 629.95 152.988 629.95C152.449 629.95 152.057 630.079 151.811 630.337C151.564 630.595 151.441 630.987 151.441 631.515V632.525H153.612V633.791H151.441V642H149.93ZM155.854 642V632.525H157.365V642H155.854ZM157.356 630.293C157.151 630.498 156.902 630.601 156.609 630.601C156.316 630.601 156.067 630.498 155.862 630.293C155.657 630.082 155.555 629.833 155.555 629.546C155.555 629.259 155.657 629.013 155.862 628.808C156.067 628.597 156.316 628.491 156.609 628.491C156.902 628.491 157.151 628.597 157.356 628.808C157.562 629.013 157.664 629.259 157.664 629.546C157.664 629.833 157.562 630.082 157.356 630.293ZM160.248 642V632.525H161.689V634.02H161.83C162.334 632.912 163.283 632.358 164.678 632.358C165.738 632.358 166.556 632.663 167.13 633.272C167.704 633.876 167.991 634.74 167.991 635.865V642H166.479V636.234C166.479 635.385 166.295 634.755 165.926 634.345C165.562 633.929 165.003 633.721 164.247 633.721C163.485 633.721 162.879 633.961 162.428 634.441C161.982 634.916 161.76 635.566 161.76 636.393V642H160.248ZM173.678 640.84C174.457 640.84 175.102 640.614 175.611 640.163C176.127 639.712 176.385 639.146 176.385 638.467V637.597L173.836 637.764C173.121 637.811 172.597 637.96 172.263 638.212C171.929 638.464 171.762 638.83 171.762 639.311C171.762 639.785 171.94 640.16 172.298 640.436C172.655 640.705 173.115 640.84 173.678 640.84ZM173.396 642.167C172.465 642.167 171.697 641.912 171.094 641.402C170.496 640.887 170.197 640.201 170.197 639.346C170.197 638.502 170.496 637.84 171.094 637.359C171.691 636.879 172.544 636.606 173.651 636.542L176.385 636.375V635.514C176.385 634.928 176.203 634.479 175.84 634.169C175.477 633.858 174.943 633.703 174.24 633.703C173.672 633.703 173.2 633.806 172.825 634.011C172.45 634.216 172.21 634.506 172.104 634.881H170.575C170.675 634.125 171.064 633.516 171.744 633.053C172.43 632.59 173.279 632.358 174.293 632.358C175.441 632.358 176.329 632.637 176.956 633.193C177.583 633.75 177.896 634.523 177.896 635.514V642H176.455V640.603H176.314C176.01 641.106 175.605 641.493 175.102 641.763C174.598 642.032 174.029 642.167 173.396 642.167ZM180.691 642V632.525H182.133V634.02H182.273C182.777 632.912 183.727 632.358 185.121 632.358C186.182 632.358 186.999 632.663 187.573 633.272C188.147 633.876 188.435 634.74 188.435 635.865V642H186.923V636.234C186.923 635.385 186.738 634.755 186.369 634.345C186.006 633.929 185.446 633.721 184.69 633.721C183.929 633.721 183.322 633.961 182.871 634.441C182.426 634.916 182.203 635.566 182.203 636.393V642H180.691ZM199.043 635.426H197.514C197.385 634.928 197.106 634.521 196.679 634.204C196.257 633.882 195.721 633.721 195.07 633.721C194.221 633.721 193.544 634.037 193.04 634.67C192.542 635.303 192.293 636.155 192.293 637.228C192.293 638.317 192.545 639.188 193.049 639.838C193.553 640.482 194.227 640.805 195.07 640.805C195.709 640.805 196.239 640.661 196.661 640.374C197.089 640.087 197.373 639.677 197.514 639.144H199.043C198.902 640.04 198.483 640.77 197.786 641.332C197.089 641.889 196.187 642.167 195.079 642.167C193.749 642.167 192.691 641.722 191.906 640.831C191.121 639.935 190.729 638.733 190.729 637.228C190.729 635.751 191.121 634.57 191.906 633.686C192.691 632.801 193.746 632.358 195.07 632.358C196.178 632.358 197.08 632.648 197.777 633.229C198.48 633.809 198.902 634.541 199.043 635.426ZM205.055 633.694C204.299 633.694 203.678 633.949 203.191 634.459C202.705 634.969 202.433 635.643 202.374 636.48H207.595C207.577 635.643 207.337 634.969 206.874 634.459C206.411 633.949 205.805 633.694 205.055 633.694ZM207.551 639.548H209.062C208.834 640.368 208.368 641.01 207.665 641.473C206.968 641.936 206.104 642.167 205.072 642.167C203.76 642.167 202.72 641.728 201.952 640.849C201.185 639.964 200.801 638.771 200.801 637.271C200.801 635.777 201.188 634.585 201.961 633.694C202.734 632.804 203.771 632.358 205.072 632.358C206.35 632.358 207.354 632.783 208.087 633.633C208.819 634.482 209.186 635.646 209.186 637.122V637.702H202.374V637.772C202.415 638.71 202.679 639.454 203.165 640.005C203.657 640.556 204.305 640.831 205.107 640.831C206.332 640.831 207.146 640.403 207.551 639.548ZM211.339 635.118C211.339 634.333 211.676 633.677 212.35 633.149C213.023 632.622 213.864 632.358 214.872 632.358C215.862 632.358 216.68 632.587 217.324 633.044C217.969 633.501 218.341 634.119 218.44 634.898H216.946C216.841 634.512 216.606 634.207 216.243 633.984C215.886 633.756 215.426 633.642 214.863 633.642C214.295 633.642 213.817 633.773 213.431 634.037C213.05 634.301 212.859 634.641 212.859 635.057C212.859 635.379 212.991 635.648 213.255 635.865C213.524 636.076 213.94 636.249 214.503 636.384L215.962 636.735C216.864 636.952 217.529 637.266 217.957 637.676C218.391 638.086 218.607 638.628 218.607 639.302C218.607 640.14 218.247 640.828 217.526 641.367C216.806 641.9 215.9 642.167 214.811 642.167C213.756 642.167 212.892 641.933 212.218 641.464C211.544 640.995 211.166 640.368 211.084 639.583H212.64C212.769 639.993 213.023 640.315 213.404 640.55C213.785 640.778 214.271 640.893 214.863 640.893C215.502 640.893 216.026 640.755 216.437 640.479C216.847 640.204 217.052 639.85 217.052 639.416C217.052 638.771 216.551 638.326 215.549 638.08L213.923 637.685C213.026 637.468 212.37 637.157 211.954 636.753C211.544 636.343 211.339 635.798 211.339 635.118Z" fill="#20AAE5"/>
<rect x="48" y="754" width="22" height="5" rx="2.5" fill="#06234C"/>
<rect x="30" y="754" width="5" height="5" rx="2.5" fill="#468AA5"/>
<path d="M39 756.5C39 755.119 40.1193 754 41.5 754C42.8807 754 44 755.119 44 756.5C44 757.881 42.8807 759 41.5 759C40.1193 759 39 757.881 39 756.5Z" fill="#468AA5"/>
<path d="M99.8842 316.799C99.8842 316.799 212.133 223.131 276.782 316.799H99.8842Z" fill="#F2F2F2"/>
<path d="M284.08 372.916C312.793 372.916 336.069 369.289 336.069 364.815C336.069 360.341 312.793 356.714 284.08 356.714C255.367 356.714 232.091 360.341 232.091 364.815C232.091 369.289 255.367 372.916 284.08 372.916Z" fill="#F2F2F2"/>
<path d="M292.52 369.878C321.232 369.878 344.509 366.251 344.509 361.777C344.509 357.303 321.232 353.676 292.52 353.676C263.807 353.676 240.53 357.303 240.53 361.777C240.53 366.251 263.807 369.878 292.52 369.878Z" stroke="#3F3D56" stroke-width="0.653417"/>
<path d="M314.628 277.965C316.72 278.726 319.065 278.082 320.475 276.359C321.886 274.637 322.054 272.212 320.895 270.311C319.737 268.41 317.504 267.448 315.326 267.912L315.457 270.61L314.181 268.298C312.928 268.887 311.96 269.949 311.49 271.251C311.323 271.707 311.221 272.184 311.188 272.668C311.022 275.004 312.427 277.166 314.628 277.965Z" fill="#57B894"/>
<path d="M320.945 309.256C320.494 306.961 322.447 304.927 324.375 303.605C326.304 302.283 328.558 300.984 329.216 298.74C330.162 295.515 327.345 292.562 325.152 290.016C323.525 288.126 322.128 286.05 320.99 283.831C320.495 282.959 320.158 282.007 319.994 281.019C319.821 279.589 320.281 278.167 320.743 276.804C322.285 272.262 323.933 267.758 325.687 263.292" stroke="#3F3D56" stroke-width="0.653417"/>
<path fill-rule="evenodd" clip-rule="evenodd" d="M314.844 277.27C316.936 278.031 319.281 277.387 320.691 275.665C322.102 273.942 322.27 271.517 321.111 269.616C319.953 267.715 317.719 266.754 315.542 267.218L315.673 269.916L314.397 267.604C313.144 268.192 312.176 269.254 311.705 270.556C311.538 271.012 311.437 271.489 311.404 271.974C311.238 274.309 312.642 276.472 314.844 277.27Z" stroke="#3F3D56" stroke-width="0.653417"/>
<path d="M320.304 262.36C320.912 260.681 322.335 259.428 324.077 259.036L324.509 261.601L325.309 258.907C327.589 258.941 329.585 260.445 330.247 262.626C330.909 264.808 330.085 267.167 328.208 268.462C326.331 269.756 323.833 269.689 322.028 268.296C320.223 266.903 319.526 264.503 320.304 262.36H320.304Z" fill="#57B894"/>
<path fill-rule="evenodd" clip-rule="evenodd" d="M320.592 261.434C321.2 259.755 322.623 258.502 324.365 258.11L324.797 260.675L325.597 257.981C327.877 258.015 329.873 259.519 330.535 261.7C331.197 263.882 330.373 266.241 328.496 267.536C326.619 268.83 324.121 268.763 322.316 267.37C320.511 265.977 319.814 263.577 320.592 261.434H320.592Z" stroke="#3F3D56" stroke-width="0.653417"/>
<path d="M324.232 290.068C326.737 290.976 329.525 289.861 330.712 287.475C331.899 285.09 331.107 282.193 328.871 280.743L328.256 282.813L327.82 280.218C327.816 280.216 327.811 280.215 327.807 280.213C326.046 279.575 324.079 279.924 322.645 281.129C321.212 282.334 320.531 284.212 320.858 286.056C321.185 287.9 322.471 289.429 324.232 290.068H324.232Z" fill="#57B894"/>
<path fill-rule="evenodd" clip-rule="evenodd" d="M324.481 289.13C326.986 290.038 329.774 288.923 330.961 286.537C332.148 284.152 331.356 281.255 329.12 279.805L328.506 281.875L328.07 279.28C328.065 279.278 328.061 279.277 328.056 279.275C326.296 278.637 324.328 278.986 322.895 280.191C321.461 281.396 320.78 283.274 321.107 285.118C321.434 286.962 322.72 288.491 324.481 289.13L324.481 289.13Z" stroke="#3F3D56" stroke-width="0.653417"/>
<path d="M318.774 298.772C319.203 301.212 321.282 303.018 323.758 303.101C326.234 303.185 328.43 301.523 329.022 299.117C329.614 296.712 328.44 294.221 326.208 293.146C323.976 292.071 321.296 292.706 319.784 294.668L322.12 298.183L318.928 296.317C318.681 297.111 318.628 297.953 318.774 298.772Z" fill="#57B894"/>
<path fill-rule="evenodd" clip-rule="evenodd" d="M318.99 298.078C319.419 300.517 321.498 302.323 323.974 302.407C326.45 302.49 328.646 300.828 329.238 298.423C329.83 296.017 328.656 293.526 326.424 292.451C324.192 291.376 321.512 292.011 320 293.973L322.336 297.488L319.144 295.622C318.897 296.417 318.844 297.259 318.99 298.078Z" stroke="#3F3D56" stroke-width="0.653417"/>
<path d="M313.666 312.364C313.666 312.364 318.292 310.551 319.686 309.558C321.08 308.566 326.802 307.38 327.148 308.972C327.494 310.564 334.1 316.89 328.877 316.932C323.655 316.974 316.742 317.789 315.351 316.941C313.959 316.094 313.666 312.364 313.666 312.364Z" fill="#656380"/>
<path opacity="0.2" d="M328.971 316.378C323.748 316.42 316.835 317.235 315.444 316.387C314.384 315.742 313.962 313.426 313.821 312.358C313.723 312.362 313.666 312.364 313.666 312.364C313.666 312.364 313.959 316.094 315.351 316.941C316.742 317.789 323.655 316.974 328.877 316.932C330.385 316.92 330.906 316.384 330.877 315.589C330.668 316.069 330.093 316.369 328.971 316.378Z" fill="black"/>
<path d="M107.395 263.636H106.215C100.947 263.636 96.677 267.906 96.677 273.173V307.432C96.677 312.699 100.947 316.968 106.215 316.968H107.395C112.662 316.968 116.933 312.699 116.933 307.432V273.173C116.933 267.906 112.662 263.636 107.395 263.636Z" fill="#2A46FF"/>
<path d="M145.88 231.57H144.7C139.433 231.57 135.162 235.839 135.162 241.106V307.432C135.162 312.699 139.433 316.968 144.7 316.968H145.88C151.148 316.968 155.418 312.699 155.418 307.432V241.106C155.418 235.839 151.148 231.57 145.88 231.57Z" fill="#2A46FF"/>
<path d="M184.366 209.292H183.185C177.918 209.292 173.648 213.562 173.648 218.828V307.432C173.648 312.699 177.918 316.968 183.185 316.968H184.366C189.633 316.968 193.903 312.699 193.903 307.432V218.828C193.903 213.562 189.633 209.292 184.366 209.292Z" fill="#2A46FF"/>
<path d="M222.851 188.027H221.671C216.403 188.027 212.133 192.296 212.133 197.563V307.432C212.133 312.699 216.403 316.968 221.671 316.968H222.851C228.119 316.968 232.389 312.699 232.389 307.432V197.563C232.389 192.296 228.119 188.027 222.851 188.027Z" fill="#2A46FF"/>
<path d="M261.337 150.897H260.156C254.889 150.897 250.619 155.167 250.619 160.433V307.432C250.619 312.699 254.889 316.968 260.156 316.968H261.337C266.604 316.968 270.874 312.699 270.874 307.432V160.433C270.874 155.167 266.604 150.897 261.337 150.897Z" fill="#2A46FF"/>
<path d="M110.096 260.936H108.915C103.648 260.936 99.3778 265.206 99.3778 270.472V304.732C99.3778 309.998 103.648 314.268 108.915 314.268H110.096C115.363 314.268 119.633 309.998 119.633 304.732V270.472C119.633 265.206 115.363 260.936 110.096 260.936Z" stroke="#3F3D56" stroke-width="0.653417"/>
<path d="M148.581 228.87H147.401C142.133 228.87 137.863 233.139 137.863 238.406V304.732C137.863 309.998 142.133 314.268 147.401 314.268H148.581C153.849 314.268 158.119 309.998 158.119 304.732V238.406C158.119 233.139 153.849 228.87 148.581 228.87Z" stroke="#3F3D56" stroke-width="0.653417"/>
<path d="M187.067 206.592H185.886C180.619 206.592 176.349 210.861 176.349 216.128V304.732C176.349 309.998 180.619 314.268 185.886 314.268H187.067C192.334 314.268 196.604 309.998 196.604 304.732V216.128C196.604 210.861 192.334 206.592 187.067 206.592Z" stroke="#3F3D56" stroke-width="0.653417"/>
<path d="M225.552 185.327H224.372C219.104 185.327 214.834 189.596 214.834 194.863V304.732C214.834 309.998 219.104 314.268 224.372 314.268H225.552C230.819 314.268 235.09 309.998 235.09 304.732V194.863C235.09 189.596 230.819 185.327 225.552 185.327Z" stroke="#3F3D56" stroke-width="0.653417"/>
<path d="M264.037 148.197H262.857C257.59 148.197 253.319 152.466 253.319 157.733V304.732C253.319 309.998 257.59 314.268 262.857 314.268H264.037C269.305 314.268 273.575 309.998 273.575 304.732V157.733C273.575 152.466 269.305 148.197 264.037 148.197Z" stroke="#3F3D56" stroke-width="0.653417"/>
<path d="M333.666 317.137H43" stroke="#3F3D56" stroke-width="0.653417"/>
<path d="M315.336 284.758C315.336 284.758 318.513 296.194 314.489 297.888C310.465 299.582 311.735 285.182 311.735 285.182L315.336 284.758Z" fill="#A0616A"/>
<path d="M286.531 358.031C286.531 358.031 283.566 357.819 282.507 358.455C281.865 358.83 281.092 358.907 280.389 358.666C280.389 358.666 275.729 358.243 277.424 360.572C279.118 362.902 280.812 363.749 280.812 364.808C280.812 365.867 287.802 365.867 288.014 364.808C288.225 363.749 288.437 358.243 288.014 358.031C287.59 357.819 286.531 358.031 286.531 358.031Z" fill="#575A89"/>
<path d="M294.368 358.031C294.368 358.031 297.333 357.819 298.392 358.455C299.034 358.83 299.807 358.907 300.51 358.666C300.51 358.666 305.17 358.243 303.475 360.572C301.781 362.902 300.086 363.749 300.086 364.808C300.086 365.867 293.097 365.867 292.885 364.808C292.673 363.749 292.461 358.243 292.885 358.031C293.309 357.819 294.368 358.031 294.368 358.031Z" fill="#575A89"/>
<path d="M277.847 282.429C277.847 282.429 276.365 315.889 277.212 317.583C278.059 319.277 281.024 347.866 280.601 349.56C280.177 351.254 278.059 358.243 280.601 359.302C283.142 360.36 288.649 359.302 288.649 359.302C288.649 359.302 290.132 350.831 289.496 346.384C288.861 341.936 288.649 323.301 288.649 323.301L292.885 303.818L294.368 322.242C294.368 322.242 294.791 347.442 291.826 352.525C288.861 357.607 292.885 359.725 292.885 359.725C292.885 359.725 300.934 360.784 301.781 360.572C302.628 360.36 301.145 352.101 301.781 348.501C302.416 344.901 303.899 324.783 305.17 319.912C306.44 315.042 313.642 287.935 308.347 282.429C303.052 276.923 277.847 282.429 277.847 282.429Z" fill="#3F3D56"/>
<path d="M293.309 214.874C297.403 214.874 300.722 211.556 300.722 207.462C300.722 203.369 297.403 200.05 293.309 200.05C289.215 200.05 285.896 203.369 285.896 207.462C285.896 211.556 289.215 214.874 293.309 214.874Z" fill="#A0616A"/>
<path d="M287.802 210.851C287.802 210.851 289.073 221.015 288.437 221.227C287.802 221.439 299.663 221.227 299.663 221.227C299.663 221.227 297.333 215.086 299.663 210.215L287.802 210.851Z" fill="#A0616A"/>
<path d="M287.802 219.11C287.802 219.11 292.964 214.027 299.067 219.11L299.462 220.625L296.274 220.592H287.802V219.11Z" fill="#F2F2F2"/>
<path d="M313.006 284.123C312.517 284.221 311.318 284.42 309.755 284.657C304.551 285.442 295.329 286.633 295.003 285.817C294.58 284.758 293.097 280.947 292.038 282.641C290.979 284.335 291.614 285.817 287.166 286.029C284.14 286.173 279.741 285.728 277.305 285.029C276.161 284.701 275.45 284.318 275.517 283.911C275.729 282.641 278.059 258.499 278.059 256.169C278.059 253.84 278.906 242.616 278.906 242.616L272.819 230.64L272.34 229.698C272.34 229.698 272.976 227.369 274.882 226.945C276.788 226.522 285.896 221.227 285.896 221.227C285.896 221.227 287.802 218.262 291.402 218.474C295.003 218.686 295.85 217.204 300.722 221.227C300.722 221.227 306.652 223.769 308.77 225.039C310.888 226.31 313.218 226.31 313.43 228.427C313.472 228.853 313.241 229.673 312.845 230.708C311.394 234.503 307.728 241.218 307.154 242.265C307.103 242.356 307.076 242.404 307.076 242.404C307.076 242.404 306.966 246.212 307.082 250.67V250.68C307.197 254.956 307.518 259.829 308.347 262.523C310.041 268.029 315.124 283.7 313.006 284.123Z" fill="#575A89"/>
<path d="M302.932 204.42C302.784 203.745 302.499 203.108 302.094 202.548C301.933 200.999 301.416 199.508 300.584 198.192C300.258 197.575 299.796 197.041 299.231 196.631C298.585 196.258 297.848 196.075 297.103 196.1C296.968 196.098 296.725 196.139 296.506 196.149C296.366 196.105 296.225 196.067 296.083 196.03C296 195.846 295.836 195.31 295.791 195.347L295.173 195.837C294.912 195.792 294.649 195.757 294.386 195.729C294.29 195.455 294.194 195.181 294.098 194.908C293.943 195.153 293.806 195.409 293.69 195.675C293.428 195.662 293.166 195.657 292.903 195.661L292.378 195.157C292.315 195.444 292.087 195.667 291.799 195.724C291.557 195.749 291.317 195.781 291.077 195.82C291.057 195.82 291.038 195.82 291.018 195.819C289.726 195.787 288.335 195.729 287.254 196.439C286.748 196.786 286.336 197.253 286.055 197.799C285.923 197.889 285.79 197.978 285.661 198.074C285.228 198.369 284.852 198.742 284.553 199.173C284.335 199.544 284.17 199.944 284.062 200.361C283.649 201.617 283.458 202.934 283.497 204.255C283.541 205.584 284.043 206.858 284.918 207.86C285.472 208.456 286.177 208.896 286.732 209.491C287.875 210.716 288.089 212.424 289.067 213.72C290.101 215.091 291.989 215.993 293.647 216.252C295.66 216.555 297.711 216.044 299.346 214.831C299.734 214.561 300.064 214.215 300.316 213.814C300.891 212.819 300.647 211.568 300.861 210.439C301.261 208.322 303.282 206.545 302.932 204.42Z" fill="#3F3D56"/>
<path d="M274.67 285.394C274.67 285.394 277.847 296.829 273.823 298.524C269.799 300.218 271.07 285.817 271.07 285.817L274.67 285.394Z" fill="#A0616A"/>
<path opacity="0.1" d="M278.48 259.443C278.48 259.443 277.091 280.061 277.305 285.029C276.161 284.701 275.45 284.318 275.517 283.911C275.729 282.641 278.059 258.499 278.059 256.169C278.059 253.84 278.906 242.616 278.906 242.616L272.819 230.64C272.916 230.047 272.976 229.698 272.976 229.698L276.047 236.157L280.389 237.322L278.48 259.443Z" fill="black"/>
<path d="M273.823 228.427L272.34 229.698C272.34 229.698 270.434 240.922 270.646 243.675C270.858 246.428 266.198 288.147 269.799 288.147C273.399 288.147 277.424 287.511 276.788 286.029C276.153 284.547 277.846 259.443 277.846 259.443L279.753 237.322L273.823 228.427Z" fill="#575A89"/>
<path opacity="0.1" d="M312.845 230.708C311.394 234.503 307.728 241.218 307.154 242.265C307.171 239.556 307.182 237.639 307.182 237.639L311.63 228.533L312.583 227.792C312.583 227.792 312.684 228.912 312.845 230.708Z" fill="black"/>
<path opacity="0.1" d="M313.006 284.123C312.517 284.221 311.318 284.42 309.755 284.657C308.944 278.659 306.775 261.413 306.913 259.789C306.981 258.988 307.038 255.032 307.082 250.68C307.197 254.956 307.518 259.829 308.347 262.523C310.041 268.029 315.124 283.7 313.006 284.123Z" fill="black"/>
<path d="M310.253 226.945L313.43 227.792C313.43 227.792 315.548 251.299 315.76 255.322C315.971 259.346 318.513 284.123 318.089 285.182C317.666 286.241 311.1 287.723 310.888 286.664C310.676 285.605 307.597 261.713 307.76 259.788C307.923 257.864 306.864 237.957 306.864 237.957L310.253 226.945Z" fill="#575A89"/>
<path d="M109.337 240.515L147.822 208.448L186.645 186.508L225.131 165.243L263.616 128.113" stroke="#3F3D56" stroke-width="0.653417"/>
<path d="M108.324 245.915C110.375 245.915 112.037 244.253 112.037 242.202C112.037 240.152 110.375 238.49 108.324 238.49C106.273 238.49 104.61 240.152 104.61 242.202C104.61 244.253 106.273 245.915 108.324 245.915Z" fill="#F2F2F2"/>
<path d="M146.809 213.849C148.86 213.849 150.523 212.187 150.523 210.136C150.523 208.085 148.86 206.423 146.809 206.423C144.758 206.423 143.096 208.085 143.096 210.136C143.096 212.187 144.758 213.849 146.809 213.849Z" fill="#F2F2F2"/>
<path d="M185.632 191.909C187.683 191.909 189.346 190.246 189.346 188.196C189.346 186.145 187.683 184.483 185.632 184.483C183.581 184.483 181.919 186.145 181.919 188.196C181.919 190.246 183.581 191.909 185.632 191.909Z" fill="#F2F2F2"/>
<path d="M224.118 170.644C226.169 170.644 227.831 168.981 227.831 166.931C227.831 164.88 226.169 163.218 224.118 163.218C222.067 163.218 220.404 164.88 220.404 166.931C220.404 168.981 222.067 170.644 224.118 170.644Z" fill="#F2F2F2"/>
<path d="M262.603 133.514C264.654 133.514 266.317 131.852 266.317 129.801C266.317 127.75 264.654 126.088 262.603 126.088C260.552 126.088 258.89 127.75 258.89 129.801C258.89 131.852 260.552 133.514 262.603 133.514Z" fill="#F2F2F2"/>
<path d="M109.337 244.228C111.388 244.228 113.05 242.565 113.05 240.515C113.05 238.464 111.388 236.802 109.337 236.802C107.286 236.802 105.623 238.464 105.623 240.515C105.623 242.565 107.286 244.228 109.337 244.228Z" stroke="#3F3D56" stroke-width="0.653417"/>
<path d="M147.822 212.161C149.873 212.161 151.536 210.499 151.536 208.448C151.536 206.398 149.873 204.735 147.822 204.735C145.771 204.735 144.109 206.398 144.109 208.448C144.109 210.499 145.771 212.161 147.822 212.161Z" stroke="#3F3D56" stroke-width="0.653417"/>
<path d="M186.645 190.221C188.696 190.221 190.359 188.559 190.359 186.508C190.359 184.457 188.696 182.795 186.645 182.795C184.594 182.795 182.932 184.457 182.932 186.508C182.932 188.559 184.594 190.221 186.645 190.221Z" stroke="#3F3D56" stroke-width="0.653417"/>
<path d="M225.131 168.956C227.181 168.956 228.844 167.293 228.844 165.243C228.844 163.192 227.181 161.53 225.131 161.53C223.08 161.53 221.417 163.192 221.417 165.243C221.417 167.293 223.08 168.956 225.131 168.956Z" stroke="#3F3D56" stroke-width="0.653417"/>
<path d="M263.616 131.826C265.667 131.826 267.33 130.164 267.33 128.113C267.33 126.063 265.667 124.4 263.616 124.4C261.565 124.4 259.902 126.063 259.902 128.113C259.902 130.164 261.565 131.826 263.616 131.826Z" stroke="#3F3D56" stroke-width="0.653417"/>
<rect x="183" y="726" width="191" height="60" rx="16" fill="#468AA5"/>
<path d="M239.213 762.128C238.349 762.128 237.554 761.989 236.829 761.712C236.103 761.424 235.474 761.024 234.941 760.512C234.407 759.989 233.991 759.381 233.693 758.688C233.394 757.995 233.245 757.232 233.245 756.4C233.245 755.568 233.394 754.805 233.693 754.112C233.991 753.419 234.407 752.816 234.941 752.304C235.485 751.781 236.119 751.381 236.845 751.104C237.57 750.816 238.37 750.672 239.245 750.672C240.13 750.672 240.941 750.816 241.677 751.104C242.413 751.392 243.037 751.824 243.549 752.4L242.557 753.392C242.098 752.944 241.597 752.619 241.053 752.416C240.519 752.203 239.938 752.096 239.309 752.096C238.669 752.096 238.071 752.203 237.517 752.416C236.973 752.629 236.498 752.928 236.093 753.312C235.698 753.696 235.389 754.155 235.165 754.688C234.951 755.211 234.845 755.781 234.845 756.4C234.845 757.008 234.951 757.579 235.165 758.112C235.389 758.635 235.698 759.093 236.093 759.488C236.498 759.872 236.973 760.171 237.517 760.384C238.061 760.597 238.653 760.704 239.293 760.704C239.89 760.704 240.461 760.613 241.005 760.432C241.559 760.24 242.071 759.925 242.541 759.488L243.453 760.704C242.898 761.173 242.247 761.531 241.501 761.776C240.765 762.011 240.002 762.128 239.213 762.128ZM241.917 760.496V756.336H243.453V760.704L241.917 760.496ZM250.068 762.096C249.161 762.096 248.361 761.909 247.668 761.536C246.985 761.163 246.452 760.651 246.068 760C245.695 759.349 245.508 758.603 245.508 757.76C245.508 756.917 245.689 756.171 246.052 755.52C246.425 754.869 246.932 754.363 247.572 754C248.223 753.627 248.953 753.44 249.764 753.44C250.585 753.44 251.311 753.621 251.94 753.984C252.569 754.347 253.06 754.859 253.412 755.52C253.775 756.171 253.956 756.933 253.956 757.808C253.956 757.872 253.951 757.947 253.94 758.032C253.94 758.117 253.935 758.197 253.924 758.272H246.708V757.168H253.124L252.5 757.552C252.511 757.008 252.399 756.523 252.164 756.096C251.929 755.669 251.604 755.339 251.188 755.104C250.783 754.859 250.308 754.736 249.764 754.736C249.231 754.736 248.756 754.859 248.34 755.104C247.924 755.339 247.599 755.675 247.364 756.112C247.129 756.539 247.012 757.029 247.012 757.584V757.84C247.012 758.405 247.14 758.912 247.396 759.36C247.663 759.797 248.031 760.139 248.5 760.384C248.969 760.629 249.508 760.752 250.116 760.752C250.617 760.752 251.071 760.667 251.476 760.496C251.892 760.325 252.255 760.069 252.564 759.728L253.412 760.72C253.028 761.168 252.548 761.509 251.972 761.744C251.407 761.979 250.772 762.096 250.068 762.096ZM259.001 762.096C258.147 762.096 257.486 761.867 257.017 761.408C256.547 760.949 256.313 760.293 256.313 759.44V751.664H257.849V759.376C257.849 759.835 257.961 760.187 258.185 760.432C258.419 760.677 258.75 760.8 259.177 760.8C259.657 760.8 260.057 760.667 260.377 760.4L260.857 761.504C260.622 761.707 260.339 761.856 260.009 761.952C259.689 762.048 259.353 762.096 259.001 762.096ZM254.873 754.784V753.52H260.281V754.784H254.873ZM270.499 762.128C269.645 762.128 268.829 762 268.051 761.744C267.272 761.477 266.659 761.136 266.211 760.72L266.803 759.472C267.229 759.845 267.773 760.155 268.435 760.4C269.096 760.645 269.784 760.768 270.499 760.768C271.149 760.768 271.677 760.693 272.083 760.544C272.488 760.395 272.787 760.192 272.979 759.936C273.171 759.669 273.267 759.371 273.267 759.04C273.267 758.656 273.139 758.347 272.883 758.112C272.637 757.877 272.312 757.691 271.907 757.552C271.512 757.403 271.075 757.275 270.595 757.168C270.115 757.061 269.629 756.939 269.139 756.8C268.659 756.651 268.216 756.464 267.811 756.24C267.416 756.016 267.096 755.717 266.851 755.344C266.605 754.96 266.483 754.469 266.483 753.872C266.483 753.296 266.632 752.768 266.931 752.288C267.24 751.797 267.709 751.408 268.339 751.12C268.979 750.821 269.789 750.672 270.771 750.672C271.421 750.672 272.067 750.757 272.707 750.928C273.347 751.099 273.901 751.344 274.371 751.664L273.843 752.944C273.363 752.624 272.856 752.395 272.323 752.256C271.789 752.107 271.272 752.032 270.771 752.032C270.141 752.032 269.624 752.112 269.219 752.272C268.813 752.432 268.515 752.645 268.323 752.912C268.141 753.179 268.051 753.477 268.051 753.808C268.051 754.203 268.173 754.517 268.419 754.752C268.675 754.987 269 755.173 269.395 755.312C269.8 755.451 270.243 755.579 270.723 755.696C271.203 755.803 271.683 755.925 272.163 756.064C272.653 756.203 273.096 756.384 273.491 756.608C273.896 756.832 274.221 757.131 274.467 757.504C274.712 757.877 274.835 758.357 274.835 758.944C274.835 759.509 274.68 760.037 274.371 760.528C274.061 761.008 273.581 761.397 272.931 761.696C272.291 761.984 271.48 762.128 270.499 762.128ZM279.86 762.096C279.007 762.096 278.346 761.867 277.876 761.408C277.407 760.949 277.172 760.293 277.172 759.44V751.664H278.708V759.376C278.708 759.835 278.82 760.187 279.044 760.432C279.279 760.677 279.61 760.8 280.036 760.8C280.516 760.8 280.916 760.667 281.236 760.4L281.716 761.504C281.482 761.707 281.199 761.856 280.868 761.952C280.548 762.048 280.212 762.096 279.86 762.096ZM275.732 754.784V753.52H281.14V754.784H275.732ZM288.837 762V760.208L288.757 759.872V756.816C288.757 756.165 288.565 755.664 288.181 755.312C287.808 754.949 287.243 754.768 286.485 754.768C285.984 754.768 285.493 754.853 285.013 755.024C284.533 755.184 284.128 755.403 283.797 755.68L283.157 754.528C283.595 754.176 284.117 753.909 284.725 753.728C285.344 753.536 285.989 753.44 286.661 753.44C287.824 753.44 288.72 753.723 289.349 754.288C289.979 754.853 290.293 755.717 290.293 756.88V762H288.837ZM286.053 762.096C285.424 762.096 284.869 761.989 284.389 761.776C283.92 761.563 283.557 761.269 283.301 760.896C283.045 760.512 282.917 760.08 282.917 759.6C282.917 759.141 283.024 758.725 283.237 758.352C283.461 757.979 283.819 757.68 284.309 757.456C284.811 757.232 285.483 757.12 286.325 757.12H289.013V758.224H286.389C285.621 758.224 285.104 758.352 284.837 758.608C284.571 758.864 284.437 759.173 284.437 759.536C284.437 759.952 284.603 760.288 284.933 760.544C285.264 760.789 285.723 760.912 286.309 760.912C286.885 760.912 287.387 760.784 287.813 760.528C288.251 760.272 288.565 759.899 288.757 759.408L289.061 760.464C288.859 760.965 288.501 761.365 287.989 761.664C287.477 761.952 286.832 762.096 286.053 762.096ZM293.136 762V753.52H294.608V755.824L294.464 755.248C294.698 754.661 295.093 754.213 295.648 753.904C296.202 753.595 296.885 753.44 297.696 753.44V754.928C297.632 754.917 297.568 754.912 297.504 754.912C297.45 754.912 297.397 754.912 297.344 754.912C296.522 754.912 295.872 755.157 295.392 755.648C294.912 756.139 294.672 756.848 294.672 757.776V762H293.136ZM302.845 762.096C301.991 762.096 301.33 761.867 300.861 761.408C300.391 760.949 300.157 760.293 300.157 759.44V751.664H301.693V759.376C301.693 759.835 301.805 760.187 302.029 760.432C302.263 760.677 302.594 760.8 303.021 760.8C303.501 760.8 303.901 760.667 304.221 760.4L304.701 761.504C304.466 761.707 304.183 761.856 303.853 761.952C303.533 762.048 303.197 762.096 302.845 762.096ZM298.717 754.784V753.52H304.125V754.784H298.717ZM310.052 762.096C309.146 762.096 308.346 761.909 307.652 761.536C306.97 761.163 306.436 760.651 306.052 760C305.679 759.349 305.492 758.603 305.492 757.76C305.492 756.917 305.674 756.171 306.036 755.52C306.41 754.869 306.916 754.363 307.556 754C308.207 753.627 308.938 753.44 309.748 753.44C310.57 753.44 311.295 753.621 311.924 753.984C312.554 754.347 313.044 754.859 313.396 755.52C313.759 756.171 313.94 756.933 313.94 757.808C313.94 757.872 313.935 757.947 313.924 758.032C313.924 758.117 313.919 758.197 313.908 758.272H306.692V757.168H313.108L312.484 757.552C312.495 757.008 312.383 756.523 312.148 756.096C311.914 755.669 311.588 755.339 311.172 755.104C310.767 754.859 310.292 754.736 309.748 754.736C309.215 754.736 308.74 754.859 308.324 755.104C307.908 755.339 307.583 755.675 307.348 756.112C307.114 756.539 306.996 757.029 306.996 757.584V757.84C306.996 758.405 307.124 758.912 307.38 759.36C307.647 759.797 308.015 760.139 308.484 760.384C308.954 760.629 309.492 760.752 310.1 760.752C310.602 760.752 311.055 760.667 311.46 760.496C311.876 760.325 312.239 760.069 312.548 759.728L313.396 760.72C313.012 761.168 312.532 761.509 311.956 761.744C311.391 761.979 310.756 762.096 310.052 762.096ZM319.577 762.096C318.756 762.096 318.02 761.915 317.369 761.552C316.729 761.189 316.223 760.683 315.849 760.032C315.476 759.381 315.289 758.624 315.289 757.76C315.289 756.896 315.476 756.144 315.849 755.504C316.223 754.853 316.729 754.347 317.369 753.984C318.02 753.621 318.756 753.44 319.577 753.44C320.292 753.44 320.937 753.6 321.513 753.92C322.089 754.24 322.548 754.72 322.889 755.36C323.241 756 323.417 756.8 323.417 757.76C323.417 758.72 323.247 759.52 322.905 760.16C322.575 760.8 322.121 761.285 321.545 761.616C320.969 761.936 320.313 762.096 319.577 762.096ZM319.705 760.752C320.239 760.752 320.719 760.629 321.145 760.384C321.583 760.139 321.924 759.792 322.169 759.344C322.425 758.885 322.553 758.357 322.553 757.76C322.553 757.152 322.425 756.629 322.169 756.192C321.924 755.744 321.583 755.397 321.145 755.152C320.719 754.907 320.239 754.784 319.705 754.784C319.161 754.784 318.676 754.907 318.249 755.152C317.823 755.397 317.481 755.744 317.225 756.192C316.969 756.629 316.841 757.152 316.841 757.76C316.841 758.357 316.969 758.885 317.225 759.344C317.481 759.792 317.823 760.139 318.249 760.384C318.676 760.629 319.161 760.752 319.705 760.752ZM322.601 762V759.712L322.697 757.744L322.537 755.776V750.128H324.073V762H322.601Z" fill="white"/>
</g>
<defs>
<filter id="filter0_b_8_5617" x="-42" y="780" width="474" height="94" filterUnits="userSpaceOnUse" color-interpolation-filters="sRGB">
<feFlood flood-opacity="0" result="BackgroundImageFix"/>
<feGaussianBlur in="BackgroundImageFix" stdDeviation="15"/>
<feComposite in2="SourceAlpha" operator="in" result="effect1_backgroundBlur_8_5617"/>
<feBlend mode="normal" in="SourceGraphic" in2="effect1_backgroundBlur_8_5617" result="shape"/>
</filter>
<filter id="filter1_b_8_5617" x="-30" y="-30" width="450" height="104.001" filterUnits="userSpaceOnUse" color-interpolation-filters="sRGB">
<feFlood flood-opacity="0" result="BackgroundImageFix"/>
<feGaussianBlur in="BackgroundImageFix" stdDeviation="15"/>
<feComposite in2="SourceAlpha" operator="in" result="effect1_backgroundBlur_8_5617"/>
<feBlend mode="normal" in="SourceGraphic" in2="effect1_backgroundBlur_8_5617" result="shape"/>
</filter>
<filter id="filter2_b_8_5617" x="-56" y="-56" width="208" height="156" filterUnits="userSpaceOnUse" color-interpolation-filters="sRGB">
<feFlood flood-opacity="0" result="BackgroundImageFix"/>
<feGaussianBlur in="BackgroundImageFix" stdDeviation="28"/>
<feComposite in2="SourceAlpha" operator="in" result="effect1_backgroundBlur_8_5617"/>
<feBlend mode="normal" in="SourceGraphic" in2="effect1_backgroundBlur_8_5617" result="shape"/>
</filter>
<filter id="filter3_b_8_5617" x="238" y="-56" width="208" height="156" filterUnits="userSpaceOnUse" color-interpolation-filters="sRGB">
<feFlood flood-opacity="0" result="BackgroundImageFix"/>
<feGaussianBlur in="BackgroundImageFix" stdDeviation="28"/>
<feComposite in2="SourceAlpha" operator="in" result="effect1_backgroundBlur_8_5617"/>
<feBlend mode="normal" in="SourceGraphic" in2="effect1_backgroundBlur_8_5617" result="shape"/>
</filter>
<linearGradient id="paint0_linear_8_5617" x1="390" y1="-1.07415e-05" x2="-1.31714e-05" y2="844" gradientUnits="userSpaceOnUse">
<stop stop-color="#072434"/>
<stop offset="1" stop-color="#0D0819"/>
</linearGradient>
<clipPath id="clip0_8_5617">
<rect width="390" height="844" fill="white"/>
</clipPath>
<clipPath id="clip1_8_5617">
<rect width="72" height="16" fill="white" transform="translate(302 16)"/>
</clipPath>
<clipPath id="clip2_8_5617">
<rect width="16" height="8.5" fill="white" transform="translate(348 20.5)"/>
</clipPath>
</defs>
</svg>
