<svg width="242" height="261" viewBox="0 0 242 261" fill="none" xmlns="http://www.w3.org/2000/svg">
<path d="M217.227 239.281H199.367V260.369H217.227V239.281Z" fill="url(#paint0_linear_8_5844)"/>
<path d="M199.783 259.599H216.814V239.277H199.783V259.599Z" fill="#F5F5F5"/>
<path d="M42.3652 239.281H24.5055V260.369H42.3652V239.281Z" fill="url(#paint1_linear_8_5844)"/>
<path d="M41.9525 239.281H24.9218V259.602H41.9525V239.281Z" fill="#F5F5F5"/>
<path d="M231.747 0H9.57256C4.28578 0 0 4.27903 0 9.55748V232.625C0 237.904 4.28578 242.183 9.57256 242.183H231.747C237.034 242.183 241.32 237.904 241.32 232.625V9.55748C241.32 4.27903 237.034 0 231.747 0Z" fill="url(#paint2_linear_8_5844)"/>
<path d="M230.498 1.24323H11.234C5.94722 1.24323 1.66144 5.52225 1.66144 10.8007V229.72C1.66144 234.998 5.94722 239.277 11.234 239.277H230.498C235.785 239.277 240.071 234.998 240.071 229.72V10.8007C240.071 5.52225 235.785 1.24323 230.498 1.24323Z" fill="#FAFAFA"/>
<path d="M201.238 39.6024H40.0812V202.165H201.238V39.6024Z" fill="url(#paint3_linear_8_5844)"/>
<path d="M164.876 94.5517L216.663 80.8325L223.374 106.085L171.587 119.804L164.876 94.5517Z" fill="url(#paint4_linear_8_5844)"/>
<path d="M165.381 94.8477L216.367 81.3408L222.866 105.793L171.88 119.3L165.381 94.8477Z" fill="white"/>
<path d="M167.269 95.204L214.912 82.5826L220.984 105.431L173.341 118.053L167.269 95.204Z" fill="#69F0AE"/>
<path d="M195.146 104.984C200.023 103.692 203.404 100.491 202.698 97.8343C201.992 95.1778 197.467 94.0716 192.59 95.3636C187.712 96.6556 184.331 99.8565 185.037 102.513C185.743 105.17 190.269 106.276 195.146 104.984Z" fill="white"/>
<path d="M163.466 142.319L171.968 117.611L222.64 134.992L214.138 159.7L163.466 142.319Z" fill="url(#paint5_linear_8_5844)"/>
<path d="M172.225 118.135L222.113 135.247L213.881 159.173L163.993 142.061L172.225 118.135Z" fill="white"/>
<path d="M173.593 119.483L220.211 135.474L212.518 157.83L165.9 141.84L173.593 119.483Z" fill="#69F0AE"/>
<path d="M201.567 141.355C202.462 138.756 199.318 135.321 194.546 133.685C189.774 132.048 185.181 132.828 184.286 135.427C183.392 138.027 186.535 141.461 191.307 143.098C196.079 144.735 200.673 143.954 201.567 141.355Z" fill="white"/>
<path d="M227.971 107.526H174.392V133.652H227.971V107.526Z" fill="url(#paint6_linear_8_5844)"/>
<path d="M227.558 107.941H174.808V133.24H227.558V107.941Z" fill="white"/>
<path d="M225.829 108.769H176.537V132.408H225.829V108.769Z" fill="#69F0AE"/>
<path d="M200.975 125.357C206.021 125.357 210.111 123.129 210.111 120.381C210.111 117.632 206.021 115.404 200.975 115.404C195.929 115.404 191.839 117.632 191.839 120.381C191.839 123.129 195.929 125.357 200.975 125.357Z" fill="white"/>
<path d="M199.99 41.2613H41.3264V199.675H199.99V41.2613Z" fill="white"/>
<path d="M120.66 150.329C137.176 150.329 150.566 136.96 150.566 120.47C150.566 103.979 137.176 90.6107 120.66 90.6107C104.143 90.6107 90.7537 103.979 90.7537 120.47C90.7537 136.96 104.143 150.329 120.66 150.329Z" fill="url(#paint7_linear_8_5844)"/>
<path d="M120.66 149.086C136.489 149.086 149.321 136.274 149.321 120.47C149.321 104.666 136.489 91.854 120.66 91.854C104.831 91.854 91.9989 104.666 91.9989 120.47C91.9989 136.274 104.831 149.086 120.66 149.086Z" fill="#FAFAFA"/>
<path d="M107.578 177.488H98.8546V186.61H107.578V177.488Z" fill="url(#paint8_linear_8_5844)"/>
<path d="M119.208 177.488H110.485V186.61H119.208V177.488Z" fill="url(#paint9_linear_8_5844)"/>
<path d="M130.835 177.488H122.111V186.61H130.835V177.488Z" fill="url(#paint10_linear_8_5844)"/>
<path d="M142.465 177.488H133.742V186.61H142.465V177.488Z" fill="url(#paint11_linear_8_5844)"/>
<path d="M107.368 177.904H99.0609V186.198H107.368V177.904Z" fill="#2A46FF"/>
<path opacity="0.7" d="M118.998 177.904H110.691V186.198H118.998V177.904Z" fill="#2A46FF"/>
<path opacity="0.5" d="M130.628 177.904H122.321V186.198H130.628V177.904Z" fill="#2A46FF"/>
<path opacity="0.3" d="M142.259 177.904H133.951V186.198H142.259V177.904Z" fill="#2A46FF"/>
<path d="M132.657 102.278L134.018 103.23L130.684 107.984L129.323 107.033L132.657 102.278Z" fill="#2A46FF"/>
<path d="M138.88 132.446L137.927 133.805L133.165 130.476L134.118 129.117L138.88 132.446Z" fill="#2A46FF"/>
<path d="M108.661 138.659L107.3 137.708L110.635 132.954L111.996 133.905L108.661 138.659Z" fill="#2A46FF"/>
<path d="M102.441 108.492L103.394 107.133L108.156 110.462L107.203 111.821L102.441 108.492Z" fill="#2A46FF"/>
<path opacity="0.2" d="M132.642 102.229L134.003 103.181L130.668 107.935L129.307 106.984L132.642 102.229Z" fill="black"/>
<path opacity="0.2" d="M138.866 132.398L137.913 133.757L133.151 130.428L134.104 129.069L138.866 132.398Z" fill="black"/>
<path opacity="0.2" d="M108.65 138.61L107.289 137.658L110.623 132.904L111.984 133.855L108.65 138.61Z" fill="black"/>
<path opacity="0.2" d="M102.428 108.443L103.381 107.084L108.143 110.413L107.19 111.772L102.428 108.443Z" fill="black"/>
<path d="M120.66 138.507C130.637 138.507 138.726 130.432 138.726 120.47C138.726 110.508 130.637 102.432 120.66 102.432C110.682 102.432 102.594 110.508 102.594 120.47C102.594 130.432 110.682 138.507 120.66 138.507Z" fill="url(#paint12_linear_8_5844)"/>
<path d="M120.66 137.474C130.066 137.474 137.691 129.861 137.691 120.47C137.691 111.079 130.066 103.466 120.66 103.466C111.254 103.466 103.629 111.079 103.629 120.47C103.629 129.861 111.254 137.474 120.66 137.474Z" fill="#2A46FF"/>
<path opacity="0.2" d="M106.746 122.75C106.739 116.682 109.972 111.07 115.23 108.026C120.487 104.981 126.971 104.965 132.244 107.984C127.5 103.426 120.549 102.007 114.394 104.339C108.239 106.672 103.982 112.339 103.462 118.892C102.943 125.445 106.254 131.71 111.965 134.98C108.629 131.783 106.744 127.366 106.746 122.75Z" fill="white"/>
<path d="M48.1821 105.334H34.8905V72.2001C34.8925 71.4894 35.4701 70.9143 36.182 70.9143H46.8942C47.6075 70.9143 48.1857 71.4916 48.1857 72.2037L48.1821 105.334Z" fill="url(#paint13_linear_8_5844)"/>
<path d="M46.8266 170.441H36.246C35.4974 170.441 34.8905 169.835 34.8905 169.087V136.021H48.1821V169.08C48.184 169.44 48.042 169.787 47.7876 170.042C47.5332 170.297 47.1874 170.441 46.8266 170.441Z" fill="url(#paint14_linear_8_5844)"/>
<path d="M36.4309 71.3263H46.638C47.2609 71.3263 47.7658 71.8305 47.7658 72.4523V104.503H35.3138V72.463C35.311 72.1644 35.4271 71.8768 35.6366 71.6636C35.8461 71.4505 36.1318 71.3291 36.4309 71.3263Z" fill="#FAFAFA"/>
<path d="M35.3032 136.436H47.7552V169.233C47.7552 169.441 47.5863 169.61 47.378 169.61H35.6838C35.4756 169.61 35.3067 169.441 35.3067 169.233V136.436H35.3032Z" fill="#FAFAFA"/>
<defs>
<linearGradient id="paint0_linear_8_5844" x1="208.297" y1="260.369" x2="208.297" y2="239.281" gradientUnits="userSpaceOnUse">
<stop stop-color="#808080" stop-opacity="0.25"/>
<stop offset="0.54" stop-color="#808080" stop-opacity="0.12"/>
<stop offset="1" stop-color="#808080" stop-opacity="0.1"/>
</linearGradient>
<linearGradient id="paint1_linear_8_5844" x1="33.4353" y1="0.000144359" x2="33.4353" y2="239.281" gradientUnits="userSpaceOnUse">
<stop stop-color="#808080" stop-opacity="0.25"/>
<stop offset="0.54" stop-color="#808080" stop-opacity="0.12"/>
<stop offset="1" stop-color="#808080" stop-opacity="0.1"/>
</linearGradient>
<linearGradient id="paint2_linear_8_5844" x1="120.66" y1="242.183" x2="120.66" y2="0" gradientUnits="userSpaceOnUse">
<stop stop-color="#808080" stop-opacity="0.25"/>
<stop offset="0.54" stop-color="#808080" stop-opacity="0.12"/>
<stop offset="1" stop-color="#808080" stop-opacity="0.1"/>
</linearGradient>
<linearGradient id="paint3_linear_8_5844" x1="120.66" y1="202.165" x2="120.66" y2="39.6024" gradientUnits="userSpaceOnUse">
<stop stop-color="#808080" stop-opacity="0.25"/>
<stop offset="0.54" stop-color="#808080" stop-opacity="0.12"/>
<stop offset="1" stop-color="#808080" stop-opacity="0.1"/>
</linearGradient>
<linearGradient id="paint4_linear_8_5844" x1="197.48" y1="112.944" x2="190.789" y2="87.6869" gradientUnits="userSpaceOnUse">
<stop stop-color="#808080" stop-opacity="0.25"/>
<stop offset="0.54" stop-color="#808080" stop-opacity="0.12"/>
<stop offset="1" stop-color="#808080" stop-opacity="0.1"/>
</linearGradient>
<linearGradient id="paint5_linear_8_5844" x1="188.803" y1="151.007" x2="197.281" y2="126.29" gradientUnits="userSpaceOnUse">
<stop stop-color="#808080" stop-opacity="0.25"/>
<stop offset="0.54" stop-color="#808080" stop-opacity="0.12"/>
<stop offset="1" stop-color="#808080" stop-opacity="0.1"/>
</linearGradient>
<linearGradient id="paint6_linear_8_5844" x1="201.181" y1="133.652" x2="201.181" y2="107.526" gradientUnits="userSpaceOnUse">
<stop stop-color="#808080" stop-opacity="0.25"/>
<stop offset="0.54" stop-color="#808080" stop-opacity="0.12"/>
<stop offset="1" stop-color="#808080" stop-opacity="0.1"/>
</linearGradient>
<linearGradient id="paint7_linear_8_5844" x1="120.66" y1="150.329" x2="120.66" y2="90.6107" gradientUnits="userSpaceOnUse">
<stop stop-color="#808080" stop-opacity="0.25"/>
<stop offset="0.54" stop-color="#808080" stop-opacity="0.12"/>
<stop offset="1" stop-color="#808080" stop-opacity="0.1"/>
</linearGradient>
<linearGradient id="paint8_linear_8_5844" x1="103.213" y1="186.614" x2="103.213" y2="177.488" gradientUnits="userSpaceOnUse">
<stop stop-color="#808080" stop-opacity="0.25"/>
<stop offset="0.54" stop-color="#808080" stop-opacity="0.12"/>
<stop offset="1" stop-color="#808080" stop-opacity="0.1"/>
</linearGradient>
<linearGradient id="paint9_linear_8_5844" x1="114.843" y1="186.614" x2="114.843" y2="177.488" gradientUnits="userSpaceOnUse">
<stop stop-color="#808080" stop-opacity="0.25"/>
<stop offset="0.54" stop-color="#808080" stop-opacity="0.12"/>
<stop offset="1" stop-color="#808080" stop-opacity="0.1"/>
</linearGradient>
<linearGradient id="paint10_linear_8_5844" x1="126.473" y1="186.614" x2="126.473" y2="177.488" gradientUnits="userSpaceOnUse">
<stop stop-color="#808080" stop-opacity="0.25"/>
<stop offset="0.54" stop-color="#808080" stop-opacity="0.12"/>
<stop offset="1" stop-color="#808080" stop-opacity="0.1"/>
</linearGradient>
<linearGradient id="paint11_linear_8_5844" x1="138.103" y1="186.614" x2="138.103" y2="177.488" gradientUnits="userSpaceOnUse">
<stop stop-color="#808080" stop-opacity="0.25"/>
<stop offset="0.54" stop-color="#808080" stop-opacity="0.12"/>
<stop offset="1" stop-color="#808080" stop-opacity="0.1"/>
</linearGradient>
<linearGradient id="paint12_linear_8_5844" x1="120.66" y1="138.507" x2="120.66" y2="102.429" gradientUnits="userSpaceOnUse">
<stop stop-color="#808080" stop-opacity="0.25"/>
<stop offset="0.54" stop-color="#808080" stop-opacity="0.12"/>
<stop offset="1" stop-color="#808080" stop-opacity="0.1"/>
</linearGradient>
<linearGradient id="paint13_linear_8_5844" x1="41.5363" y1="105.334" x2="41.5363" y2="70.9143" gradientUnits="userSpaceOnUse">
<stop stop-color="#808080" stop-opacity="0.25"/>
<stop offset="0.54" stop-color="#808080" stop-opacity="0.12"/>
<stop offset="1" stop-color="#808080" stop-opacity="0.1"/>
</linearGradient>
<linearGradient id="paint14_linear_8_5844" x1="41.5363" y1="170.441" x2="41.5363" y2="136.021" gradientUnits="userSpaceOnUse">
<stop stop-color="#808080" stop-opacity="0.25"/>
<stop offset="0.54" stop-color="#808080" stop-opacity="0.12"/>
<stop offset="1" stop-color="#808080" stop-opacity="0.1"/>
</linearGradient>
</defs>
</svg>
