<svg width="310" height="223" viewBox="0 0 310 223" fill="none" xmlns="http://www.w3.org/2000/svg">
<path d="M155 222.962C240.604 222.962 310 214.514 310 204.092C310 193.67 240.604 185.222 155 185.222C69.3959 185.222 0 193.67 0 204.092C0 214.514 69.3959 222.962 155 222.962Z" fill="#F5F6FA"/>
<path d="M265.215 213.341C265.215 213.341 273.299 203.038 272.646 192.816C272.344 188.53 273.439 184.262 275.765 180.652C276.883 178.947 278.154 177.348 279.564 175.875" stroke="#535461" stroke-width="1.49333"/>
<path d="M279.19 169.431C278.62 170.862 279.554 176.045 279.554 176.045C279.554 176.045 283.793 172.929 284.363 171.498C284.932 170.068 284.236 168.446 282.808 167.876C281.38 167.305 279.761 168.001 279.19 169.431Z" fill="#2A46FF"/>
<path d="M271.757 175.648C272.055 177.159 275.651 181.002 275.651 181.002C275.651 181.002 277.519 176.078 277.221 174.567C277.029 173.589 276.33 172.789 275.388 172.467C274.446 172.146 273.405 172.352 272.656 173.008C271.907 173.664 271.564 174.67 271.757 175.648Z" fill="#2A46FF"/>
<path d="M266.549 189.266C267.567 190.42 272.608 191.919 272.608 191.919C272.608 191.919 271.74 186.725 270.721 185.571C270.062 184.824 269.055 184.486 268.08 184.685C267.105 184.883 266.309 185.587 265.993 186.533C265.677 187.478 265.889 188.52 266.549 189.266Z" fill="#2A46FF"/>
<path d="M264.924 200.459C265.734 201.769 270.45 204.1 270.45 204.1C270.45 204.1 270.47 198.833 269.66 197.523C269.137 196.675 268.201 196.171 267.206 196.202C266.212 196.232 265.309 196.792 264.838 197.671C264.367 198.549 264.4 199.612 264.924 200.459Z" fill="#2A46FF"/>
<path d="M280.972 183.449C279.55 184.037 274.365 183.162 274.365 183.162C274.365 183.162 277.426 178.88 278.848 178.292C280.27 177.705 281.898 178.383 282.484 179.807C283.071 181.231 282.394 182.862 280.972 183.449Z" fill="#2A46FF"/>
<path d="M278.907 196.515C277.374 196.65 272.688 194.261 272.688 194.261C272.688 194.261 276.888 191.092 278.42 190.958C279.412 190.87 280.375 191.319 280.947 192.135C281.518 192.952 281.611 194.012 281.19 194.916C280.769 195.819 279.899 196.429 278.907 196.515Z" fill="#2A46FF"/>
<path d="M275.159 208.939C273.672 209.331 268.65 207.77 268.65 207.77C268.65 207.77 272.255 203.936 273.743 203.544C275.23 203.152 276.753 204.042 277.144 205.532C277.536 207.022 276.647 208.547 275.159 208.939Z" fill="#2A46FF"/>
<path opacity="0.25" d="M279.19 169.431C278.62 170.862 279.554 176.045 279.554 176.045C279.554 176.045 283.793 172.929 284.363 171.498C284.932 170.068 284.236 168.446 282.808 167.876C281.38 167.305 279.761 168.001 279.19 169.431Z" fill="black"/>
<path opacity="0.25" d="M271.757 175.648C272.055 177.159 275.651 181.002 275.651 181.002C275.651 181.002 277.519 176.078 277.221 174.567C277.029 173.589 276.33 172.789 275.388 172.467C274.446 172.146 273.405 172.352 272.656 173.008C271.907 173.664 271.564 174.67 271.757 175.648Z" fill="black"/>
<path opacity="0.25" d="M266.549 189.266C267.567 190.42 272.608 191.919 272.608 191.919C272.608 191.919 271.74 186.725 270.721 185.571C270.062 184.824 269.055 184.486 268.08 184.685C267.105 184.883 266.309 185.587 265.993 186.533C265.677 187.478 265.889 188.52 266.549 189.266Z" fill="black"/>
<path opacity="0.25" d="M264.924 200.459C265.734 201.769 270.45 204.1 270.45 204.1C270.45 204.1 270.47 198.833 269.66 197.523C269.137 196.675 268.201 196.171 267.206 196.202C266.212 196.232 265.309 196.792 264.838 197.671C264.367 198.549 264.4 199.612 264.924 200.459Z" fill="black"/>
<path opacity="0.25" d="M280.972 183.449C279.55 184.037 274.365 183.162 274.365 183.162C274.365 183.162 277.426 178.88 278.848 178.292C280.27 177.705 281.898 178.383 282.484 179.807C283.071 181.231 282.394 182.862 280.972 183.449Z" fill="black"/>
<path opacity="0.25" d="M278.907 196.515C277.374 196.65 272.688 194.261 272.688 194.261C272.688 194.261 276.888 191.092 278.42 190.958C279.412 190.87 280.375 191.319 280.947 192.135C281.518 192.952 281.611 194.012 281.19 194.916C280.769 195.819 279.899 196.429 278.907 196.515Z" fill="black"/>
<path opacity="0.25" d="M275.159 208.939C273.672 209.331 268.65 207.77 268.65 207.77C268.65 207.77 272.255 203.936 273.743 203.544C275.23 203.152 276.753 204.042 277.144 205.532C277.536 207.022 276.647 208.547 275.159 208.939Z" fill="black"/>
<path d="M265.284 212.912C265.284 212.912 276.843 206.774 280.381 197.163C281.839 193.123 284.567 189.665 288.154 187.309C289.866 186.204 291.675 185.258 293.559 184.484" stroke="#535461" stroke-width="1.49333"/>
<path d="M295.825 178.441C294.725 179.517 293.482 184.635 293.482 184.635C293.482 184.635 298.618 183.507 299.718 182.43C300.818 181.353 300.838 179.587 299.763 178.486C298.688 177.384 296.925 177.364 295.825 178.441Z" fill="#2A46FF"/>
<path d="M286.514 181.107C286.175 182.61 287.908 187.582 287.908 187.582C287.908 187.582 291.608 183.84 291.947 182.337C292.167 181.365 291.851 180.35 291.121 179.674C290.39 178.997 289.354 178.763 288.404 179.059C287.454 179.354 286.734 180.135 286.514 181.107Z" fill="#2A46FF"/>
<path d="M276.243 191.444C276.707 192.912 280.71 196.328 280.71 196.328C280.71 196.328 282.017 191.227 281.552 189.758C281.252 188.808 280.468 188.091 279.496 187.877C278.525 187.663 277.513 187.984 276.842 188.72C276.17 189.455 275.942 190.494 276.243 191.444Z" fill="#2A46FF"/>
<path d="M270.229 201.017C270.44 202.543 273.808 206.588 273.808 206.588C273.808 206.588 275.957 201.781 275.747 200.255C275.611 199.268 274.96 198.428 274.038 198.053C273.116 197.677 272.065 197.822 271.279 198.434C270.494 199.045 270.093 200.03 270.229 201.017Z" fill="#2A46FF"/>
<path d="M291.783 191.98C290.245 191.94 285.859 189.035 285.859 189.035C285.859 189.035 290.39 186.363 291.927 186.403C293.465 186.443 294.679 187.724 294.639 189.264C294.599 190.804 293.32 192.02 291.783 191.98Z" fill="#2A46FF"/>
<path d="M284.608 203.087C283.153 202.588 279.835 198.502 279.835 198.502C279.835 198.502 284.957 197.31 286.412 197.809C287.867 198.308 288.643 199.894 288.145 201.351C287.647 202.809 286.063 203.586 284.608 203.087V203.087Z" fill="#2A46FF"/>
<path d="M276.156 212.924C274.637 212.678 270.678 209.213 270.678 209.213C270.678 209.213 275.525 207.171 277.043 207.416C278.562 207.662 279.594 209.094 279.349 210.614C279.104 212.135 277.674 213.169 276.156 212.924Z" fill="#2A46FF"/>
<path d="M176.666 26.4053C161.35 25.8727 146.763 20.9203 132.833 15.502C118.903 10.0837 105.106 4.08063 90.1563 1.20957C80.5411 -0.637052 69.5453 -0.898323 61.7979 4.26514C54.3426 9.23393 51.9336 17.8111 50.6384 25.7696C49.664 31.7574 49.0911 38.0592 51.7611 43.6648C53.6147 47.5565 56.9061 50.8279 59.1821 54.5555C67.102 67.5263 61.5042 83.5209 52.9214 96.1857C48.8954 102.127 44.2257 107.794 41.119 114.118C38.0123 120.443 36.5751 127.689 39.2932 134.14C41.9873 140.535 48.4076 145.338 55.3624 148.716C69.4877 155.577 86.1329 157.541 102.364 158.653C138.294 161.115 174.416 160.049 210.441 158.981C223.773 158.586 237.164 158.186 250.279 156.121C257.562 154.974 265.082 153.154 270.37 148.761C277.082 143.183 278.746 133.739 274.248 126.746C266.703 115.015 245.843 112.101 240.57 99.5119C237.667 92.5822 240.648 84.8634 244.866 78.4366C253.915 64.6498 269.083 52.5547 269.882 36.7961C270.431 25.9729 263.139 15.1338 251.865 10.0129C240.048 4.64515 223.661 5.32035 214.943 14.2057C205.966 23.3552 190.19 26.8756 176.666 26.4053Z" fill="#F5F6FA"/>
<path d="M150.442 195.628C156.194 195.628 160.856 190.671 160.856 184.557C160.856 178.442 156.194 173.485 150.442 173.485C144.691 173.485 140.029 178.442 140.029 184.557C140.029 190.671 144.691 195.628 150.442 195.628Z" fill="#FBD56F"/>
<path opacity="0.1" d="M150.442 195.628C156.194 195.628 160.856 190.671 160.856 184.557C160.856 178.442 156.194 173.485 150.442 173.485C144.691 173.485 140.029 178.442 140.029 184.557C140.029 190.671 144.691 195.628 150.442 195.628Z" fill="black"/>
<path d="M152.24 195.628C157.991 195.628 162.653 190.782 162.653 184.803C162.653 178.825 157.991 173.978 152.24 173.978C146.488 173.978 141.826 178.825 141.826 184.803C141.826 190.782 146.488 195.628 152.24 195.628Z" fill="#FBD56F"/>
<path d="M156.458 194.613L155.374 194.009C155.374 194.009 154.868 196.127 155.033 197.636C155.067 197.949 155.292 198.209 155.597 198.285C158.089 198.905 169.966 201.546 178.133 197.826C178.374 197.716 178.539 197.487 178.567 197.223C178.668 196.296 178.313 194.382 178.171 194.009C177.867 193.207 156.458 194.613 156.458 194.613Z" fill="#FBD56F"/>
<path opacity="0.1" d="M156.458 194.613L155.374 194.009C155.374 194.009 154.868 196.127 155.033 197.636C155.067 197.949 155.292 198.209 155.597 198.285C158.089 198.905 169.966 201.546 178.133 197.826C178.374 197.716 178.539 197.487 178.567 197.223C178.668 196.296 178.313 194.382 178.171 194.009C177.867 193.207 156.458 194.613 156.458 194.613Z" fill="black"/>
<path d="M166.773 196.582C173.068 196.582 178.171 195.43 178.171 194.009C178.171 192.588 173.068 191.436 166.773 191.436C160.478 191.436 155.374 192.588 155.374 194.009C155.374 195.43 160.478 196.582 166.773 196.582Z" fill="#FBD56F"/>
<path d="M160.812 190.816L159.729 190.212C159.729 190.212 159.223 192.33 159.388 193.839C159.422 194.152 159.647 194.412 159.952 194.488C162.444 195.108 174.321 197.749 182.488 194.029C182.729 193.919 182.894 193.69 182.922 193.426C183.022 192.499 182.668 190.585 182.526 190.212C182.222 189.41 160.812 190.816 160.812 190.816Z" fill="#FBD56F"/>
<path opacity="0.1" d="M160.812 190.816L159.729 190.212C159.729 190.212 159.223 192.33 159.388 193.839C159.422 194.152 159.647 194.412 159.952 194.488C162.444 195.108 174.321 197.749 182.488 194.029C182.729 193.919 182.894 193.69 182.922 193.426C183.022 192.499 182.668 190.585 182.526 190.212C182.222 189.41 160.812 190.816 160.812 190.816Z" fill="black"/>
<path d="M171.128 192.786C177.423 192.786 182.526 191.633 182.526 190.212C182.526 188.791 177.423 187.639 171.128 187.639C164.833 187.639 159.729 188.791 159.729 190.212C159.729 191.633 164.833 192.786 171.128 192.786Z" fill="#FBD56F"/>
<path d="M164.662 185.826L163.579 185.222C163.579 185.222 163.072 187.339 163.238 188.849C163.272 189.162 163.497 189.421 163.802 189.498C166.294 190.118 178.171 192.759 186.338 189.039C186.579 188.929 186.744 188.7 186.772 188.436C186.872 187.508 186.518 185.595 186.376 185.222C186.072 184.419 164.662 185.826 164.662 185.826Z" fill="#FBD56F"/>
<path opacity="0.1" d="M164.662 185.826L163.579 185.222C163.579 185.222 163.072 187.339 163.238 188.849C163.272 189.162 163.497 189.421 163.802 189.498C166.294 190.118 178.171 192.759 186.338 189.039C186.579 188.929 186.744 188.7 186.772 188.436C186.872 187.508 186.518 185.595 186.376 185.222C186.072 184.419 164.662 185.826 164.662 185.826Z" fill="black"/>
<path d="M174.978 187.795C181.273 187.795 186.376 186.643 186.376 185.222C186.376 183.8 181.273 182.648 174.978 182.648C168.682 182.648 163.579 183.8 163.579 185.222C163.579 186.643 168.682 187.795 174.978 187.795Z" fill="#FBD56F"/>
<path d="M160.399 180.631L159.316 180.027C159.316 180.027 158.809 182.145 158.975 183.654C159.008 183.967 159.233 184.227 159.539 184.303C162.031 184.923 173.907 187.564 182.075 183.844C182.316 183.734 182.481 183.505 182.509 183.241C182.609 182.314 182.254 180.4 182.113 180.027C181.808 179.224 160.399 180.631 160.399 180.631Z" fill="#FBD56F"/>
<path opacity="0.1" d="M160.399 180.631L159.316 180.027C159.316 180.027 158.809 182.145 158.975 183.654C159.008 183.967 159.233 184.227 159.539 184.303C162.031 184.923 173.907 187.564 182.075 183.844C182.316 183.734 182.481 183.505 182.509 183.241C182.609 182.314 182.254 180.4 182.113 180.027C181.808 179.224 160.399 180.631 160.399 180.631Z" fill="black"/>
<path d="M170.714 182.6C177.009 182.6 182.113 181.448 182.113 180.027C182.113 178.605 177.009 177.453 170.714 177.453C164.419 177.453 159.316 178.605 159.316 180.027C159.316 181.448 164.419 182.6 170.714 182.6Z" fill="#FBD56F"/>
<path d="M169.99 176.462L168.907 175.858C168.907 175.858 168.4 177.976 168.566 179.485C168.599 179.798 168.825 180.058 169.13 180.134C171.622 180.754 183.499 183.395 191.666 179.675C191.907 179.565 192.072 179.336 192.1 179.072C192.2 178.145 191.846 176.231 191.704 175.858C191.399 175.055 169.99 176.462 169.99 176.462Z" fill="#FBD56F"/>
<path opacity="0.1" d="M169.99 176.462L168.907 175.858C168.907 175.858 168.4 177.976 168.566 179.485C168.599 179.798 168.825 180.058 169.13 180.134C171.622 180.754 183.499 183.395 191.666 179.675C191.907 179.565 192.072 179.336 192.1 179.072C192.2 178.145 191.846 176.231 191.704 175.858C191.399 175.055 169.99 176.462 169.99 176.462Z" fill="black"/>
<path d="M180.306 178.431C186.601 178.431 191.704 177.279 191.704 175.858C191.704 174.436 186.601 173.284 180.306 173.284C174.01 173.284 168.907 174.436 168.907 175.858C168.907 177.279 174.01 178.431 180.306 178.431Z" fill="#FBD56F"/>
<path d="M163.51 173.66L162.427 173.056C162.427 173.056 161.92 175.173 162.086 176.683C162.119 176.996 162.344 177.255 162.65 177.332C165.142 177.952 177.018 180.593 185.186 176.873C185.427 176.763 185.592 176.534 185.62 176.27C185.72 175.342 185.365 173.429 185.224 173.056C184.919 172.253 163.51 173.66 163.51 173.66Z" fill="#FBD56F"/>
<path opacity="0.1" d="M163.51 173.66L162.427 173.056C162.427 173.056 161.92 175.173 162.086 176.683C162.119 176.996 162.344 177.255 162.65 177.332C165.142 177.952 177.018 180.593 185.186 176.873C185.427 176.763 185.592 176.534 185.62 176.27C185.72 175.342 185.365 173.429 185.224 173.056C184.919 172.253 163.51 173.66 163.51 173.66Z" fill="black"/>
<path d="M173.825 175.629C180.12 175.629 185.224 174.477 185.224 173.056C185.224 171.634 180.12 170.482 173.825 170.482C167.53 170.482 162.427 171.634 162.427 173.056C162.427 174.477 167.53 175.629 173.825 175.629Z" fill="#FBD56F"/>
<path d="M167.836 168.25L166.753 167.646C166.753 167.646 166.247 169.764 166.412 171.273C166.446 171.587 166.671 171.846 166.976 171.922C169.468 172.542 181.345 175.183 189.512 171.464C189.753 171.353 189.918 171.124 189.946 170.86C190.047 169.933 189.692 168.019 189.55 167.646C189.246 166.844 167.836 168.25 167.836 168.25Z" fill="#FBD56F"/>
<path opacity="0.1" d="M167.836 168.25L166.753 167.646C166.753 167.646 166.247 169.764 166.412 171.273C166.446 171.587 166.671 171.846 166.976 171.922C169.468 172.542 181.345 175.183 189.512 171.464C189.753 171.353 189.918 171.124 189.946 170.86C190.047 169.933 189.692 168.019 189.55 167.646C189.246 166.844 167.836 168.25 167.836 168.25Z" fill="black"/>
<path d="M178.152 170.22C184.447 170.22 189.55 169.067 189.55 167.646C189.55 166.225 184.447 165.073 178.152 165.073C171.856 165.073 166.753 166.225 166.753 167.646C166.753 169.067 171.856 170.22 178.152 170.22Z" fill="#FBD56F"/>
<path d="M169.971 161.829L168.887 161.225C168.887 161.225 168.381 163.343 168.546 164.852C168.58 165.166 168.805 165.425 169.11 165.502C171.602 166.121 183.479 168.762 191.646 165.043C191.887 164.932 192.052 164.703 192.081 164.439C192.181 163.512 191.826 161.598 191.685 161.225C191.38 160.423 169.971 161.829 169.971 161.829Z" fill="#FBD56F"/>
<path opacity="0.1" d="M169.971 161.829L168.887 161.225C168.887 161.225 168.381 163.343 168.546 164.852C168.58 165.166 168.805 165.425 169.11 165.502C171.602 166.121 183.479 168.762 191.646 165.043C191.887 164.932 192.052 164.703 192.081 164.439C192.181 163.512 191.826 161.598 191.685 161.225C191.38 160.423 169.971 161.829 169.971 161.829Z" fill="black"/>
<path d="M180.286 163.799C186.581 163.799 191.685 162.646 191.685 161.225C191.685 159.804 186.581 158.652 180.286 158.652C173.991 158.652 168.887 159.804 168.887 161.225C168.887 162.646 173.991 163.799 180.286 163.799Z" fill="#FBD56F"/>
<path d="M189.212 196.102L188.129 195.498C188.129 195.498 187.623 197.616 187.788 199.125C187.822 199.439 188.047 199.698 188.352 199.775C190.844 200.394 202.721 203.035 210.888 199.316C211.129 199.205 211.294 198.976 211.322 198.712C211.423 197.785 211.068 195.871 210.926 195.498C210.622 194.696 189.212 196.102 189.212 196.102Z" fill="#FBD56F"/>
<path opacity="0.1" d="M189.212 196.102L188.129 195.498C188.129 195.498 187.623 197.616 187.788 199.125C187.822 199.439 188.047 199.698 188.352 199.775C190.844 200.394 202.721 203.035 210.888 199.316C211.129 199.205 211.294 198.976 211.322 198.712C211.423 197.785 211.068 195.871 210.926 195.498C210.622 194.696 189.212 196.102 189.212 196.102Z" fill="black"/>
<path d="M199.528 198.072C205.823 198.072 210.926 196.92 210.926 195.498C210.926 194.077 205.823 192.925 199.528 192.925C193.233 192.925 188.129 194.077 188.129 195.498C188.129 196.92 193.233 198.072 199.528 198.072Z" fill="#FBD56F"/>
<path d="M193.062 191.112L191.979 190.508C191.979 190.508 191.472 192.626 191.638 194.135C191.672 194.448 191.897 194.708 192.202 194.784C194.694 195.404 206.571 198.045 214.738 194.325C214.979 194.215 215.144 193.986 215.172 193.722C215.273 192.795 214.918 190.881 214.776 190.508C214.472 189.705 193.062 191.112 193.062 191.112Z" fill="#FBD56F"/>
<path opacity="0.1" d="M193.062 191.112L191.979 190.508C191.979 190.508 191.472 192.626 191.638 194.135C191.672 194.448 191.897 194.708 192.202 194.784C194.694 195.404 206.571 198.045 214.738 194.325C214.979 194.215 215.144 193.986 215.172 193.722C215.273 192.795 214.918 190.881 214.776 190.508C214.472 189.705 193.062 191.112 193.062 191.112Z" fill="black"/>
<path d="M203.378 193.081C209.673 193.081 214.776 191.929 214.776 190.508C214.776 189.087 209.673 187.934 203.378 187.934C197.082 187.934 191.979 189.087 191.979 190.508C191.979 191.929 197.082 193.081 203.378 193.081Z" fill="#FBD56F"/>
<path d="M188.799 185.917L187.716 185.313C187.716 185.313 187.209 187.431 187.375 188.94C187.408 189.253 187.633 189.513 187.939 189.589C190.431 190.209 202.307 192.85 210.475 189.13C210.716 189.02 210.881 188.791 210.909 188.527C211.009 187.6 210.654 185.686 210.513 185.313C210.208 184.51 188.799 185.917 188.799 185.917Z" fill="#FBD56F"/>
<path opacity="0.1" d="M188.799 185.917L187.716 185.313C187.716 185.313 187.209 187.431 187.375 188.94C187.408 189.253 187.633 189.513 187.939 189.589C190.431 190.209 202.307 192.85 210.475 189.13C210.716 189.02 210.881 188.791 210.909 188.527C211.009 187.6 210.654 185.686 210.513 185.313C210.208 184.51 188.799 185.917 188.799 185.917Z" fill="black"/>
<path d="M199.114 187.886C205.409 187.886 210.513 186.734 210.513 185.313C210.513 183.892 205.409 182.739 199.114 182.739C192.819 182.739 187.716 183.892 187.716 185.313C187.716 186.734 192.819 187.886 199.114 187.886Z" fill="#FBD56F"/>
<path d="M198.39 181.748L197.307 181.144C197.307 181.144 196.8 183.262 196.966 184.771C196.999 185.084 197.225 185.344 197.53 185.42C200.022 186.04 211.899 188.681 220.066 184.961C220.307 184.851 220.472 184.622 220.5 184.358C220.6 183.431 220.246 181.517 220.104 181.144C219.8 180.341 198.39 181.748 198.39 181.748Z" fill="#FBD56F"/>
<path opacity="0.1" d="M198.39 181.748L197.307 181.144C197.307 181.144 196.8 183.262 196.966 184.771C196.999 185.084 197.225 185.344 197.53 185.42C200.022 186.04 211.899 188.681 220.066 184.961C220.307 184.851 220.472 184.622 220.5 184.358C220.6 183.431 220.246 181.517 220.104 181.144C219.8 180.341 198.39 181.748 198.39 181.748Z" fill="black"/>
<path d="M208.706 183.717C215.001 183.717 220.104 182.565 220.104 181.144C220.104 179.723 215.001 178.57 208.706 178.57C202.41 178.57 197.307 179.723 197.307 181.144C197.307 182.565 202.41 183.717 208.706 183.717Z" fill="#FBD56F"/>
<path d="M191.91 178.946L190.827 178.342C190.827 178.342 190.32 180.46 190.486 181.969C190.519 182.282 190.744 182.542 191.05 182.618C193.542 183.238 205.419 185.879 213.586 182.159C213.827 182.049 213.992 181.82 214.02 181.556C214.12 180.629 213.765 178.715 213.624 178.342C213.319 177.539 191.91 178.946 191.91 178.946Z" fill="#FBD56F"/>
<path opacity="0.1" d="M191.91 178.946L190.827 178.342C190.827 178.342 190.32 180.46 190.486 181.969C190.519 182.282 190.744 182.542 191.05 182.618C193.542 183.238 205.419 185.879 213.586 182.159C213.827 182.049 213.992 181.82 214.02 181.556C214.12 180.629 213.765 178.715 213.624 178.342C213.319 177.539 191.91 178.946 191.91 178.946Z" fill="black"/>
<path d="M202.225 180.915C208.52 180.915 213.624 179.763 213.624 178.342C213.624 176.921 208.52 175.768 202.225 175.768C195.93 175.768 190.827 176.921 190.827 178.342C190.827 179.763 195.93 180.915 202.225 180.915Z" fill="#FBD56F"/>
<path d="M196.236 173.536L195.153 172.932C195.153 172.932 194.647 175.05 194.812 176.559C194.846 176.873 195.071 177.132 195.376 177.209C197.868 177.828 209.745 180.469 217.912 176.75C218.153 176.64 218.318 176.41 218.346 176.147C218.447 175.219 218.092 173.305 217.95 172.932C217.646 172.13 196.236 173.536 196.236 173.536Z" fill="#FBD56F"/>
<path opacity="0.1" d="M196.236 173.536L195.153 172.932C195.153 172.932 194.647 175.05 194.812 176.559C194.846 176.873 195.071 177.132 195.376 177.209C197.868 177.828 209.745 180.469 217.912 176.75C218.153 176.64 218.318 176.41 218.346 176.147C218.447 175.219 218.092 173.305 217.95 172.932C217.646 172.13 196.236 173.536 196.236 173.536Z" fill="black"/>
<path d="M206.552 175.506C212.847 175.506 217.95 174.354 217.95 172.932C217.95 171.511 212.847 170.359 206.552 170.359C200.257 170.359 195.153 171.511 195.153 172.932C195.153 174.354 200.257 175.506 206.552 175.506Z" fill="#FBD56F"/>
<path d="M198.371 167.115L197.287 166.511C197.287 166.511 196.781 168.629 196.946 170.138C196.98 170.452 197.205 170.711 197.51 170.788C200.002 171.407 211.879 174.048 220.046 170.329C220.287 170.219 220.452 169.989 220.481 169.726C220.581 168.798 220.226 166.884 220.085 166.511C219.78 165.709 198.371 167.115 198.371 167.115Z" fill="#FBD56F"/>
<path opacity="0.1" d="M198.371 167.115L197.287 166.511C197.287 166.511 196.781 168.629 196.946 170.138C196.98 170.452 197.205 170.711 197.51 170.788C200.002 171.407 211.879 174.048 220.046 170.329C220.287 170.219 220.452 169.989 220.481 169.726C220.581 168.798 220.226 166.884 220.085 166.511C219.78 165.709 198.371 167.115 198.371 167.115Z" fill="black"/>
<path d="M208.686 169.085C214.981 169.085 220.085 167.933 220.085 166.511C220.085 165.09 214.981 163.938 208.686 163.938C202.391 163.938 197.287 165.09 197.287 166.511C197.287 167.933 202.391 169.085 208.686 169.085Z" fill="#FBD56F"/>
<path d="M267.075 211.249C265.488 211.193 265.431 210.577 263.391 209.513C262.24 208.912 260.491 207.168 259.188 205.765C259.083 205.652 258.982 205.542 258.884 205.435C259.229 205.428 259.425 205.424 259.425 205.424C259.425 205.424 258.915 200.944 259.368 199.88C259.821 198.815 259.481 192.487 259.481 192.487C259.481 192.487 259.765 187.67 259.255 186.55C258.745 185.43 259.425 178.261 259.425 178.261C259.425 178.261 259.878 174.005 259.991 165.324C260.105 156.643 255.005 156.363 255.005 156.363C255.005 156.363 254.325 156.31 253.292 156.212C253.193 156.202 253.088 156.192 252.983 156.182C253.651 154.78 254.041 153.731 254.041 153.731C254.041 153.731 253.191 145.61 252.965 144.21C252.738 142.809 251.378 137.041 251.378 137.041C251.378 137.041 250.415 134.577 249.848 132.84C249.281 131.104 247.581 129.088 247.581 129.088C247.581 129.088 244.521 123.039 243.671 122.143C243.277 121.728 242.724 121.203 242.245 120.761C242.158 120.681 242.076 120.605 241.995 120.532C242.123 119.901 242.191 119.259 242.198 118.615C242.198 118.615 239.025 115.479 238.798 114.694C238.571 113.91 235.568 110.998 235.568 110.998C235.568 110.998 233.868 107.862 231.942 107.806C231.031 107.754 230.118 107.782 229.213 107.889C229.608 106.422 230.076 104.885 230.497 103.566C230.543 103.419 230.589 103.276 230.635 103.135C232.174 102.092 233.383 100.628 234.116 98.9175C234.156 98.8265 234.192 98.7346 234.229 98.6427C234.249 98.6432 234.269 98.6465 234.29 98.6462C234.37 98.6453 234.449 98.6381 234.528 98.6246C235.162 98.5155 235.699 97.7981 235.407 97.2319C235.445 97.297 235.516 97.336 235.592 97.3336C235.803 97.3266 236.061 97.0203 236.11 96.7508C236.119 96.7041 236.124 96.6568 236.131 96.6098C236.14 96.5514 236.15 96.493 236.156 96.4342C236.163 96.379 236.167 96.3237 236.172 96.2683C236.177 96.2111 236.181 96.154 236.184 96.0968C236.187 96.0432 236.188 95.9896 236.189 95.936C236.19 95.8742 236.19 95.8126 236.189 95.7509C236.188 95.7015 236.187 95.6522 236.185 95.6028C236.182 95.5278 236.175 95.4529 236.168 95.378C236.166 95.3473 236.165 95.3164 236.162 95.2858L236.161 95.2902C236.128 94.9842 236.067 94.6818 235.978 94.387C235.665 93.346 235.008 92.3136 235.261 91.2567C235.264 91.2453 235.269 91.235 235.272 91.2237L235.273 91.2257C235.483 90.4056 236.192 89.8097 236.626 89.0769C236.667 89.007 236.703 88.9349 236.739 88.8626C236.746 88.8494 236.753 88.8367 236.76 88.8234C236.786 88.7689 236.808 88.7129 236.831 88.6573C236.846 88.6215 236.862 88.5863 236.875 88.5501C236.894 88.5012 236.909 88.4515 236.925 88.4019C236.939 88.3568 236.955 88.312 236.967 88.2663C236.98 88.2224 236.989 88.178 237 88.1336C237.013 88.0802 237.025 88.0268 237.035 87.9728C237.043 87.9341 237.048 87.8952 237.054 87.8562C237.064 87.795 237.073 87.7338 237.079 87.6722C237.083 87.6388 237.085 87.6054 237.088 87.5719C237.093 87.5031 237.097 87.4343 237.099 87.3652C237.1 87.3376 237.1 87.31 237.1 87.2823C237.1 87.2068 237.098 87.1313 237.094 87.0559C237.093 87.0332 237.092 87.0106 237.09 86.9879C237.084 86.9075 237.076 86.8273 237.066 86.7472C237.064 86.7357 237.064 86.724 237.062 86.7124L237.061 86.7156C236.965 86.0118 236.685 85.3459 236.25 84.7852C235.244 83.5859 233.732 82.9312 232.171 83.0183C231.745 83.0664 231.316 83.0743 230.888 83.0419C230.177 82.9375 229.575 82.4849 229.008 82.0475C227.426 80.8268 225.844 79.6062 224.262 78.3855C223.733 77.9247 223.125 77.5628 222.468 77.3172C221.797 77.1116 220.993 77.1825 220.496 77.6733C219.608 78.5518 220.173 80.0634 219.816 81.2544C219.507 82.2861 218.512 82.9852 217.482 83.3336C216.452 83.6821 215.35 83.7586 214.292 84.0108C213.977 84.0619 213.682 84.1977 213.439 84.4037C213.165 84.7369 213.031 85.1642 213.068 85.5944C213.061 86.6493 213.314 87.6894 213.804 88.623C214.005 89.0034 214.247 89.3877 214.46 89.7774C214.477 89.8096 214.494 89.8419 214.512 89.8741C214.535 89.9188 214.559 89.9635 214.582 90.0084C214.619 90.0812 214.654 90.1542 214.687 90.2275C214.702 90.2591 214.715 90.2909 214.728 90.3226C214.75 90.3744 214.772 90.4264 214.792 90.4784C214.804 90.5116 214.817 90.5448 214.828 90.578C214.85 90.6393 214.869 90.7008 214.886 90.7624C214.999 91.1246 215.01 91.5112 214.917 91.8791C214.754 92.4811 214.285 92.9449 213.871 93.4152C213.533 93.7827 213.293 94.229 213.172 94.7135L213.17 94.7242C213.146 94.8369 213.142 94.9525 213.157 95.0666C213.159 95.0808 213.16 95.0951 213.163 95.1088C213.169 95.1342 213.176 95.1593 213.184 95.1838C213.191 95.2016 213.198 95.219 213.206 95.2359C213.215 95.2559 213.225 95.2753 213.236 95.2939C213.256 95.3252 213.28 95.3538 213.308 95.3791C213.321 95.3896 213.334 95.3995 213.348 95.4086C213.371 95.4257 213.395 95.4406 213.42 95.4534C213.436 95.461 213.452 95.4683 213.469 95.4748C213.506 95.4888 213.545 95.4994 213.585 95.5065C213.596 95.5086 213.605 95.5121 213.617 95.5137C213.678 95.5215 213.739 95.5241 213.799 95.5215C213.817 95.5209 213.836 95.5187 213.854 95.5174C213.913 95.513 213.971 95.5056 214.029 95.4953C214.05 95.4916 214.07 95.4883 214.092 95.4837C214.176 95.4665 214.264 95.4452 214.36 95.4152C214.678 95.3189 214.988 95.1963 215.286 95.0486C215.285 95.0827 215.283 95.1164 215.283 95.1506C215.283 95.2094 215.283 95.271 215.289 95.3298C215.305 96.4281 215.512 97.5152 215.901 98.5422C216.508 100.143 217.528 101.554 218.856 102.632C218.839 102.728 218.821 102.826 218.802 102.923C218.529 104.266 217.957 105.614 217.605 105.509C217.26 105.432 216.908 105.394 216.554 105.394C216.447 105.391 216.344 105.389 216.245 105.389L216.245 105.388C215.925 105.351 215.602 105.351 215.282 105.388C215.139 105.398 214.995 105.378 214.86 105.33C213.945 105.041 212.971 104.987 212.029 105.171C210.07 105.573 207.089 106.309 206.272 107.19C205.025 108.534 203.212 109.822 201.172 115.423C201.172 115.423 200.152 118.839 199.359 119.287C199.533 119.196 199.713 119.115 199.897 119.045C199.791 119.23 199.646 119.389 199.472 119.511C199.759 119.364 200.058 119.239 200.364 119.138C199.745 122.787 200.662 133.225 200.662 133.225C200.662 133.225 199.925 135.025 200.889 136.089C201.461 136.721 201.772 137.707 201.931 138.405C201.886 138.475 201.84 138.548 201.792 138.622V138.624C201.282 139.415 200.6 140.448 200.152 141.017C199.359 142.025 199.585 145.218 199.585 145.218C199.585 145.218 199.415 146.73 198.849 147.29C198.282 147.85 198.395 149.922 198.395 149.922L196.922 155.355C196.922 155.355 195.562 156.587 195.562 157.147C195.562 157.707 194.485 159.275 194.485 159.275C194.485 159.275 192.842 161.964 194.485 161.571C195.084 161.396 195.646 161.113 196.144 160.736L196.144 160.776C196.141 160.875 196.139 160.975 196.138 161.076C196.091 164.004 196.41 168.124 198.565 168.124C201.908 168.124 210.522 172.101 210.522 172.101C212.278 173.445 214.658 172.997 214.658 172.997C214.658 172.997 210.465 177.197 210.578 178.933C210.692 180.67 208.198 183.526 208.198 183.526L200.492 198.591C200.535 199.641 200.721 200.68 201.044 201.679C201.008 201.711 200.97 201.742 200.934 201.775C197.973 204.484 197.715 209.849 197.715 209.849L197.035 212.593L207.348 217.129C207.348 217.129 220.722 217.409 223.045 216.793C225.368 216.177 224.858 213.601 221.798 213.097C218.738 212.593 218.002 211.249 216.982 210.633C216.294 210.217 213.85 207.531 212.334 205.829C212.311 205.802 212.29 205.779 212.267 205.753L212.618 203.8C213.298 203.464 214.318 200.104 214.318 200.104C214.318 200.104 214.318 198.759 214.998 198.367C215.678 197.975 217.095 193.943 217.095 193.943C217.095 193.943 220.155 188.846 219.985 188.174C219.815 187.502 222.195 184.086 222.195 184.086C222.195 184.086 226.218 180.165 226.048 179.465C225.878 178.765 229.278 175.181 229.278 175.181C230.507 174.242 231.531 173.061 232.287 171.711C232.593 171.661 232.922 171.609 233.269 171.551C237.718 170.82 245.112 169.5 245.938 169.132C247.071 168.628 246.845 170.868 246.391 172.773C245.938 174.677 245.598 183.806 246.108 184.982C246.618 186.158 246.391 188.062 246.391 188.062L245.711 198.311L246.165 200.496C246.165 200.496 244.635 201.728 245.258 202.456C245.881 203.184 245.315 206.32 245.315 206.32C245.368 206.3 245.432 206.281 245.503 206.262C245.448 206.385 245.396 206.511 245.35 206.644C244.472 209.152 244.975 213.265 244.975 213.265V216.513C244.975 216.513 260.671 216.793 264.128 216.793C267.585 216.793 272.344 215.113 272.628 213.769C272.911 212.425 268.661 211.305 267.075 211.249ZM222.43 152.944L221.402 153.031C221.743 152.981 222.086 152.952 222.43 152.944ZM228.699 109.956C228.843 109.308 229.018 108.611 229.211 107.896L228.699 109.956ZM230.638 154.515C229.658 154.903 228.566 154.905 227.585 154.518L227.578 154.515C227.578 154.515 227.635 150.594 228.088 148.97C228.542 147.346 229.165 144.378 229.165 144.378C229.165 144.378 229.675 140.289 230.185 138.441C230.695 136.593 232.678 126.288 233.698 125.616C234.718 124.943 235.285 126.12 235.285 126.12C235.285 126.12 235.437 126.117 235.693 126.088C235.74 126.196 235.795 126.31 235.855 126.431C237.064 128.879 240.611 133.904 240.611 133.904C241.664 134.555 242.555 135.436 243.218 136.481C244.181 138.105 244.465 141.913 244.465 141.913C244.465 141.913 246.618 150.37 247.638 151.546C248.148 152.134 247.921 152.485 247.568 152.688C246.845 153.084 246.231 153.652 245.779 154.342C245.634 154.573 245.481 154.826 245.325 155.096C244.935 155.006 244.586 154.912 244.295 154.814C241.518 153.88 232.168 153.843 230.638 154.515V154.515Z" fill="url(#paint0_linear_8_6003)"/>
<path d="M244.603 213.298V216.519C244.603 216.519 259.962 216.797 263.345 216.797C266.727 216.797 271.385 215.131 271.662 213.798C271.939 212.465 267.78 211.354 266.228 211.298C264.675 211.243 264.62 210.632 262.624 209.577C261.497 208.981 259.786 207.252 258.511 205.86C257.527 204.786 256.802 203.912 256.802 203.912C256.802 203.912 248.54 203.745 246.156 205.078C245.607 205.386 245.227 205.988 244.97 206.732C244.111 209.219 244.603 213.298 244.603 213.298Z" fill="#434175"/>
<path opacity="0.1" d="M244.97 206.732C246.702 206.129 256.844 205.895 258.511 205.86C257.527 204.786 256.802 203.912 256.802 203.912C256.802 203.912 248.54 203.745 246.155 205.078C245.607 205.386 245.227 205.988 244.97 206.732Z" fill="black"/>
<path d="M200.41 155.372C200.41 155.372 200.731 155.567 201.306 155.915C201.411 155.977 201.523 156.046 201.642 156.118C202.007 156.339 202.445 156.602 202.945 156.904C209.914 161.111 228.924 172.513 229.964 172.422C230.237 172.399 231.057 172.276 232.188 172.091C232.487 172.043 232.809 171.99 233.148 171.933C237.502 171.208 244.737 169.899 245.546 169.534C246.654 169.035 246.433 171.256 245.989 173.144C245.546 175.033 245.213 184.085 245.712 185.252C246.211 186.418 245.989 188.306 245.989 188.306L245.324 198.469L245.767 200.635C245.767 200.635 244.27 201.857 244.88 202.579C245.49 203.301 244.936 206.411 244.936 206.411C246.71 205.745 258.742 205.523 258.742 205.523C258.742 205.523 258.243 201.08 258.687 200.024C259.13 198.969 258.798 192.694 258.798 192.694C258.798 192.694 259.075 187.917 258.576 186.807C258.077 185.696 258.742 178.587 258.742 178.587C258.742 178.587 259.186 174.366 259.297 165.758C259.408 157.15 254.417 156.872 254.417 156.872C254.417 156.872 253.752 156.82 252.742 156.722C250.765 156.532 247.472 156.169 245.272 155.69C244.821 155.597 244.375 155.479 243.938 155.336C241.221 154.409 232.071 154.373 230.574 155.039C229.616 155.425 228.546 155.426 227.587 155.043L227.58 155.039L226.416 153.151L215.294 154.101L214.115 154.202L203.166 155.137L202.413 155.201L200.41 155.372Z" fill="#565387"/>
<path opacity="0.1" d="M244.991 163.892C248.222 165.469 251.304 159.878 252.742 156.722C250.765 156.532 247.472 156.169 245.272 155.69C243.824 158.123 241.894 162.38 244.991 163.892Z" fill="black"/>
<path d="M235.288 126.104C235.355 126.486 235.487 126.854 235.679 127.191C236.862 129.618 240.333 134.602 240.333 134.602C241.366 135.249 242.238 136.122 242.884 137.156C243.827 138.767 244.104 142.543 244.104 142.543C244.104 142.543 246.211 150.929 247.209 152.096C247.708 152.679 247.486 153.027 247.14 153.228C246.431 153.622 245.83 154.186 245.39 154.868C243.936 157.21 241.615 161.854 244.88 163.448C249.316 165.614 253.475 154.262 253.475 154.262C253.475 154.262 252.643 146.209 252.421 144.82C252.199 143.432 250.869 137.712 250.869 137.712C250.869 137.712 249.926 135.268 249.371 133.546C248.817 131.825 247.154 129.825 247.154 129.825C247.154 129.825 244.159 123.827 243.328 122.939C242.942 122.527 242.4 122.007 241.931 121.568C241.389 121.06 240.943 120.662 240.943 120.662C240.943 120.662 235.232 124.771 235.288 126.104Z" fill="#D9B5BB"/>
<path d="M197.693 212.631L207.785 217.13C207.785 217.13 220.871 217.408 223.144 216.797C225.418 216.186 224.919 213.631 221.924 213.131C218.93 212.631 218.209 211.298 217.211 210.688C216.538 210.275 214.147 207.612 212.663 205.924C211.949 205.111 211.445 204.523 211.445 204.523C211.445 204.523 209.504 199.358 204.125 200.524C203.144 200.737 202.239 201.214 201.508 201.904C198.61 204.591 198.359 209.91 198.359 209.91L197.693 212.631Z" fill="#434175"/>
<path opacity="0.1" d="M201.642 156.118C202.007 156.339 202.445 156.602 202.945 156.904C209.914 161.111 228.924 172.513 229.964 172.422C230.237 172.399 231.057 172.276 232.188 172.091C232.487 172.043 232.809 171.99 233.148 171.933C233.162 171.911 233.174 171.89 233.186 171.869C233.744 170.892 234.171 169.846 234.456 168.757C235.62 164.314 229.854 160.926 229.854 160.926L228.634 159.977C227.247 157.638 217.267 155.428 217.267 155.428L215.98 154.563L215.294 154.101L215.113 153.98L213.552 152.929L205.733 153.484L203.411 154.979L203.166 155.137L202.304 155.692L201.642 156.118Z" fill="black"/>
<path opacity="0.1" d="M201.508 201.904C203.631 209.257 212.498 206.856 212.498 206.856L212.663 205.924C211.949 205.111 211.445 204.523 211.445 204.523C211.445 204.523 209.504 199.358 204.125 200.524C203.144 200.737 202.239 201.214 201.508 201.904Z" fill="black"/>
<path d="M199.19 168.535C202.462 168.535 210.89 172.478 210.89 172.478C212.609 173.811 214.938 173.367 214.938 173.367C214.938 173.367 210.835 177.532 210.945 179.253C211.056 180.975 208.617 183.808 208.617 183.808L201.076 198.747C201.63 209.355 212.498 206.411 212.498 206.411L212.942 203.912C213.607 203.579 214.605 200.247 214.605 200.247C214.605 200.247 214.605 198.914 215.27 198.525C215.936 198.136 217.322 194.137 217.322 194.137C217.322 194.137 220.316 189.084 220.15 188.417C219.984 187.751 222.312 184.363 222.312 184.363C222.312 184.363 226.249 180.475 226.083 179.781C225.917 179.087 229.244 175.533 229.244 175.533C230.449 174.598 231.45 173.427 232.188 172.091C232.746 171.115 233.173 170.068 233.458 168.979C234.396 165.401 230.838 162.507 229.418 161.517C229.074 161.277 228.855 161.148 228.855 161.148L227.636 160.199C227.006 159.135 224.597 158.098 222.158 157.284C220.4 156.696 218.624 156.224 217.49 155.941C216.739 155.755 216.269 155.65 216.269 155.65L214.982 154.785L214.53 154.481L214.115 154.202L212.554 153.151L209.075 153.398L204.735 153.706L202.413 155.201L201.306 155.915L196.972 158.705C196.972 158.705 196.858 159.773 196.822 161.207C196.819 161.318 196.817 161.43 196.815 161.546C196.769 164.449 197.081 168.535 199.19 168.535Z" fill="#565387"/>
<path d="M215.88 106.333L217.045 110.498C217.045 110.498 219.097 117.663 219.318 118.163C219.54 118.662 224.919 123.716 225.14 123.827C225.362 123.938 228.291 125.605 228.291 125.605C228.291 125.605 228.523 116.441 228.301 113.775C228.282 113.189 228.33 112.604 228.445 112.029C228.799 109.94 229.694 106.876 230.436 104.517C231.057 102.54 231.572 101.057 231.572 101.057C231.572 101.057 218.597 100.502 219.041 101.779C219.209 102.262 219.154 103.07 218.992 103.879C218.725 105.211 218.166 106.547 217.821 106.444C217.484 106.368 217.139 106.329 216.793 106.33C216.314 106.315 215.88 106.333 215.88 106.333Z" fill="#D9B5BB"/>
<path opacity="0.1" d="M218.992 103.879C222.247 106.601 226.899 106.86 230.436 104.517C231.057 102.54 231.572 101.057 231.572 101.057C231.572 101.057 218.597 100.502 219.041 101.779C219.208 102.262 219.154 103.07 218.992 103.879Z" fill="black"/>
<path d="M234.734 96.172C234.735 97.191 234.573 98.2035 234.255 99.1714C234.174 99.4212 234.082 99.6668 233.977 99.9074C232.449 103.533 228.868 105.858 224.939 105.776C221.011 105.694 217.53 103.221 216.154 99.5352C215.773 98.5157 215.57 97.4381 215.555 96.3497C215.549 96.2914 215.549 96.2303 215.549 96.172C215.549 90.8657 219.844 86.5641 225.142 86.5641C230.439 86.5641 234.734 90.8657 234.734 96.172Z" fill="#D9B5BB"/>
<path opacity="0.1" d="M215.88 106.333L217.045 110.498C217.045 110.498 219.097 117.663 219.318 118.163C219.54 118.662 224.919 123.716 225.14 123.827C225.362 123.938 228.291 125.605 228.291 125.605C228.291 125.605 228.523 116.441 228.301 113.775C228.282 113.189 228.33 112.604 228.445 112.029L227.691 115.108L227.747 121.273L228.19 121.606L227.192 123.105V121.995C227.192 121.995 223.643 118.551 223.089 117.107C222.534 115.663 220.538 113.049 220.538 113.049C220.538 113.049 218.265 109.221 218.209 108.555C218.166 108.035 217.211 106.833 216.793 106.33C216.314 106.315 215.88 106.333 215.88 106.333Z" fill="black"/>
<path opacity="0.1" d="M235.288 126.104C235.355 126.486 235.487 126.854 235.679 127.191C236.891 127.066 241.022 126.294 241.931 121.568C241.389 121.06 240.943 120.662 240.943 120.662C240.943 120.662 235.232 124.771 235.288 126.104Z" fill="black"/>
<path opacity="0.1" d="M196.815 161.546C197.934 160.753 198.999 159.671 199.634 159.371C200.577 158.927 202.018 157.483 202.018 157.483C202.018 157.483 202.384 157.234 202.945 156.904C203.974 156.3 205.661 155.425 206.953 155.317C208.111 155.22 211.957 154.974 214.982 154.785C217.171 154.647 218.93 154.539 218.93 154.539C218.93 154.539 222.534 153.262 224.087 154.095C225.199 154.653 226.371 155.082 227.58 155.372C227.58 155.372 227.581 155.251 227.587 155.043L227.58 155.039L226.416 153.151L214.115 154.202L212.553 153.151L204.735 153.706L202.413 155.201L200.41 155.372C200.41 155.372 200.731 155.567 201.306 155.915L196.972 158.705C196.972 158.705 196.839 159.945 196.815 161.546Z" fill="black"/>
<path d="M195.198 162.037C195.785 161.862 196.335 161.581 196.822 161.208V161.207C197.938 160.415 199 159.337 199.634 159.038C200.577 158.594 202.018 157.15 202.018 157.15C202.018 157.15 204.957 155.15 206.953 154.984C207.498 154.938 208.636 154.859 210.003 154.77C211.402 154.677 213.04 154.573 214.53 154.481C215.388 154.426 216.196 154.375 216.88 154.333C218.104 154.257 218.93 154.206 218.93 154.206C218.93 154.206 222.534 152.929 224.087 153.762C225.199 154.32 226.371 154.748 227.58 155.039C227.58 155.039 227.636 151.152 228.079 149.541C228.523 147.931 229.133 144.987 229.133 144.987C229.133 144.987 229.632 140.933 230.131 139.1C230.63 137.267 232.57 127.048 233.569 126.382C234.567 125.716 235.121 126.882 235.121 126.882C235.121 126.882 241.775 126.771 241.886 119.44C241.886 119.44 238.781 116.33 238.559 115.552C238.337 114.775 235.398 111.887 235.398 111.887C235.398 111.887 233.735 108.777 231.85 108.721C230.959 108.67 230.065 108.697 229.179 108.803L227.58 115.33L227.636 121.495L228.079 121.828L227.081 123.328V122.217C227.081 122.217 223.532 118.773 222.978 117.329C222.423 115.886 220.427 113.271 220.427 113.271C220.427 113.271 218.154 109.443 218.098 108.777C218.043 108.11 216.49 106.324 216.49 106.324C216.177 106.287 215.861 106.287 215.548 106.324C215.408 106.334 215.267 106.314 215.135 106.266C214.24 105.98 213.287 105.926 212.365 106.109C210.448 106.507 207.531 107.237 206.731 108.11C205.512 109.443 203.737 110.721 201.741 116.274L212.498 120.162L211.578 121.915L203.016 138.211C203.016 138.211 202.732 138.675 202.348 139.28V139.281C201.849 140.066 201.181 141.091 200.743 141.655C199.967 142.654 200.188 145.82 200.188 145.82C200.188 145.82 200.022 147.32 199.468 147.875C198.913 148.43 199.024 150.485 199.024 150.485L197.582 155.872C197.582 155.872 196.252 157.094 196.252 157.65C196.252 158.205 195.198 159.76 195.198 159.76C195.198 159.76 193.59 162.426 195.198 162.037Z" fill="#434175"/>
<path opacity="0.1" d="M251.978 166.036C251.978 166.036 248.484 167.202 247.542 168.868C246.599 170.534 251.978 166.036 251.978 166.036Z" fill="black"/>
<path opacity="0.1" d="M250.203 162.37C250.092 162.537 245.419 167.234 245.712 168.368C246.005 169.502 250.203 162.37 250.203 162.37Z" fill="black"/>
<path opacity="0.1" d="M224.53 165.702C224.53 165.702 219.318 168.164 218.875 169.238C218.431 170.312 224.53 165.702 224.53 165.702Z" fill="black"/>
<path opacity="0.1" d="M224.198 168.868C224.198 168.868 219.494 170.867 218.852 171.367C218.209 171.867 224.198 168.868 224.198 168.868Z" fill="black"/>
<path opacity="0.1" d="M222.035 173.144C222.035 173.144 219.952 174.699 218.803 173.478C217.655 172.256 222.035 173.144 222.035 173.144Z" fill="black"/>
<path opacity="0.1" d="M229.854 132.602C229.743 132.769 222.812 145.265 220.982 146.209C219.152 147.153 229.854 132.602 229.854 132.602Z" fill="black"/>
<path opacity="0.1" d="M229.521 137.323C229.521 137.601 222.756 152.096 221.647 152.262C220.538 152.429 229.521 137.323 229.521 137.323Z" fill="black"/>
<path opacity="0.1" d="M203.793 146.653C203.793 146.653 200.526 153.641 199.246 154.04C197.966 154.438 203.793 146.653 203.793 146.653Z" fill="black"/>
<path opacity="0.1" d="M203.238 143.543C203.238 143.543 202.112 145.987 201.427 145.987C200.743 145.987 203.238 143.543 203.238 143.543Z" fill="black"/>
<path opacity="0.1" d="M234.734 96.172C234.735 97.191 234.573 98.2035 234.254 99.1714C234.174 99.4212 234.082 99.6668 233.977 99.9074C233.485 99.8326 233.021 99.6285 232.632 99.3158C232.221 99.0364 231.877 98.6682 231.626 98.2382C231.437 97.7801 231.273 97.3119 231.135 96.8357C230.685 95.7413 229.678 94.9771 228.504 94.8389C228.822 95.3832 228.315 96.1303 227.691 96.2275C227.067 96.3219 226.46 95.9498 226.03 95.486C225.601 95.0222 225.29 94.4584 224.863 93.9946C224.433 93.5308 223.826 93.1587 223.202 93.2531C222.65 93.3364 222.223 93.7586 221.76 94.0724C221.3 94.3862 220.654 94.5973 220.207 94.2612C219.958 94.0752 219.836 93.7586 219.597 93.5558C218.985 93.042 218.031 93.5725 217.579 94.2362C216.883 95.2638 216.459 95.8859 215.555 96.3497C215.549 96.2914 215.549 96.2303 215.549 96.172C215.549 90.8657 219.844 86.5641 225.142 86.5641C230.439 86.5641 234.734 90.8657 234.734 96.172Z" fill="black"/>
<path d="M217.58 93.9584C218.031 93.2941 218.984 92.763 219.599 93.2794C219.837 93.4798 219.959 93.7967 220.207 93.9844C220.653 94.3207 221.3 94.1097 221.761 93.7947C222.222 93.4797 222.65 93.0595 223.202 92.9754C223.826 92.8803 224.434 93.2529 224.862 93.717C225.291 94.1812 225.602 94.7444 226.03 95.2084C226.459 95.6725 227.067 96.0447 227.691 95.9491C228.315 95.8534 228.824 95.1056 228.503 94.5611C229.677 94.6997 230.683 95.4637 231.134 96.5578C231.272 97.0339 231.436 97.5021 231.625 97.9601C231.876 98.39 232.221 98.7579 232.633 99.0367C233.142 99.4103 233.758 99.7253 234.38 99.617C235.001 99.5086 235.527 98.7953 235.239 98.2335C235.437 98.5357 235.864 98.1148 235.928 97.7588C236.069 96.9782 236.025 96.1754 235.8 95.4148C235.493 94.3825 234.851 93.3588 235.098 92.3107C235.294 91.481 236.002 90.8852 236.432 90.1492C237.194 88.8444 236.992 87.0867 236.065 85.8934C235.088 84.7074 233.607 84.057 232.074 84.1413C231.658 84.189 231.237 84.1968 230.819 84.1647C230.123 84.0611 229.534 83.6123 228.98 83.1786L224.335 79.5473C223.818 79.0911 223.224 78.7322 222.58 78.4879C221.923 78.284 221.136 78.3543 220.651 78.8411C219.781 79.7121 220.334 81.2111 219.985 82.3922C219.682 83.4152 218.709 84.1084 217.701 84.454C216.693 84.7995 215.615 84.8754 214.58 85.1255C214.271 85.1765 213.982 85.3112 213.744 85.5151C213.476 85.847 213.346 86.2701 213.381 86.6958C213.375 87.7407 213.622 88.7715 214.102 89.6991C214.64 90.7351 215.493 91.8 215.191 92.9279C215.031 93.5249 214.572 93.9848 214.167 94.4512C213.289 95.4623 212.993 96.9563 214.645 96.4344C216.236 95.9317 216.682 95.2801 217.58 93.9584Z" fill="#434175"/>
<g opacity="0.1">
<path opacity="0.1" d="M235.929 96.6639C235.865 97.0199 235.438 97.4407 235.24 97.1386C235.528 97.7003 235.002 98.4137 234.381 98.522C233.759 98.6303 233.143 98.3153 232.634 97.9418C232.222 97.663 231.877 97.2951 231.626 96.8652C231.437 96.4071 231.273 95.939 231.135 95.4629C230.684 94.3688 229.678 93.6047 228.504 93.4662C228.825 94.0107 228.316 94.7585 227.692 94.8541C227.068 94.9498 226.46 94.5776 226.031 94.1135C225.603 93.6494 225.292 93.0863 224.863 92.6221C224.435 92.1579 223.827 91.7854 223.203 91.8805C222.651 91.9646 222.223 92.3848 221.762 92.6998C221.301 93.0147 220.654 93.2258 220.208 92.8894C219.96 92.7018 219.838 92.3849 219.6 92.1844C218.985 91.6681 218.032 92.1992 217.581 92.8634C216.683 94.1852 216.237 94.8367 214.646 95.3394C214.124 95.5045 213.797 95.4672 213.621 95.308C213.272 96.1111 213.431 96.8183 214.646 96.4344C216.237 95.9317 216.683 95.2801 217.581 93.9584C218.032 93.2941 218.985 92.763 219.6 93.2794C219.838 93.4798 219.96 93.7967 220.208 93.9844C220.654 94.3207 221.301 94.1097 221.762 93.7947C222.223 93.4798 222.651 93.0595 223.203 92.9755C223.827 92.8803 224.435 93.2529 224.863 93.7171C225.292 94.1812 225.603 94.7444 226.031 95.2084C226.46 95.6725 227.068 96.0447 227.692 95.9491C228.316 95.8534 228.825 95.1056 228.504 94.5611C229.678 94.6997 230.684 95.4637 231.135 96.5578C231.273 97.0339 231.437 97.5021 231.626 97.9601C231.877 98.39 232.222 98.758 232.634 99.0367C233.143 99.4103 233.759 99.7253 234.381 99.617C235.002 99.5086 235.528 98.7953 235.24 98.2335C235.438 98.5357 235.865 98.1148 235.929 97.7588C236.015 97.2795 236.032 96.7902 235.979 96.3061C235.966 96.4259 235.951 96.5453 235.929 96.6639Z" fill="black"/>
<path opacity="0.1" d="M215.178 91.8752C215.182 91.8609 215.188 91.8475 215.192 91.833C215.494 90.7051 214.641 89.6402 214.103 88.6042C213.726 87.8736 213.492 87.0773 213.414 86.2585C213.393 86.4034 213.383 86.5495 213.382 86.6958C213.376 87.7407 213.623 88.7715 214.103 89.6991C214.471 90.4073 214.985 91.1291 215.178 91.8752Z" fill="black"/>
<path opacity="0.1" d="M236.433 89.0542C236.003 89.7903 235.295 90.3861 235.099 91.2158C235.023 91.5668 235.027 91.9304 235.109 92.28C235.316 91.4667 236.009 90.8758 236.433 90.1492C236.833 89.4375 236.984 88.6119 236.86 87.8045C236.8 88.2448 236.655 88.6692 236.433 89.0542Z" fill="black"/>
</g>
<path opacity="0.1" d="M202.348 139.28V139.281C202.421 139.588 202.478 139.898 202.517 140.211C202.517 140.211 206.898 150.485 207.452 151.096C207.623 151.284 208.266 152.208 209.075 153.398C209.367 153.827 209.681 154.293 210.003 154.77C211.68 157.263 213.552 160.093 213.552 160.093L217.655 163.703C217.655 163.703 226.581 164.418 229.418 161.517C229.074 161.277 228.855 161.148 228.855 161.148L227.636 160.199C227.006 159.135 224.597 158.098 222.158 157.284C219.912 157.301 218.074 157.483 218.074 157.483L217.49 155.941L216.88 154.333L213.778 146.153C213.778 146.153 211.777 135.823 211.112 135.324C210.446 134.824 210.613 133.269 210.613 133.269C210.613 133.269 211.833 128.881 211.389 128.27C210.946 127.659 212.11 123.161 212.11 123.161C211.994 122.722 211.815 122.302 211.578 121.915L203.016 138.211C203.016 138.211 202.732 138.675 202.348 139.28Z" fill="black"/>
<path d="M212.221 122.828C212.221 122.828 211.056 127.326 211.5 127.937C211.944 128.548 210.724 132.935 210.724 132.935C210.724 132.935 210.557 134.49 211.223 134.99C211.888 135.49 213.889 145.82 213.889 145.82L218.185 157.15C218.185 157.15 231.628 155.817 230.242 160.038C228.855 164.258 217.766 163.37 217.766 163.37L213.662 159.76C213.662 159.76 208.118 151.374 207.563 150.763C207.009 150.152 202.628 139.878 202.628 139.878C202.628 139.878 202.406 137.823 201.464 136.768C200.521 135.712 201.242 133.928 201.242 133.928C201.242 133.928 200.078 120.495 201.297 118.885C202.517 117.274 210.945 117.996 212.221 122.828Z" fill="#D9B5BB"/>
<path opacity="0.1" d="M205.345 114.386L201.852 116.496C201.852 116.496 200.854 119.884 200.078 120.328C200.078 120.328 207.064 116.441 212.332 125.382C212.332 125.382 212.165 124.216 212.886 123.661C213.607 123.105 213.441 120.717 213.441 120.717C213.633 120.34 213.799 119.95 213.94 119.551C214.439 118.329 211.833 111.331 205.345 114.386Z" fill="black"/>
<path d="M205.234 114.164L201.741 116.274C201.741 116.274 200.743 119.662 199.967 120.106C199.967 120.106 206.953 116.219 212.221 125.16C212.221 125.16 212.054 123.994 212.775 123.439C213.496 122.883 213.33 120.495 213.33 120.495C213.522 120.118 213.688 119.728 213.829 119.329C214.328 118.107 211.722 111.109 205.234 114.164Z" fill="#434175"/>
<path d="M174.099 211.424C179.85 211.424 184.513 206.467 184.513 200.353C184.513 194.238 179.85 189.281 174.099 189.281C168.347 189.281 163.685 194.238 163.685 200.353C163.685 206.467 168.347 211.424 174.099 211.424Z" fill="#FBD56F"/>
<path opacity="0.1" d="M174.099 211.424C179.85 211.424 184.513 206.467 184.513 200.353C184.513 194.238 179.85 189.281 174.099 189.281C168.347 189.281 163.685 194.238 163.685 200.353C163.685 206.467 168.347 211.424 174.099 211.424Z" fill="black"/>
<path d="M175.896 211.424C181.647 211.424 186.31 206.578 186.31 200.599C186.31 194.621 181.647 189.774 175.896 189.774C170.145 189.774 165.482 194.621 165.482 200.599C165.482 206.578 170.145 211.424 175.896 211.424Z" fill="#FBD56F"/>
<path d="M24.9949 206.437C32.0983 206.437 37.8568 205.462 37.8568 204.259C37.8568 203.057 32.0983 202.082 24.9949 202.082C17.8915 202.082 12.1331 203.057 12.1331 204.259C12.1331 205.462 17.8915 206.437 24.9949 206.437Z" fill="#2A46FF"/>
<path d="M30.3132 200.696C30.864 200.184 31.3808 199.579 31.5395 198.843C31.6982 198.107 31.3849 197.224 30.6826 196.955C29.8956 196.654 29.0547 197.2 28.4171 197.752C27.7796 198.303 27.0488 198.933 26.2144 198.816C27.0875 198.024 27.4812 196.83 27.2515 195.673C27.2149 195.438 27.1152 195.217 26.9631 195.034C26.5262 194.567 25.7343 194.767 25.2112 195.136C23.5478 196.308 23.0836 198.571 23.0745 200.608C22.9068 199.873 23.0481 199.108 23.0439 198.354C23.0398 197.6 22.8336 196.765 22.1988 196.36C21.8034 196.147 21.3587 196.042 20.9098 196.056C20.162 196.029 19.3292 196.104 18.8186 196.652C18.1841 197.332 18.3486 198.474 18.9006 199.224C19.4526 199.973 20.2922 200.442 21.0651 200.96C21.685 201.33 22.2137 201.835 22.6119 202.438C22.6587 202.522 22.6971 202.61 22.7265 202.702H27.4143C28.4666 202.167 29.4417 201.493 30.3132 200.696Z" fill="#2A46FF"/>
<path d="M141.308 190.059C141.881 190.844 142.35 191.701 142.702 192.608C142.795 192.843 142.887 193.089 142.973 193.347C144.358 197.495 142.163 202.469 141.535 201.933C140.907 201.396 138.951 200.401 138.573 201.8C138.195 203.198 136.798 204.628 136.798 204.628C134.252 207.193 131.948 204.422 130.436 201.559C129.942 200.615 129.502 199.642 129.12 198.647C128.784 197.768 128.591 197.161 128.591 197.161L139.194 188.113C139.194 188.113 140.219 188.584 141.308 190.059Z" fill="#2A46FF"/>
<path d="M124.598 195.844C125.171 196.63 125.64 197.487 125.992 198.394C126.085 198.628 126.177 198.874 126.263 199.133C127.649 203.281 125.453 208.255 124.825 207.718C124.197 207.182 122.241 206.186 121.863 207.585C121.485 208.984 120.088 210.414 120.088 210.414C117.542 212.978 115.238 210.208 113.726 207.345C113.232 206.4 112.792 205.428 112.41 204.433C112.074 203.554 111.881 202.946 111.881 202.946L122.484 193.898C122.484 193.898 123.509 194.37 124.598 195.844Z" fill="#2A46FF"/>
<path d="M91.0463 203.837C90.9867 204.808 90.8014 205.767 90.4949 206.691C90.4173 206.931 90.3305 207.179 90.2322 207.433C88.6561 211.512 83.7965 213.938 83.6551 213.124C83.5137 212.309 82.642 210.293 81.4595 211.128C80.277 211.963 78.2903 212.171 78.2903 212.171C74.6967 212.518 74.6882 208.912 75.3479 205.741C75.5692 204.698 75.8505 203.669 76.1903 202.658C76.4919 201.767 76.7306 201.176 76.7306 201.176L90.6582 200.987C90.6582 200.987 91.147 202.005 91.0463 203.837Z" fill="#2A46FF"/>
<path d="M73.051 199.291C72.9915 200.262 72.8062 201.222 72.4997 202.145C72.422 202.385 72.3353 202.633 72.237 202.887C70.6609 206.966 65.8013 209.392 65.6598 208.578C65.5184 207.764 64.6468 205.747 63.4643 206.582C62.2818 207.417 60.2951 207.625 60.2951 207.625C56.7014 207.972 56.6929 204.366 57.3526 201.196C57.574 200.152 57.8553 199.123 58.195 198.113C58.4967 197.221 58.7354 196.63 58.7354 196.63L72.6629 196.441C72.6629 196.441 73.1517 197.459 73.051 199.291Z" fill="#2A46FF"/>
<path opacity="0.2" d="M141.308 190.059C141.881 190.844 142.35 191.701 142.702 192.608C142.795 192.843 142.887 193.089 142.973 193.347C144.358 197.495 142.163 202.469 141.535 201.933C140.907 201.396 138.951 200.401 138.573 201.8C138.195 203.198 136.798 204.628 136.798 204.628C134.252 207.193 131.948 204.422 130.436 201.559C129.942 200.615 129.502 199.642 129.12 198.647C128.784 197.768 128.591 197.161 128.591 197.161L139.194 188.113C139.194 188.113 140.219 188.584 141.308 190.059Z" fill="black"/>
<path opacity="0.2" d="M124.598 195.844C125.171 196.63 125.64 197.487 125.992 198.394C126.085 198.628 126.177 198.874 126.263 199.133C127.649 203.281 125.453 208.255 124.825 207.718C124.197 207.182 122.241 206.186 121.863 207.585C121.485 208.984 120.088 210.414 120.088 210.414C117.542 212.978 115.238 210.208 113.726 207.345C113.232 206.4 112.792 205.428 112.41 204.433C112.074 203.554 111.881 202.946 111.881 202.946L122.484 193.898C122.484 193.898 123.509 194.37 124.598 195.844Z" fill="black"/>
<path opacity="0.2" d="M91.0463 203.837C90.9867 204.808 90.8014 205.767 90.4949 206.691C90.4173 206.931 90.3305 207.179 90.2322 207.433C88.6561 211.512 83.7965 213.938 83.6551 213.124C83.5137 212.309 82.642 210.293 81.4595 211.128C80.277 211.963 78.2903 212.171 78.2903 212.171C74.6967 212.518 74.6882 208.912 75.3479 205.741C75.5692 204.698 75.8505 203.669 76.1903 202.658C76.4919 201.767 76.7306 201.176 76.7306 201.176L90.6582 200.987C90.6582 200.987 91.147 202.005 91.0463 203.837Z" fill="black"/>
<path opacity="0.2" d="M73.051 199.291C72.9915 200.262 72.8062 201.222 72.4997 202.145C72.422 202.385 72.3353 202.633 72.237 202.887C70.6609 206.966 65.8013 209.392 65.6598 208.578C65.5184 207.764 64.6468 205.747 63.4643 206.582C62.2818 207.417 60.2951 207.625 60.2951 207.625C56.7014 207.972 56.6929 204.366 57.3526 201.196C57.574 200.152 57.8553 199.123 58.195 198.113C58.4967 197.221 58.7354 196.63 58.7354 196.63L72.6629 196.441C72.6629 196.441 73.1517 197.459 73.051 199.291Z" fill="black"/>
<path d="M169.589 138.155C169.589 175.414 157.005 205.618 98.9327 205.618C59.9101 205.618 29.72 195.907 28.276 138.155C27.3446 100.907 59.91 70.6912 98.9327 70.6912C137.955 70.6912 169.589 100.896 169.589 138.155Z" fill="#2A46FF"/>
<path opacity="0.2" d="M85.6781 71.8689H85.6856C85.6838 71.8699 85.6819 71.8706 85.68 71.8708L85.6781 71.8689Z" fill="black"/>
<path opacity="0.2" d="M85.8163 71.8462C85.9958 71.8173 86.3506 71.7677 86.8664 71.7284L85.7173 71.8648C85.7338 71.8607 85.7544 71.8565 85.7792 71.8524C85.7916 71.8503 85.8019 71.8483 85.8163 71.8462Z" fill="black"/>
<path opacity="0.2" d="M138.026 99.4122L132.869 101.272C130.239 97.7405 127.411 94.3628 124.396 91.1554C121.106 87.6403 117.515 84.4192 113.666 81.5287C100.461 71.7263 90.2476 71.4763 86.8746 71.7284L94.6273 70.8151C101.954 72.0779 109.001 74.6291 115.441 78.3508C119.946 80.9521 124.142 84.0568 127.948 87.6056C134.698 93.8808 138.026 99.4122 138.026 99.4122Z" fill="black"/>
<path opacity="0.2" d="M91.4029 102.925C91.4029 102.925 84.5951 80.196 90.3714 73.9972C90.3714 73.9972 99.4485 70.8978 106.256 88.461L91.4029 102.925Z" fill="black"/>
<path d="M125.875 81.6961C125.875 81.6961 143.929 66.3299 151.915 69.1417C151.915 69.1417 158.392 76.2254 145.062 89.5188L125.875 81.6961Z" fill="#2A46FF"/>
<path opacity="0.2" d="M125.875 81.6961C125.875 81.6961 143.929 66.3299 151.915 69.1417C151.915 69.1417 158.392 76.2254 145.062 89.5188L125.875 81.6961Z" fill="black"/>
<path d="M182.173 155.305C182.173 175.332 167.825 191.154 154.323 191.154C140.822 191.154 133.281 175.332 133.281 155.305C133.281 135.277 144.249 119.824 157.727 119.042C179.079 117.802 182.173 135.277 182.173 155.305Z" fill="#2A46FF"/>
<path opacity="0.2" d="M182.173 155.305C182.173 175.332 167.825 191.154 154.323 191.154C140.822 191.154 133.281 175.332 133.281 155.305C133.281 135.277 144.249 119.824 157.727 119.042C179.079 117.802 182.173 135.277 182.173 155.305Z" fill="black"/>
<path d="M153.498 164.086C156.005 164.086 158.037 161.496 158.037 158.301C158.037 155.105 156.005 152.515 153.498 152.515C150.992 152.515 148.96 155.105 148.96 158.301C148.96 161.496 150.992 164.086 153.498 164.086Z" fill="#2A46FF"/>
<path d="M169.589 159.127C172.096 159.127 174.128 156.537 174.128 153.342C174.128 150.146 172.096 147.556 169.589 147.556C167.083 147.556 165.051 150.146 165.051 153.342C165.051 156.537 167.083 159.127 169.589 159.127Z" fill="#2A46FF"/>
<path d="M128.829 83.8739C128.832 85.1698 128.531 86.4483 127.948 87.6056C127.18 89.1434 125.933 90.3893 124.396 91.1554C121.105 87.6403 117.515 84.4192 113.666 81.5287C114.009 80.3483 114.616 79.2615 115.441 78.3508C116.878 76.7455 118.928 75.8257 121.081 75.8196C125.359 75.8196 128.829 79.4252 128.829 83.8739Z" fill="#FAD46F"/>
<defs>
<linearGradient id="paint0_linear_8_6003" x1="233.198" y1="217.193" x2="233.198" y2="77.209" gradientUnits="userSpaceOnUse">
<stop stop-color="#808080" stop-opacity="0.25"/>
<stop offset="0.53514" stop-color="#808080" stop-opacity="0.12"/>
<stop offset="1" stop-color="#808080" stop-opacity="0.1"/>
</linearGradient>
</defs>
</svg>
