<svg width="100" height="100" viewBox="0 0 100 100" fill="none" xmlns="http://www.w3.org/2000/svg">
<path opacity="0.1" d="M12.5 50C12.5 19.1187 19.1187 12.5 50 12.5C80.8812 12.5 87.5 19.1187 87.5 50C87.5 80.8812 80.8812 87.5 50 87.5C19.1187 87.5 12.5 80.8812 12.5 50Z" fill="#20AAE5"/>
<path d="M37.5 50H62.5" stroke="#20AAE5" stroke-width="4" stroke-linecap="round" stroke-linejoin="round"/>
<path d="M50 37.5V62.5" stroke="#20AAE5" stroke-width="4" stroke-linecap="round" stroke-linejoin="round"/>
<path d="M12.5 50C12.5 19.1187 19.1187 12.5 50 12.5C80.8812 12.5 87.5 19.1187 87.5 50C87.5 80.8812 80.8812 87.5 50 87.5C19.1187 87.5 12.5 80.8812 12.5 50Z" stroke="#20AAE5" stroke-width="4"/>
</svg>
