<svg width="244" height="244" viewBox="0 0 244 244" fill="none" xmlns="http://www.w3.org/2000/svg">
<path d="M223.25 0.5H20.75C9.56187 0.5 0.5 9.56187 0.5 20.75V223.25C0.5 234.438 9.56187 243.5 20.75 243.5H223.25C234.438 243.5 243.5 234.438 243.5 223.25V20.75C243.5 9.56187 234.438 0.5 223.25 0.5Z" fill="#B4E6DD"/>
<path d="M223.25 20.75H20.75V223.25H223.25V20.75Z" fill="#80D4C4"/>
<path d="M236.21 55.5294H210.341V97.8519H236.21V55.5294Z" fill="#32A48E"/>
<path d="M236.21 146.199H210.341V188.521H236.21V146.199Z" fill="#32A48E"/>
<path d="M94.055 65.7556C63.0725 65.7556 37.8106 90.9669 37.8106 122C37.8106 153.033 63.0219 178.244 94.055 178.244C125.088 178.244 150.249 152.982 150.249 122C150.249 91.0175 125.038 65.7556 94.055 65.7556ZM134.353 114.406H115.014C112.736 108.179 107.876 103.319 101.649 101.041V81.7025C118.203 84.7906 131.214 97.8519 134.353 114.406ZM86.8663 122C86.8663 118.051 90.1063 114.811 94.055 114.811C98.0038 114.811 101.244 118.051 101.244 122C101.244 125.949 98.0038 129.189 94.055 129.189C90.1063 129.189 86.8663 125.949 86.8663 122ZM86.4613 81.7025V101.041C80.2344 103.319 75.3744 108.179 73.0963 114.406H53.7575C56.8456 97.8519 69.9069 84.7906 86.4613 81.7025ZM53.7575 129.594H73.0963C75.3744 135.821 80.2344 140.681 86.4613 142.959V162.297C69.9069 159.209 56.8456 146.148 53.7575 129.594ZM101.649 162.297V142.959C107.876 140.681 112.736 135.821 115.014 129.594H134.353C131.214 146.148 118.203 159.209 101.649 162.297Z" fill="white"/>
</svg>
