<svg width="28" height="16" viewBox="0 0 28 16" fill="none" xmlns="http://www.w3.org/2000/svg">
<g clip-path="url(#clip0_6_3747)">
<path d="M27.5717 5.43647C27.2808 5.08146 26.8713 4.87815 26.4482 4.87815H25.8121V4.35587C25.8121 3.41763 25.0106 2.65378 24.0258 2.65378H23.1871V1.68974C23.1871 1.23597 22.9968 0.793321 22.6656 0.474792C22.0068 -0.158264 20.868 -0.158264 20.2091 0.474792C19.8775 0.793766 19.6872 1.23642 19.6872 1.69019V6.21322H8.31237V1.69019C8.31237 1.23642 8.1225 0.793766 7.79088 0.475236C7.13201 -0.157819 5.99322 -0.157819 5.33435 0.475236C5.00273 0.793766 4.81242 1.23642 4.81242 1.69019V2.65423H3.87181C3.42951 2.65423 3.01127 2.81661 2.69365 3.11156C2.37209 3.41185 2.18747 3.83092 2.18747 4.26067V4.87815H1.55748C1.13223 4.87815 0.720989 5.08235 0.429181 5.43869C0.152685 5.7768 0 6.22123 0 6.68968V9.29486C0 9.76331 0.152685 10.2077 0.429618 10.5458C0.721426 10.9022 1.13267 11.1064 1.55748 11.1064H2.18747V11.7239C2.18747 12.1536 2.37209 12.5727 2.69452 12.8739C3.01127 13.1684 3.42951 13.3308 3.87181 13.3308H4.81242V14.2948C4.81242 14.7486 5.00273 15.1912 5.33392 15.5093C5.66335 15.8256 6.09953 16 6.5624 16C7.02527 16 7.46145 15.8256 7.79088 15.5093C8.1225 15.1908 8.31237 14.7481 8.31237 14.2948V9.77177H19.6872V14.2948C19.6872 14.7486 19.8775 15.1912 20.2087 15.5093C20.5381 15.8256 20.9743 16 21.4372 16C21.9 16 22.3362 15.8256 22.6656 15.5093C22.9968 15.1908 23.1871 14.7481 23.1871 14.2948V13.3308H24.0258C25.0106 13.3308 25.8121 12.5674 25.8121 11.6287V11.1064H26.4482C26.8713 11.1064 27.2808 10.9026 27.5721 10.5481C27.8478 10.2113 28 9.7691 28 9.30242V6.68256C27.9996 6.21589 27.8478 5.77324 27.5717 5.43647ZM1.55748 10.2166C1.39079 10.2166 1.22892 10.1312 1.10205 9.97641C0.957673 9.80068 0.874986 9.552 0.874986 9.29486V6.68968C0.874986 6.43254 0.957673 6.1843 1.10205 6.00813C1.22892 5.85332 1.39079 5.7679 1.55748 5.7679H2.18747V10.2166H1.55748ZM3.87181 12.441C3.65176 12.441 3.43782 12.3596 3.28601 12.2181C3.14164 12.0833 3.06245 11.908 3.06245 11.7239V10.6615V5.32303V4.26067C3.06245 4.07649 3.14164 3.90077 3.28514 3.76686C3.43826 3.62494 3.65176 3.54353 3.87181 3.54353H4.81242V12.441H3.87181ZM7.43738 14.2948C7.43738 14.5079 7.34945 14.7094 7.1902 14.8625C6.86208 15.1774 6.26315 15.1774 5.93503 14.8625C5.77535 14.7094 5.68741 14.5074 5.68741 14.2948V12.8859V3.09866V1.68974C5.68741 1.47665 5.77535 1.27512 5.93459 1.12208C6.09865 0.964598 6.32746 0.874288 6.5624 0.874288C6.79733 0.874288 7.02614 0.964598 7.1902 1.12208C7.34945 1.27512 7.43738 1.47709 7.43738 1.69019V6.65809V9.32734V14.2948ZM8.31237 8.88202V7.10252H19.6872V8.88202H8.31237ZM22.3122 14.2948C22.3122 14.5079 22.2242 14.7094 22.065 14.8625C21.7368 15.1774 21.1379 15.1774 20.8098 14.8625C20.6501 14.7094 20.5622 14.5074 20.5622 14.2948V9.32689V6.65765V1.69019C20.5622 1.47709 20.6501 1.27556 20.8094 1.12253C20.9734 0.965043 21.2022 0.874733 21.4372 0.874733C21.6721 0.874733 21.9009 0.965043 22.065 1.12253C22.2242 1.27512 22.3122 1.47709 22.3122 1.69019V3.0991V12.8863V14.2948ZM24.9371 11.6287C24.9371 12.0767 24.5285 12.441 24.0258 12.441H23.1871V3.54353H24.0258C24.5281 3.54353 24.9371 3.90788 24.9371 4.35587V5.32303V10.6615V11.6287ZM27.1246 9.30198C27.1246 9.55734 27.0423 9.80335 26.8997 9.97819C26.7737 10.1321 26.6131 10.2166 26.4482 10.2166H25.8121V5.7679H26.4482C26.6131 5.7679 26.7737 5.85243 26.8997 6.00635C27.0428 6.18074 27.1246 6.4272 27.1246 6.68256V9.30198Z" fill="#298693"/>
</g>
<defs>
<clipPath id="clip0_6_3747">
<rect width="28" height="16" fill="white"/>
</clipPath>
</defs>
</svg>
