<svg width="16" height="20" viewBox="0 0 16 20" fill="none" xmlns="http://www.w3.org/2000/svg">
<mask id="mask0_15_1708" style="mask-type:alpha" maskUnits="userSpaceOnUse" x="0" y="0" width="16" height="20">
<path d="M15.0455 5.26003C15.0455 5.85021 14.6235 6.28907 14.0357 6.28907H6.22893L3.90799 6.18314L5.59594 7.60564L6.77148 8.60442C6.96741 8.77088 7.0729 9.04327 7.0729 9.34593C7.0729 9.90585 6.63584 10.3447 6.07822 10.3447C5.79187 10.3447 5.55073 10.2388 5.36988 10.0572L1.25549 6.15287C0.984216 5.89562 0.863647 5.56269 0.863647 5.26003C0.863647 4.95737 0.969145 4.66985 1.25549 4.39745L5.36988 0.462878C5.55073 0.281291 5.79187 0.190491 6.07822 0.190491C6.63584 0.190491 7.0729 0.614216 7.0729 1.17414C7.0729 1.47679 6.96741 1.73406 6.77148 1.90051L5.59594 2.92955L3.92306 4.33692L6.22893 4.23099H14.0357C14.6235 4.23099 15.0455 4.65472 15.0455 5.26003ZM15.0455 14.5214C15.0455 14.8392 14.9249 15.157 14.6536 15.4142L10.5392 19.3337C10.3584 19.5153 10.1172 19.6061 9.8309 19.6061C9.27327 19.6061 8.83621 19.1672 8.83621 18.6073C8.83621 18.3198 8.94171 18.0322 9.13763 17.8809L10.3132 16.8821L12.0162 15.4596L9.68019 15.5504H1.8734C1.28564 15.5504 0.863647 15.1267 0.863647 14.5214C0.863647 13.9312 1.28564 13.5075 1.8734 13.5075H9.68019L11.9861 13.5983L10.3132 12.2061L9.13763 11.177C8.94171 11.0106 8.83621 10.7533 8.83621 10.4506C8.83621 9.89072 9.27327 9.46699 9.8309 9.46699C10.1172 9.46699 10.3584 9.54266 10.5392 9.72425L14.6536 13.674C14.94 13.9464 15.0455 14.2339 15.0455 14.5214Z" fill="white"/>
</mask>
<g mask="url(#mask0_15_1708)">
<path fill-rule="evenodd" clip-rule="evenodd" d="M-6.87189 -6.28134H20.2025V26.078H-6.87189V-6.28134Z" fill="#20AAE5"/>
</g>
</svg>
