<svg width="20" height="23" viewBox="0 0 20 23" fill="none" xmlns="http://www.w3.org/2000/svg">
<path d="M11.7766 15.2776C11.6895 15.1836 11.5792 15.1132 11.4653 15.0546C11.2173 14.9271 10.946 14.8498 10.6766 14.78V16.8373C11.1138 16.7886 11.6157 16.6322 11.8453 16.2299C11.9549 16.0377 11.9767 15.8016 11.932 15.5877C11.9078 15.4718 11.8578 15.3654 11.7766 15.2776Z" fill="#20AAE5"/>
<path d="M11.8699 16.2629C11.8715 16.2602 11.8724 16.2585 11.8741 16.2556C11.8727 16.258 11.8713 16.2604 11.8699 16.2629Z" fill="#20AAE5"/>
<path d="M8.62597 11.9888C8.55081 12.097 8.50365 12.2199 8.49064 12.3505C8.47763 12.4814 8.48493 12.627 8.53538 12.7503C8.58342 12.8677 8.68406 12.9544 8.78793 13.0242C8.90449 13.1024 9.03268 13.1634 9.16324 13.2151C9.27277 13.2586 9.39597 13.3002 9.52878 13.3403V11.4787C9.19327 11.5492 8.82669 11.6999 8.62597 11.9888Z" fill="#20AAE5"/>
<path d="M11.8865 16.2346C11.8809 16.2444 11.8749 16.2546 11.869 16.2653C11.8759 16.2528 11.8814 16.2436 11.8865 16.2346Z" fill="#20AAE5"/>
<path d="M11.8927 16.2234C11.894 16.221 11.8942 16.2208 11.8927 16.2234V16.2234Z" fill="#20AAE5"/>
<path d="M11.4119 5.00419C13.1868 3.53447 14.3728 0.223388 13.643 0.078569C12.6732 -0.113928 10.5672 0.730145 9.54937 0.878861C8.10566 1.05068 6.53327 -0.664304 5.65067 0.29163C4.93304 1.06887 6.16515 3.89543 8.09282 5.12683C2.34173 7.91302 -5.74182 21.8999 8.36035 22.9148C27.8731 24.3191 18.1024 7.71928 11.4119 5.00419ZM13.0877 16.0349C13.0277 16.5802 12.7345 17.0734 12.2963 17.4081C11.8336 17.7616 11.2532 17.926 10.6766 17.9721V18.5746C10.6766 18.7358 10.6051 18.8917 10.4827 18.9984C10.3144 19.1452 10.0671 19.1814 9.86291 19.0886C9.66126 18.9972 9.52878 18.7933 9.52878 18.5746V17.9161C9.4299 17.8976 9.33174 17.8755 9.23472 17.8493C8.69581 17.7033 8.19592 17.4188 7.83077 16.9979C7.64888 16.7881 7.50059 16.55 7.39803 16.293C7.37124 16.2259 7.34736 16.1575 7.32644 16.0883C7.3075 16.0257 7.28795 15.962 7.2812 15.8968C7.26984 15.7873 7.29185 15.6756 7.34363 15.5781C7.45003 15.3775 7.67424 15.2563 7.90319 15.2764C8.1285 15.2961 8.32599 15.4503 8.39692 15.662C8.41877 15.7272 8.43359 15.794 8.45813 15.8585C8.48246 15.9226 8.51183 15.9849 8.54636 16.0442C8.61455 16.161 8.69998 16.2687 8.79836 16.3621C9.00117 16.5547 9.25948 16.6799 9.52878 16.7544V14.516C9.00221 14.3816 8.45868 14.208 8.02386 13.8748C7.81254 13.7128 7.63323 13.5114 7.5158 13.2732C7.39188 13.0217 7.34055 12.7415 7.33846 12.4632C7.33632 12.1807 7.39079 11.9006 7.51036 11.6432C7.62236 11.4021 7.78361 11.1857 7.98131 11.0063C8.40406 10.6228 8.96559 10.4089 9.52883 10.3303V10.281V9.70485C9.52883 9.54369 9.60026 9.38772 9.72269 9.281C9.89102 9.13429 10.1382 9.09803 10.3425 9.19079C10.5441 9.2823 10.6766 9.48611 10.6766 9.70485V10.281V10.3269C10.7517 10.3362 10.8265 10.3473 10.9009 10.3607C11.454 10.4593 11.995 10.6844 12.3994 11.0775C12.591 11.2637 12.7479 11.4855 12.8582 11.7274C12.889 11.7949 12.916 11.8639 12.9393 11.9343C12.961 12 12.9829 12.0676 12.9933 12.1361C13.0098 12.2455 12.9929 12.3585 12.9454 12.4585C12.8482 12.6635 12.63 12.7941 12.4004 12.7844C12.1749 12.7747 11.9705 12.6299 11.8898 12.4221C11.8657 12.3603 11.8537 12.2949 11.8292 12.2332C11.8044 12.1708 11.7723 12.1113 11.7354 12.0551C11.6636 11.9458 11.5705 11.852 11.4643 11.7748C11.2343 11.6074 10.9552 11.5201 10.6764 11.4714V13.6134C11.0078 13.6916 11.3394 13.7769 11.6568 13.9003C12.1366 14.0868 12.5913 14.3728 12.8531 14.8237C12.8125 14.7534 12.773 14.685 12.8545 14.826C12.9346 14.9645 12.8964 14.8985 12.8562 14.8291C13.0645 15.191 13.133 15.6238 13.0877 16.0349Z" fill="#20AAE5"/>
</svg>
