<svg width="24" height="24" viewBox="0 0 24 24" fill="none" xmlns="http://www.w3.org/2000/svg">
<g clip-path="url(#clip0_6_3758)">
<path d="M20.266 8.49564L22.067 6.89437L22.0739 6.88868C23.522 5.54714 24.2191 3.58017 23.9392 1.62593L23.8738 1.1619C23.7952 0.634411 23.3811 0.220137 22.8537 0.141395L22.3932 0.0763648C20.435 -0.204128 18.4641 0.495928 17.1212 1.94853L15.5199 3.7498L14.6545 3.25188C12.3763 1.9452 9.79509 1.25964 7.1688 1.26336L6.42409 1.26611C5.71013 1.26944 5.0514 1.6512 4.69354 2.26898L4.55329 2.51265C4.44282 2.70441 4.50844 2.94945 4.7 3.06012L12.3428 7.47278L6.37042 14.2395L5.91305 14.8275C4.67278 14.148 3.28148 13.7911 1.86707 13.7897L1.26299 13.787C0.835398 13.7919 0.441298 14.0201 0.224465 14.3887L0.0538584 14.6808C0.000580508 14.7728 -0.0139142 14.8825 0.0137041 14.9854C0.0411265 15.0882 0.108507 15.1759 0.200764 15.229L4.09181 17.4755C3.98153 17.6888 3.87694 17.9027 3.78174 18.1225C3.57255 18.618 3.62387 19.1853 3.91866 19.6352C4.21345 20.0851 4.71293 20.3588 5.2508 20.365C5.47155 20.3647 5.68995 20.3192 5.89268 20.2319C5.90287 20.2277 5.91305 20.223 5.92265 20.2178C6.12323 20.1316 6.32987 20.0301 6.53966 19.9218L8.78614 23.8128C8.83903 23.9055 8.92658 23.9734 9.02961 24.0013C9.13264 24.0293 9.24253 24.015 9.33498 23.9617L9.62977 23.7913H9.63212C10.0006 23.5725 10.2278 23.1766 10.2307 22.7483L10.228 22.1516C10.2262 20.736 9.86835 19.3436 9.18729 18.1025L9.76688 17.6516L16.5389 11.6721L20.9539 19.3159C21.0647 19.5075 21.3098 19.5733 21.5015 19.4628L21.745 19.3228C22.363 18.9647 22.7447 18.3058 22.7479 17.5915L22.7502 16.8477C22.761 14.2207 22.0751 11.6375 20.7625 9.3618L20.266 8.49564ZM6.42703 2.06841L7.17155 2.06563C9.65661 2.05999 12.0992 2.70892 14.2538 3.94704L14.9856 4.36798L12.878 6.85832L5.45294 2.57024C5.67879 2.25704 6.04076 2.07056 6.42703 2.06841ZM1.26495 14.5893L1.86668 14.592C3.10382 14.5922 4.32236 14.8927 5.41769 15.4678L5.16579 15.7924C5.02006 15.9765 4.88177 16.171 4.74701 16.3708C4.70686 16.4286 4.67082 16.4875 4.63262 16.5465C4.58326 16.6231 4.53155 16.6969 4.48376 16.7755L0.953706 14.7387C1.0301 14.6451 1.1441 14.5903 1.26495 14.5893ZM9.42352 22.1522L9.42645 22.7449C9.42645 22.8677 9.37122 22.9839 9.27641 23.0615L7.2401 19.5314C7.31786 19.484 7.39093 19.4335 7.46673 19.3845C7.52647 19.3445 7.58719 19.3079 7.64576 19.2682C7.84026 19.1375 8.02928 19.0031 8.20733 18.8631L8.21928 18.8543L8.54835 18.5983C9.12363 19.6946 9.42391 20.9141 9.42352 22.1522ZM9.25467 17.0338L8.42906 17.6757C8.4271 17.6757 8.42436 17.6757 8.4224 17.6792L7.72274 18.2249C7.33608 18.5279 6.92592 18.8 6.49598 19.038C6.19903 19.2063 5.89327 19.3586 5.58026 19.4946C5.57125 19.4981 5.56283 19.502 5.55401 19.5065C5.25217 19.6231 4.90978 19.5477 4.68472 19.3154C4.45947 19.0829 4.39503 18.7383 4.52117 18.4402C4.65789 18.1248 4.81106 17.8169 4.98049 17.5176C5.21887 17.0857 5.49134 16.6736 5.79553 16.2854L6.33712 15.5904C6.33712 15.5904 6.33712 15.5861 6.34026 15.5841L6.98821 14.7497L17.7151 2.48778C18.7011 1.42398 20.0854 0.818533 21.536 0.816966C21.7844 0.816966 22.0324 0.834791 22.2782 0.870636L22.7387 0.935666C22.9146 0.961718 23.0532 1.09942 23.0799 1.27551L23.1453 1.73914C23.387 3.4313 22.7833 5.13443 21.5299 6.29656L9.25467 17.0338ZM21.9471 17.5891C21.945 17.975 21.7583 18.3368 21.4449 18.5622L17.1574 11.1352L19.6486 9.02959L20.0701 9.76216C21.3119 11.916 21.9605 14.3607 21.9495 16.8469L21.9471 17.5891Z" fill="#A73131"/>
<path d="M19.3761 2.99079C19.8491 2.71088 20.4518 2.78708 20.8402 3.17589C21.2286 3.56489 21.3044 4.1674 21.024 4.64025C20.9109 4.83083 20.9738 5.07685 21.1642 5.19007C21.3548 5.30309 21.601 5.24041 21.714 5.04982C22.1814 4.26201 22.0556 3.25757 21.4083 2.60922C20.7609 1.96107 19.7566 1.83376 18.9681 2.29994C18.8431 2.37202 18.7665 2.5058 18.7675 2.64996C18.7683 2.79432 18.8466 2.92693 18.9726 2.99745C19.0985 3.06796 19.2527 3.06541 19.3761 2.99079Z" fill="#A73131"/>
</g>
<defs>
<clipPath id="clip0_6_3758">
<rect width="24" height="24" fill="white"/>
</clipPath>
</defs>
</svg>
