<svg width="23" height="21" viewBox="0 0 23 21" fill="none" xmlns="http://www.w3.org/2000/svg">
<path d="M2.5 11.5H1.375V7C1.375 5.75736 2.38236 4.75 3.625 4.75H8.125M2.5 11.5V18.25C2.5 19.4927 3.50736 20.5 4.75 20.5H18.25C19.4927 20.5 20.5 19.4927 20.5 18.25V11.5M2.5 11.5H9.25M8.125 4.75V3.625C8.125 2.38236 9.13236 1.375 10.375 1.375H12.625C13.8677 1.375 14.875 2.38236 14.875 3.625V4.75M8.125 4.75H14.875M20.5 11.5H21.625V7C21.625 5.75736 20.6177 4.75 19.375 4.75H14.875M20.5 11.5H13.75M9.25 11.5V9.25H13.75V11.5M9.25 11.5V13.75H13.75V11.5" stroke="#4E2703" stroke-linecap="round" stroke-linejoin="round"/>
</svg>
